<svg width="333" height="1200" viewBox="0 0 333 1200" fill="none" xmlns="http://www.w3.org/2000/svg">
    <rect x="30" y="30" width="261.625" height="112.993" fill="#18AB55" />
    <rect x="41.375" y="39.0067" width="261.625" height="112.993" fill="white" />
    <path
        d="M73.892 79.444H68.654L67.754 82H65.612L70.094 69.472H72.47L76.952 82H74.792L73.892 79.444ZM73.316 77.77L71.282 71.956L69.23 77.77H73.316ZM87.9548 73.09C87.6308 72.466 87.1808 71.998 86.6048 71.686C86.0288 71.362 85.3628 71.2 84.6068 71.2C83.7788 71.2 83.0408 71.386 82.3928 71.758C81.7448 72.13 81.2348 72.658 80.8628 73.342C80.5028 74.026 80.3228 74.818 80.3228 75.718C80.3228 76.618 80.5028 77.416 80.8628 78.112C81.2348 78.796 81.7448 79.324 82.3928 79.696C83.0408 80.068 83.7788 80.254 84.6068 80.254C85.7228 80.254 86.6288 79.942 87.3248 79.318C88.0208 78.694 88.4468 77.848 88.6028 76.78H83.9048V75.142H90.7988V76.744C90.6668 77.716 90.3188 78.61 89.7548 79.426C89.2028 80.242 88.4768 80.896 87.5768 81.388C86.6888 81.868 85.6988 82.108 84.6068 82.108C83.4308 82.108 82.3568 81.838 81.3848 81.298C80.4128 80.746 79.6388 79.984 79.0628 79.012C78.4988 78.04 78.2168 76.942 78.2168 75.718C78.2168 74.494 78.4988 73.396 79.0628 72.424C79.6388 71.452 80.4128 70.696 81.3848 70.156C82.3688 69.604 83.4428 69.328 84.6068 69.328C85.9388 69.328 87.1208 69.658 88.1528 70.318C89.1968 70.966 89.9528 71.89 90.4208 73.09H87.9548ZM99.3207 82L96.4407 76.996H94.8747V82H92.8227V69.49H97.1427C98.1027 69.49 98.9127 69.658 99.5727 69.994C100.245 70.33 100.743 70.78 101.067 71.344C101.403 71.908 101.571 72.538 101.571 73.234C101.571 74.05 101.331 74.794 100.851 75.466C100.383 76.126 99.6567 76.576 98.6727 76.816L101.769 82H99.3207ZM94.8747 75.358H97.1427C97.9107 75.358 98.4867 75.166 98.8707 74.782C99.2667 74.398 99.4647 73.882 99.4647 73.234C99.4647 72.586 99.2727 72.082 98.8887 71.722C98.5047 71.35 97.9227 71.164 97.1427 71.164H94.8747V75.358ZM106.248 69.49V82H104.196V69.49H106.248ZM108.258 75.718C108.258 74.494 108.54 73.396 109.104 72.424C109.68 71.452 110.454 70.696 111.426 70.156C112.41 69.604 113.484 69.328 114.648 69.328C115.98 69.328 117.162 69.658 118.194 70.318C119.238 70.966 119.994 71.89 120.462 73.09H117.996C117.672 72.43 117.222 71.938 116.646 71.614C116.07 71.29 115.404 71.128 114.648 71.128C113.82 71.128 113.082 71.314 112.434 71.686C111.786 72.058 111.276 72.592 110.904 73.288C110.544 73.984 110.364 74.794 110.364 75.718C110.364 76.642 110.544 77.452 110.904 78.148C111.276 78.844 111.786 79.384 112.434 79.768C113.082 80.14 113.82 80.326 114.648 80.326C115.404 80.326 116.07 80.164 116.646 79.84C117.222 79.516 117.672 79.024 117.996 78.364H120.462C119.994 79.564 119.238 80.488 118.194 81.136C117.162 81.784 115.98 82.108 114.648 82.108C113.472 82.108 112.398 81.838 111.426 81.298C110.454 80.746 109.68 79.984 109.104 79.012C108.54 78.04 108.258 76.942 108.258 75.718ZM124.898 69.49V77.464C124.898 78.412 125.144 79.126 125.636 79.606C126.14 80.086 126.836 80.326 127.724 80.326C128.624 80.326 129.32 80.086 129.812 79.606C130.316 79.126 130.568 78.412 130.568 77.464V69.49H132.62V77.428C132.62 78.448 132.398 79.312 131.954 80.02C131.51 80.728 130.916 81.256 130.172 81.604C129.428 81.952 128.606 82.126 127.706 82.126C126.806 82.126 125.984 81.952 125.24 81.604C124.508 81.256 123.926 80.728 123.494 80.02C123.062 79.312 122.846 78.448 122.846 77.428V69.49H124.898ZM137.343 80.344H141.573V82H135.291V69.49H137.343V80.344ZM151.371 69.49V71.164H148.041V82H145.989V71.164H142.641V69.49H151.371ZM155.484 69.49V77.464C155.484 78.412 155.73 79.126 156.222 79.606C156.726 80.086 157.422 80.326 158.31 80.326C159.21 80.326 159.906 80.086 160.398 79.606C160.902 79.126 161.154 78.412 161.154 77.464V69.49H163.206V77.428C163.206 78.448 162.984 79.312 162.54 80.02C162.096 80.728 161.502 81.256 160.758 81.604C160.014 81.952 159.192 82.126 158.292 82.126C157.392 82.126 156.57 81.952 155.826 81.604C155.094 81.256 154.512 80.728 154.08 80.02C153.648 79.312 153.432 78.448 153.432 77.428V69.49H155.484ZM172.375 82L169.495 76.996H167.929V82H165.877V69.49H170.197C171.157 69.49 171.967 69.658 172.627 69.994C173.299 70.33 173.797 70.78 174.121 71.344C174.457 71.908 174.625 72.538 174.625 73.234C174.625 74.05 174.385 74.794 173.905 75.466C173.437 76.126 172.711 76.576 171.727 76.816L174.823 82H172.375ZM167.929 75.358H170.197C170.965 75.358 171.541 75.166 171.925 74.782C172.321 74.398 172.519 73.882 172.519 73.234C172.519 72.586 172.327 72.082 171.943 71.722C171.559 71.35 170.977 71.164 170.197 71.164H167.929V75.358ZM184.792 79.444H179.554L178.654 82H176.512L180.994 69.472H183.37L187.852 82H185.692L184.792 79.444ZM184.216 77.77L182.182 71.956L180.13 77.77H184.216ZM191.853 80.344H196.083V82H189.801V69.49H191.853V80.344ZM204.527 71.146V74.818H208.847V76.492H204.527V80.326H209.387V82H202.475V69.472H209.387V71.146H204.527ZM216.036 82.126C215.196 82.126 214.44 81.982 213.768 81.694C213.096 81.394 212.568 80.974 212.184 80.434C211.8 79.894 211.608 79.264 211.608 78.544H213.804C213.852 79.084 214.062 79.528 214.434 79.876C214.818 80.224 215.352 80.398 216.036 80.398C216.744 80.398 217.296 80.23 217.692 79.894C218.088 79.546 218.286 79.102 218.286 78.562C218.286 78.142 218.16 77.8 217.908 77.536C217.668 77.272 217.362 77.068 216.99 76.924C216.63 76.78 216.126 76.624 215.478 76.456C214.662 76.24 213.996 76.024 213.48 75.808C212.976 75.58 212.544 75.232 212.184 74.764C211.824 74.296 211.644 73.672 211.644 72.892C211.644 72.172 211.824 71.542 212.184 71.002C212.544 70.462 213.048 70.048 213.696 69.76C214.344 69.472 215.094 69.328 215.946 69.328C217.158 69.328 218.148 69.634 218.916 70.246C219.696 70.846 220.128 71.674 220.212 72.73H217.944C217.908 72.274 217.692 71.884 217.296 71.56C216.9 71.236 216.378 71.074 215.73 71.074C215.142 71.074 214.662 71.224 214.29 71.524C213.918 71.824 213.732 72.256 213.732 72.82C213.732 73.204 213.846 73.522 214.074 73.774C214.314 74.014 214.614 74.206 214.974 74.35C215.334 74.494 215.826 74.65 216.45 74.818C217.278 75.046 217.95 75.274 218.466 75.502C218.994 75.73 219.438 76.084 219.798 76.564C220.17 77.032 220.356 77.662 220.356 78.454C220.356 79.09 220.182 79.69 219.834 80.254C219.498 80.818 219 81.274 218.34 81.622C217.692 81.958 216.924 82.126 216.036 82.126ZM230.86 69.49V71.164H227.53V82H225.478V71.164H222.13V69.49H230.86ZM240.48 79.444H235.242L234.342 82H232.2L236.682 69.472H239.058L243.54 82H241.38L240.48 79.444ZM239.904 77.77L237.87 71.956L235.818 77.77H239.904ZM253.571 69.49V71.164H250.241V82H248.189V71.164H244.841V69.49H253.571ZM257.701 71.146V74.818H262.021V76.492H257.701V80.326H262.561V82H255.649V69.472H262.561V71.146H257.701ZM70.436 99.49C71.768 99.49 72.932 99.748 73.928 100.264C74.936 100.768 75.71 101.5 76.25 102.46C76.802 103.408 77.078 104.518 77.078 105.79C77.078 107.062 76.802 108.166 76.25 109.102C75.71 110.038 74.936 110.758 73.928 111.262C72.932 111.754 71.768 112 70.436 112H66.35V99.49H70.436ZM70.436 110.326C71.9 110.326 73.022 109.93 73.802 109.138C74.582 108.346 74.972 107.23 74.972 105.79C74.972 104.338 74.582 103.204 73.802 102.388C73.022 101.572 71.9 101.164 70.436 101.164H68.402V110.326H70.436ZM81.1637 101.146V104.818H85.4837V106.492H81.1637V110.326H86.0237V112H79.1117V99.472H86.0237V101.146H81.1637ZM99.3332 99.49L94.6352 112H92.2592L87.5432 99.49H89.7392L93.4472 109.894L97.1732 99.49H99.3332ZM103.101 101.146V104.818H107.421V106.492H103.101V110.326H107.961V112H101.049V99.472H107.961V101.146H103.101ZM112.541 110.344H116.771V112H110.489V99.49H112.541V110.344ZM124.193 112.126C123.029 112.126 121.955 111.856 120.971 111.316C119.999 110.764 119.225 110.002 118.649 109.03C118.085 108.046 117.803 106.942 117.803 105.718C117.803 104.494 118.085 103.396 118.649 102.424C119.225 101.452 119.999 100.696 120.971 100.156C121.955 99.604 123.029 99.328 124.193 99.328C125.369 99.328 126.443 99.604 127.415 100.156C128.399 100.696 129.173 101.452 129.737 102.424C130.301 103.396 130.583 104.494 130.583 105.718C130.583 106.942 130.301 108.046 129.737 109.03C129.173 110.002 128.399 110.764 127.415 111.316C126.443 111.856 125.369 112.126 124.193 112.126ZM124.193 110.344C125.021 110.344 125.759 110.158 126.407 109.786C127.055 109.402 127.559 108.862 127.919 108.166C128.291 107.458 128.477 106.642 128.477 105.718C128.477 104.794 128.291 103.984 127.919 103.288C127.559 102.592 127.055 102.058 126.407 101.686C125.759 101.314 125.021 101.128 124.193 101.128C123.365 101.128 122.627 101.314 121.979 101.686C121.331 102.058 120.821 102.592 120.449 103.288C120.089 103.984 119.909 104.794 119.909 105.718C119.909 106.642 120.089 107.458 120.449 108.166C120.821 108.862 121.331 109.402 121.979 109.786C122.627 110.158 123.365 110.344 124.193 110.344ZM141.35 103.216C141.35 103.852 141.2 104.452 140.9 105.016C140.6 105.58 140.12 106.042 139.46 106.402C138.8 106.75 137.954 106.924 136.922 106.924H134.654V112H132.602V99.49H136.922C137.882 99.49 138.692 99.658 139.352 99.994C140.024 100.318 140.522 100.762 140.846 101.326C141.182 101.89 141.35 102.52 141.35 103.216ZM136.922 105.25C137.702 105.25 138.284 105.076 138.668 104.728C139.052 104.368 139.244 103.864 139.244 103.216C139.244 101.848 138.47 101.164 136.922 101.164H134.654V105.25H136.922ZM156.483 99.49V112H154.431V103.432L150.615 112H149.193L145.359 103.432V112H143.307V99.49H145.521L149.913 109.3L154.287 99.49H156.483ZM161.232 101.146V104.818H165.552V106.492H161.232V110.326H166.092V112H159.18V99.472H166.092V101.146H161.232ZM178.898 112H176.846L170.672 102.658V112H168.62V99.472H170.672L176.846 108.796V99.472H178.898V112ZM189.674 99.49V101.164H186.344V112H184.292V101.164H180.944V99.49H189.674ZM200.55 112.126C199.71 112.126 198.954 111.982 198.282 111.694C197.61 111.394 197.082 110.974 196.698 110.434C196.314 109.894 196.122 109.264 196.122 108.544H198.318C198.366 109.084 198.576 109.528 198.948 109.876C199.332 110.224 199.866 110.398 200.55 110.398C201.258 110.398 201.81 110.23 202.206 109.894C202.602 109.546 202.8 109.102 202.8 108.562C202.8 108.142 202.674 107.8 202.422 107.536C202.182 107.272 201.876 107.068 201.504 106.924C201.144 106.78 200.64 106.624 199.992 106.456C199.176 106.24 198.51 106.024 197.994 105.808C197.49 105.58 197.058 105.232 196.698 104.764C196.338 104.296 196.158 103.672 196.158 102.892C196.158 102.172 196.338 101.542 196.698 101.002C197.058 100.462 197.562 100.048 198.21 99.76C198.858 99.472 199.608 99.328 200.46 99.328C201.672 99.328 202.662 99.634 203.43 100.246C204.21 100.846 204.642 101.674 204.726 102.73H202.458C202.422 102.274 202.206 101.884 201.81 101.56C201.414 101.236 200.892 101.074 200.244 101.074C199.656 101.074 199.176 101.224 198.804 101.524C198.432 101.824 198.246 102.256 198.246 102.82C198.246 103.204 198.36 103.522 198.588 103.774C198.828 104.014 199.128 104.206 199.488 104.35C199.848 104.494 200.34 104.65 200.964 104.818C201.792 105.046 202.464 105.274 202.98 105.502C203.508 105.73 203.952 106.084 204.312 106.564C204.684 107.032 204.87 107.662 204.87 108.454C204.87 109.09 204.696 109.69 204.348 110.254C204.012 110.818 203.514 111.274 202.854 111.622C202.206 111.958 201.438 112.126 200.55 112.126ZM206.607 105.718C206.607 104.494 206.889 103.396 207.453 102.424C208.029 101.452 208.803 100.696 209.775 100.156C210.759 99.604 211.833 99.328 212.997 99.328C214.329 99.328 215.511 99.658 216.543 100.318C217.587 100.966 218.343 101.89 218.811 103.09H216.345C216.021 102.43 215.571 101.938 214.995 101.614C214.419 101.29 213.753 101.128 212.997 101.128C212.169 101.128 211.431 101.314 210.783 101.686C210.135 102.058 209.625 102.592 209.253 103.288C208.893 103.984 208.713 104.794 208.713 105.718C208.713 106.642 208.893 107.452 209.253 108.148C209.625 108.844 210.135 109.384 210.783 109.768C211.431 110.14 212.169 110.326 212.997 110.326C213.753 110.326 214.419 110.164 214.995 109.84C215.571 109.516 216.021 109.024 216.345 108.364H218.811C218.343 109.564 217.587 110.488 216.543 111.136C215.511 111.784 214.329 112.108 212.997 112.108C211.821 112.108 210.747 111.838 209.775 111.298C208.803 110.746 208.029 109.984 207.453 109.012C206.889 108.04 206.607 106.942 206.607 105.718ZM231.203 99.49V112H229.151V106.528H223.265V112H221.213V99.49H223.265V104.854H229.151V99.49H231.203ZM235.957 101.146V104.818H240.277V106.492H235.957V110.326H240.817V112H233.905V99.472H240.817V101.146H235.957ZM256.52 99.49V112H254.468V103.432L250.652 112H249.23L245.396 103.432V112H243.344V99.49H245.558L249.95 109.3L254.324 99.49H256.52ZM261.269 101.146V104.818H265.589V106.492H261.269V110.326H266.129V112H259.217V99.472H266.129V101.146H261.269Z"
        fill="#13203C" />
    <rect x="47" y="227" width="240.204" height="151.905" fill="#FFD8B3" />
    <rect x="57.4436" y="239.108" width="240.204" height="151.905" fill="white" />
    <path
        d="M86.726 279.146V282.818H91.046V284.492H86.726V288.326H91.586V290H84.674V277.472H91.586V279.146H86.726ZM102.861 281.216C102.861 281.852 102.711 282.452 102.411 283.016C102.111 283.58 101.631 284.042 100.971 284.402C100.311 284.75 99.4654 284.924 98.4334 284.924H96.1654V290H94.1134V277.49H98.4334C99.3934 277.49 100.203 277.658 100.863 277.994C101.535 278.318 102.033 278.762 102.357 279.326C102.693 279.89 102.861 280.52 102.861 281.216ZM98.4334 283.25C99.2134 283.25 99.7954 283.076 100.179 282.728C100.563 282.368 100.755 281.864 100.755 281.216C100.755 279.848 99.9814 279.164 98.4334 279.164H96.1654V283.25H98.4334ZM106.871 279.146V282.818H111.191V284.492H106.871V288.326H111.731V290H104.819V277.472H111.731V279.146H106.871ZM88.76 307.49C90.092 307.49 91.256 307.748 92.252 308.264C93.26 308.768 94.034 309.5 94.574 310.46C95.126 311.408 95.402 312.518 95.402 313.79C95.402 315.062 95.126 316.166 94.574 317.102C94.034 318.038 93.26 318.758 92.252 319.262C91.256 319.754 90.092 320 88.76 320H84.674V307.49H88.76ZM88.76 318.326C90.224 318.326 91.346 317.93 92.126 317.138C92.906 316.346 93.296 315.23 93.296 313.79C93.296 312.338 92.906 311.204 92.126 310.388C91.346 309.572 90.224 309.164 88.76 309.164H86.726V318.326H88.76ZM99.4877 309.146V312.818H103.808V314.492H99.4877V318.326H104.348V320H97.4357V307.472H104.348V309.146H99.4877ZM117.657 307.49L112.959 320H110.583L105.867 307.49H108.063L111.771 317.894L115.497 307.49H117.657ZM121.425 309.146V312.818H125.745V314.492H121.425V318.326H126.285V320H119.373V307.472H126.285V309.146H121.425ZM130.865 318.344H135.095V320H128.813V307.49H130.865V318.344ZM142.517 320.126C141.353 320.126 140.279 319.856 139.295 319.316C138.323 318.764 137.549 318.002 136.973 317.03C136.409 316.046 136.127 314.942 136.127 313.718C136.127 312.494 136.409 311.396 136.973 310.424C137.549 309.452 138.323 308.696 139.295 308.156C140.279 307.604 141.353 307.328 142.517 307.328C143.693 307.328 144.767 307.604 145.739 308.156C146.723 308.696 147.497 309.452 148.061 310.424C148.625 311.396 148.907 312.494 148.907 313.718C148.907 314.942 148.625 316.046 148.061 317.03C147.497 318.002 146.723 318.764 145.739 319.316C144.767 319.856 143.693 320.126 142.517 320.126ZM142.517 318.344C143.345 318.344 144.083 318.158 144.731 317.786C145.379 317.402 145.883 316.862 146.243 316.166C146.615 315.458 146.801 314.642 146.801 313.718C146.801 312.794 146.615 311.984 146.243 311.288C145.883 310.592 145.379 310.058 144.731 309.686C144.083 309.314 143.345 309.128 142.517 309.128C141.689 309.128 140.951 309.314 140.303 309.686C139.655 310.058 139.145 310.592 138.773 311.288C138.413 311.984 138.233 312.794 138.233 313.718C138.233 314.642 138.413 315.458 138.773 316.166C139.145 316.862 139.655 317.402 140.303 317.786C140.951 318.158 141.689 318.344 142.517 318.344ZM159.674 311.216C159.674 311.852 159.524 312.452 159.224 313.016C158.924 313.58 158.444 314.042 157.784 314.402C157.124 314.75 156.278 314.924 155.246 314.924H152.978V320H150.926V307.49H155.246C156.206 307.49 157.016 307.658 157.676 307.994C158.348 308.318 158.846 308.762 159.17 309.326C159.506 309.89 159.674 310.52 159.674 311.216ZM155.246 313.25C156.026 313.25 156.608 313.076 156.992 312.728C157.376 312.368 157.568 311.864 157.568 311.216C157.568 309.848 156.794 309.164 155.246 309.164H152.978V313.25H155.246ZM174.807 307.49V320H172.755V311.432L168.939 320H167.517L163.683 311.432V320H161.631V307.49H163.845L168.237 317.3L172.611 307.49H174.807ZM179.556 309.146V312.818H183.876V314.492H179.556V318.326H184.416V320H177.504V307.472H184.416V309.146H179.556ZM197.222 320H195.17L188.996 310.658V320H186.944V307.472H188.996L195.17 316.796V307.472H197.222V320ZM207.998 307.49V309.164H204.668V320H202.616V309.164H199.268V307.49H207.998ZM88.796 350.126C87.956 350.126 87.2 349.982 86.528 349.694C85.856 349.394 85.328 348.974 84.944 348.434C84.56 347.894 84.368 347.264 84.368 346.544H86.564C86.612 347.084 86.822 347.528 87.194 347.876C87.578 348.224 88.112 348.398 88.796 348.398C89.504 348.398 90.056 348.23 90.452 347.894C90.848 347.546 91.046 347.102 91.046 346.562C91.046 346.142 90.92 345.8 90.668 345.536C90.428 345.272 90.122 345.068 89.75 344.924C89.39 344.78 88.886 344.624 88.238 344.456C87.422 344.24 86.756 344.024 86.24 343.808C85.736 343.58 85.304 343.232 84.944 342.764C84.584 342.296 84.404 341.672 84.404 340.892C84.404 340.172 84.584 339.542 84.944 339.002C85.304 338.462 85.808 338.048 86.456 337.76C87.104 337.472 87.854 337.328 88.706 337.328C89.918 337.328 90.908 337.634 91.676 338.246C92.456 338.846 92.888 339.674 92.972 340.73H90.704C90.668 340.274 90.452 339.884 90.056 339.56C89.66 339.236 89.138 339.074 88.49 339.074C87.902 339.074 87.422 339.224 87.05 339.524C86.678 339.824 86.492 340.256 86.492 340.82C86.492 341.204 86.606 341.522 86.834 341.774C87.074 342.014 87.374 342.206 87.734 342.35C88.094 342.494 88.586 342.65 89.21 342.818C90.038 343.046 90.71 343.274 91.226 343.502C91.754 343.73 92.198 344.084 92.558 344.564C92.93 345.032 93.116 345.662 93.116 346.454C93.116 347.09 92.942 347.69 92.594 348.254C92.258 348.818 91.76 349.274 91.1 349.622C90.452 349.958 89.684 350.126 88.796 350.126ZM94.8533 343.718C94.8533 342.494 95.1353 341.396 95.6993 340.424C96.2753 339.452 97.0493 338.696 98.0213 338.156C99.0053 337.604 100.079 337.328 101.243 337.328C102.575 337.328 103.757 337.658 104.789 338.318C105.833 338.966 106.589 339.89 107.057 341.09H104.591C104.267 340.43 103.817 339.938 103.241 339.614C102.665 339.29 101.999 339.128 101.243 339.128C100.415 339.128 99.6773 339.314 99.0293 339.686C98.3813 340.058 97.8713 340.592 97.4993 341.288C97.1393 341.984 96.9593 342.794 96.9593 343.718C96.9593 344.642 97.1393 345.452 97.4993 346.148C97.8713 346.844 98.3813 347.384 99.0293 347.768C99.6773 348.14 100.415 348.326 101.243 348.326C101.999 348.326 102.665 348.164 103.241 347.84C103.817 347.516 104.267 347.024 104.591 346.364H107.057C106.589 347.564 105.833 348.488 104.789 349.136C103.757 349.784 102.575 350.108 101.243 350.108C100.067 350.108 98.9933 349.838 98.0213 349.298C97.0493 348.746 96.2753 347.984 95.6993 347.012C95.1353 346.04 94.8533 344.942 94.8533 343.718ZM119.449 337.49V350H117.397V344.528H111.511V350H109.459V337.49H111.511V342.854H117.397V337.49H119.449ZM124.203 339.146V342.818H128.523V344.492H124.203V348.326H129.063V350H122.151V337.472H129.063V339.146H124.203ZM144.766 337.49V350H142.714V341.432L138.898 350H137.476L133.642 341.432V350H131.59V337.49H133.804L138.196 347.3L142.57 337.49H144.766ZM149.515 339.146V342.818H153.835V344.492H149.515V348.326H154.375V350H147.463V337.472H154.375V339.146H149.515Z"
        fill="#13203C" />
    <path d="M167 227L169.887 222H164.113L167 227ZM166.5 152V222.5H167.5V152H166.5Z" fill="black" fill-opacity="0.25" />
    <rect x="47" y="833" width="240.204" height="151.905" fill="#D5EFC0" />
    <g filter="url(#filter0_d_262_480)">
        <rect x="57.4436" y="845.108" width="240.204" height="151.905" fill="white" />
    </g>
    <path
        d="M92.7081 889.574C93.3801 889.694 93.9501 890.048 94.4181 890.636C94.8861 891.224 95.1201 891.89 95.1201 892.634C95.1201 893.27 94.9521 893.846 94.6161 894.362C94.2921 894.866 93.8181 895.268 93.1941 895.568C92.5701 895.856 91.8441 896 91.0161 896H86.0121V883.49H90.7821C91.6341 883.49 92.3661 883.634 92.9781 883.922C93.5901 884.21 94.0521 884.6 94.3641 885.092C94.6761 885.572 94.8321 886.112 94.8321 886.712C94.8321 887.432 94.6401 888.032 94.2561 888.512C93.8721 888.992 93.3561 889.346 92.7081 889.574ZM88.0641 888.746H90.6021C91.2741 888.746 91.7961 888.596 92.1681 888.296C92.5521 887.984 92.7441 887.54 92.7441 886.964C92.7441 886.4 92.5521 885.962 92.1681 885.65C91.7961 885.326 91.2741 885.164 90.6021 885.164H88.0641V888.746ZM90.8361 894.326C91.5321 894.326 92.0781 894.158 92.4741 893.822C92.8701 893.486 93.0681 893.018 93.0681 892.418C93.0681 891.806 92.8581 891.32 92.4381 890.96C92.0181 890.6 91.4601 890.42 90.7641 890.42H88.0641V894.326H90.8361ZM104.892 893.444H99.654L98.754 896H96.612L101.094 883.472H103.47L107.952 896H105.792L104.892 893.444ZM104.316 891.77L102.282 885.956L100.23 891.77H104.316ZM113.987 883.49C115.319 883.49 116.483 883.748 117.479 884.264C118.487 884.768 119.261 885.5 119.801 886.46C120.353 887.408 120.629 888.518 120.629 889.79C120.629 891.062 120.353 892.166 119.801 893.102C119.261 894.038 118.487 894.758 117.479 895.262C116.483 895.754 115.319 896 113.987 896H109.901V883.49H113.987ZM113.987 894.326C115.451 894.326 116.573 893.93 117.353 893.138C118.133 892.346 118.523 891.23 118.523 889.79C118.523 888.338 118.133 887.204 117.353 886.388C116.573 885.572 115.451 885.164 113.987 885.164H111.953V894.326H113.987ZM130.205 893.444H124.967L124.067 896H121.925L126.407 883.472H128.783L133.265 896H131.105L130.205 893.444ZM129.629 891.77L127.595 885.956L125.543 891.77H129.629ZM144.267 887.09C143.943 886.466 143.493 885.998 142.917 885.686C142.341 885.362 141.675 885.2 140.919 885.2C140.091 885.2 139.353 885.386 138.705 885.758C138.057 886.13 137.547 886.658 137.175 887.342C136.815 888.026 136.635 888.818 136.635 889.718C136.635 890.618 136.815 891.416 137.175 892.112C137.547 892.796 138.057 893.324 138.705 893.696C139.353 894.068 140.091 894.254 140.919 894.254C142.035 894.254 142.941 893.942 143.637 893.318C144.333 892.694 144.759 891.848 144.915 890.78H140.217V889.142H147.111V890.744C146.979 891.716 146.631 892.61 146.067 893.426C145.515 894.242 144.789 894.896 143.889 895.388C143.001 895.868 142.011 896.108 140.919 896.108C139.743 896.108 138.669 895.838 137.697 895.298C136.725 894.746 135.951 893.984 135.375 893.012C134.811 892.04 134.529 890.942 134.529 889.718C134.529 888.494 134.811 887.396 135.375 886.424C135.951 885.452 136.725 884.696 137.697 884.156C138.681 883.604 139.755 883.328 140.919 883.328C142.251 883.328 143.433 883.658 144.465 884.318C145.509 884.966 146.265 885.89 146.733 887.09H144.267ZM155.633 896L152.753 890.996H151.187V896H149.135V883.49H153.455C154.415 883.49 155.225 883.658 155.885 883.994C156.557 884.33 157.055 884.78 157.379 885.344C157.715 885.908 157.883 886.538 157.883 887.234C157.883 888.05 157.643 888.794 157.163 889.466C156.695 890.126 155.969 890.576 154.985 890.816L158.081 896H155.633ZM151.187 889.358H153.455C154.223 889.358 154.799 889.166 155.183 888.782C155.579 888.398 155.777 887.882 155.777 887.234C155.777 886.586 155.585 886.082 155.201 885.722C154.817 885.35 154.235 885.164 153.455 885.164H151.187V889.358ZM169.778 883.49L165.638 891.464V896H163.586V891.464L159.428 883.49H161.714L164.612 889.628L167.51 883.49H169.778ZM90.0981 913.49C91.4301 913.49 92.5941 913.748 93.5901 914.264C94.5981 914.768 95.3721 915.5 95.9121 916.46C96.4641 917.408 96.7401 918.518 96.7401 919.79C96.7401 921.062 96.4641 922.166 95.9121 923.102C95.3721 924.038 94.5981 924.758 93.5901 925.262C92.5941 925.754 91.4301 926 90.0981 926H86.0121V913.49H90.0981ZM90.0981 924.326C91.5621 924.326 92.6841 923.93 93.4641 923.138C94.2441 922.346 94.6341 921.23 94.6341 919.79C94.6341 918.338 94.2441 917.204 93.4641 916.388C92.6841 915.572 91.5621 915.164 90.0981 915.164H88.0641V924.326H90.0981ZM100.826 915.146V918.818H105.146V920.492H100.826V924.326H105.686V926H98.7738V913.472H105.686V915.146H100.826ZM118.995 913.49L114.297 926H111.921L107.205 913.49H109.401L113.109 923.894L116.835 913.49H118.995ZM122.763 915.146V918.818H127.083V920.492H122.763V924.326H127.623V926H120.711V913.472H127.623V915.146H122.763ZM132.203 924.344H136.433V926H130.151V913.49H132.203V924.344ZM143.855 926.126C142.691 926.126 141.617 925.856 140.633 925.316C139.661 924.764 138.887 924.002 138.311 923.03C137.747 922.046 137.465 920.942 137.465 919.718C137.465 918.494 137.747 917.396 138.311 916.424C138.887 915.452 139.661 914.696 140.633 914.156C141.617 913.604 142.691 913.328 143.855 913.328C145.031 913.328 146.105 913.604 147.077 914.156C148.061 914.696 148.835 915.452 149.399 916.424C149.963 917.396 150.245 918.494 150.245 919.718C150.245 920.942 149.963 922.046 149.399 923.03C148.835 924.002 148.061 924.764 147.077 925.316C146.105 925.856 145.031 926.126 143.855 926.126ZM143.855 924.344C144.683 924.344 145.421 924.158 146.069 923.786C146.717 923.402 147.221 922.862 147.581 922.166C147.953 921.458 148.139 920.642 148.139 919.718C148.139 918.794 147.953 917.984 147.581 917.288C147.221 916.592 146.717 916.058 146.069 915.686C145.421 915.314 144.683 915.128 143.855 915.128C143.027 915.128 142.289 915.314 141.641 915.686C140.993 916.058 140.483 916.592 140.111 917.288C139.751 917.984 139.571 918.794 139.571 919.718C139.571 920.642 139.751 921.458 140.111 922.166C140.483 922.862 140.993 923.402 141.641 923.786C142.289 924.158 143.027 924.344 143.855 924.344ZM161.012 917.216C161.012 917.852 160.862 918.452 160.562 919.016C160.262 919.58 159.782 920.042 159.122 920.402C158.462 920.75 157.616 920.924 156.584 920.924H154.316V926H152.264V913.49H156.584C157.544 913.49 158.354 913.658 159.014 913.994C159.686 914.318 160.184 914.762 160.508 915.326C160.844 915.89 161.012 916.52 161.012 917.216ZM156.584 919.25C157.364 919.25 157.946 919.076 158.33 918.728C158.714 918.368 158.906 917.864 158.906 917.216C158.906 915.848 158.132 915.164 156.584 915.164H154.316V919.25H156.584ZM176.145 913.49V926H174.093V917.432L170.277 926H168.855L165.021 917.432V926H162.969V913.49H165.183L169.575 923.3L173.949 913.49H176.145ZM180.894 915.146V918.818H185.214V920.492H180.894V924.326H185.754V926H178.842V913.472H185.754V915.146H180.894ZM198.56 926H196.508L190.334 916.658V926H188.282V913.472H190.334L196.508 922.796V913.472H198.56V926ZM209.336 913.49V915.164H206.006V926H203.954V915.164H200.606V913.49H209.336ZM90.1341 956.126C89.2941 956.126 88.5381 955.982 87.8661 955.694C87.1941 955.394 86.6661 954.974 86.2821 954.434C85.8981 953.894 85.7061 953.264 85.7061 952.544H87.9021C87.9501 953.084 88.1601 953.528 88.5321 953.876C88.9161 954.224 89.4501 954.398 90.1341 954.398C90.8421 954.398 91.3941 954.23 91.7901 953.894C92.1861 953.546 92.3841 953.102 92.3841 952.562C92.3841 952.142 92.2581 951.8 92.0061 951.536C91.7661 951.272 91.4601 951.068 91.0881 950.924C90.7281 950.78 90.2241 950.624 89.5761 950.456C88.7601 950.24 88.0941 950.024 87.5781 949.808C87.0741 949.58 86.6421 949.232 86.2821 948.764C85.9221 948.296 85.7421 947.672 85.7421 946.892C85.7421 946.172 85.9221 945.542 86.2821 945.002C86.6421 944.462 87.1461 944.048 87.7941 943.76C88.4421 943.472 89.1921 943.328 90.0441 943.328C91.2561 943.328 92.2461 943.634 93.0141 944.246C93.7941 944.846 94.2261 945.674 94.3101 946.73H92.0421C92.0061 946.274 91.7901 945.884 91.3941 945.56C90.9981 945.236 90.4761 945.074 89.8281 945.074C89.2401 945.074 88.7601 945.224 88.3881 945.524C88.0161 945.824 87.8301 946.256 87.8301 946.82C87.8301 947.204 87.9441 947.522 88.1721 947.774C88.4121 948.014 88.7121 948.206 89.0721 948.35C89.4321 948.494 89.9241 948.65 90.5481 948.818C91.3761 949.046 92.0481 949.274 92.5641 949.502C93.0921 949.73 93.5361 950.084 93.8961 950.564C94.2681 951.032 94.4541 951.662 94.4541 952.454C94.4541 953.09 94.2801 953.69 93.9321 954.254C93.5961 954.818 93.0981 955.274 92.4381 955.622C91.7901 955.958 91.0221 956.126 90.1341 956.126ZM96.1914 949.718C96.1914 948.494 96.4734 947.396 97.0374 946.424C97.6134 945.452 98.3874 944.696 99.3594 944.156C100.343 943.604 101.417 943.328 102.581 943.328C103.913 943.328 105.095 943.658 106.127 944.318C107.171 944.966 107.927 945.89 108.395 947.09H105.929C105.605 946.43 105.155 945.938 104.579 945.614C104.003 945.29 103.337 945.128 102.581 945.128C101.753 945.128 101.015 945.314 100.367 945.686C99.7194 946.058 99.2094 946.592 98.8374 947.288C98.4774 947.984 98.2974 948.794 98.2974 949.718C98.2974 950.642 98.4774 951.452 98.8374 952.148C99.2094 952.844 99.7194 953.384 100.367 953.768C101.015 954.14 101.753 954.326 102.581 954.326C103.337 954.326 104.003 954.164 104.579 953.84C105.155 953.516 105.605 953.024 105.929 952.364H108.395C107.927 953.564 107.171 954.488 106.127 955.136C105.095 955.784 103.913 956.108 102.581 956.108C101.405 956.108 100.331 955.838 99.3594 955.298C98.3874 954.746 97.6134 953.984 97.0374 953.012C96.4734 952.04 96.1914 950.942 96.1914 949.718ZM120.787 943.49V956H118.735V950.528H112.849V956H110.797V943.49H112.849V948.854H118.735V943.49H120.787ZM125.541 945.146V948.818H129.861V950.492H125.541V954.326H130.401V956H123.489V943.472H130.401V945.146H125.541ZM146.104 943.49V956H144.052V947.432L140.236 956H138.814L134.98 947.432V956H132.928V943.49H135.142L139.534 953.3L143.908 943.49H146.104ZM150.853 945.146V948.818H155.173V950.492H150.853V954.326H155.713V956H148.801V943.472H155.713V945.146H150.853Z"
        fill="#13203C" />
    <path d="M172 833L174.887 828L169.113 828L172 833ZM171.5 795L171.5 828.5L172.5 828.5L172.5 795L171.5 795Z"
        fill="black" fill-opacity="0.25" />
    <rect x="47" y="429" width="240.204" height="151.905" fill="#CEF4F1" />
    <rect x="57.4436" y="441.108" width="240.204" height="151.905" fill="white" />
    <path
        d="M87.3881 479.49V492H85.3361V479.49H87.3881ZM96.9762 492L92.1342 486.402V492H90.0822V479.49H92.1342V485.196L96.9942 479.49H99.5682L94.1322 485.754L99.6582 492H96.9762ZM107.179 492.126C106.015 492.126 104.941 491.856 103.957 491.316C102.985 490.764 102.211 490.002 101.635 489.03C101.071 488.046 100.789 486.942 100.789 485.718C100.789 484.494 101.071 483.396 101.635 482.424C102.211 481.452 102.985 480.696 103.957 480.156C104.941 479.604 106.015 479.328 107.179 479.328C108.355 479.328 109.429 479.604 110.401 480.156C111.385 480.696 112.159 481.452 112.723 482.424C113.287 483.396 113.569 484.494 113.569 485.718C113.569 486.942 113.287 488.046 112.723 489.03C112.159 490.002 111.385 490.764 110.401 491.316C109.429 491.856 108.355 492.126 107.179 492.126ZM107.179 490.344C108.007 490.344 108.745 490.158 109.393 489.786C110.041 489.402 110.545 488.862 110.905 488.166C111.277 487.458 111.463 486.642 111.463 485.718C111.463 484.794 111.277 483.984 110.905 483.288C110.545 482.592 110.041 482.058 109.393 481.686C108.745 481.314 108.007 481.128 107.179 481.128C106.351 481.128 105.613 481.314 104.965 481.686C104.317 482.058 103.807 482.592 103.435 483.288C103.075 483.984 102.895 484.794 102.895 485.718C102.895 486.642 103.075 487.458 103.435 488.166C103.807 488.862 104.317 489.402 104.965 489.786C105.613 490.158 106.351 490.344 107.179 490.344ZM122.086 492L119.206 486.996H117.64V492H115.588V479.49H119.908C120.868 479.49 121.678 479.658 122.338 479.994C123.01 480.33 123.508 480.78 123.832 481.344C124.168 481.908 124.336 482.538 124.336 483.234C124.336 484.05 124.096 484.794 123.616 485.466C123.148 486.126 122.422 486.576 121.438 486.816L124.534 492H122.086ZM117.64 485.358H119.908C120.676 485.358 121.252 485.166 121.636 484.782C122.032 484.398 122.23 483.882 122.23 483.234C122.23 482.586 122.038 482.082 121.654 481.722C121.27 481.35 120.688 481.164 119.908 481.164H117.64V485.358ZM132.667 492.126C131.503 492.126 130.429 491.856 129.445 491.316C128.473 490.764 127.699 490.002 127.123 489.03C126.559 488.046 126.277 486.942 126.277 485.718C126.277 484.494 126.559 483.396 127.123 482.424C127.699 481.452 128.473 480.696 129.445 480.156C130.429 479.604 131.503 479.328 132.667 479.328C133.843 479.328 134.917 479.604 135.889 480.156C136.873 480.696 137.647 481.452 138.211 482.424C138.775 483.396 139.057 484.494 139.057 485.718C139.057 486.942 138.775 488.046 138.211 489.03C137.647 490.002 136.873 490.764 135.889 491.316C134.917 491.856 133.843 492.126 132.667 492.126ZM132.667 490.344C133.495 490.344 134.233 490.158 134.881 489.786C135.529 489.402 136.033 488.862 136.393 488.166C136.765 487.458 136.951 486.642 136.951 485.718C136.951 484.794 136.765 483.984 136.393 483.288C136.033 482.592 135.529 482.058 134.881 481.686C134.233 481.314 133.495 481.128 132.667 481.128C131.839 481.128 131.101 481.314 130.453 481.686C129.805 482.058 129.295 482.592 128.923 483.288C128.563 483.984 128.383 484.794 128.383 485.718C128.383 486.642 128.563 487.458 128.923 488.166C129.295 488.862 129.805 489.402 130.453 489.786C131.101 490.158 131.839 490.344 132.667 490.344ZM145.162 479.49C146.494 479.49 147.658 479.748 148.654 480.264C149.662 480.768 150.436 481.5 150.976 482.46C151.528 483.408 151.804 484.518 151.804 485.79C151.804 487.062 151.528 488.166 150.976 489.102C150.436 490.038 149.662 490.758 148.654 491.262C147.658 491.754 146.494 492 145.162 492H141.076V479.49H145.162ZM145.162 490.326C146.626 490.326 147.748 489.93 148.528 489.138C149.308 488.346 149.698 487.23 149.698 485.79C149.698 484.338 149.308 483.204 148.528 482.388C147.748 481.572 146.626 481.164 145.162 481.164H143.128V490.326H145.162ZM155.872 479.49V487.464C155.872 488.412 156.118 489.126 156.61 489.606C157.114 490.086 157.81 490.326 158.698 490.326C159.598 490.326 160.294 490.086 160.786 489.606C161.29 489.126 161.542 488.412 161.542 487.464V479.49H163.594V487.428C163.594 488.448 163.372 489.312 162.928 490.02C162.484 490.728 161.89 491.256 161.146 491.604C160.402 491.952 159.58 492.126 158.68 492.126C157.78 492.126 156.958 491.952 156.214 491.604C155.482 491.256 154.9 490.728 154.468 490.02C154.036 489.312 153.82 488.448 153.82 487.428V479.49H155.872ZM89.4221 509.49C90.7541 509.49 91.9181 509.748 92.9141 510.264C93.9221 510.768 94.6961 511.5 95.2361 512.46C95.7881 513.408 96.0641 514.518 96.0641 515.79C96.0641 517.062 95.7881 518.166 95.2361 519.102C94.6961 520.038 93.9221 520.758 92.9141 521.262C91.9181 521.754 90.7541 522 89.4221 522H85.3361V509.49H89.4221ZM89.4221 520.326C90.8861 520.326 92.0081 519.93 92.7881 519.138C93.5681 518.346 93.9581 517.23 93.9581 515.79C93.9581 514.338 93.5681 513.204 92.7881 512.388C92.0081 511.572 90.8861 511.164 89.4221 511.164H87.3881V520.326H89.4221ZM100.15 511.146V514.818H104.47V516.492H100.15V520.326H105.01V522H98.0978V509.472H105.01V511.146H100.15ZM118.319 509.49L113.621 522H111.245L106.529 509.49H108.725L112.433 519.894L116.159 509.49H118.319ZM122.087 511.146V514.818H126.407V516.492H122.087V520.326H126.947V522H120.035V509.472H126.947V511.146H122.087ZM131.527 520.344H135.757V522H129.475V509.49H131.527V520.344ZM143.179 522.126C142.015 522.126 140.941 521.856 139.957 521.316C138.985 520.764 138.211 520.002 137.635 519.03C137.071 518.046 136.789 516.942 136.789 515.718C136.789 514.494 137.071 513.396 137.635 512.424C138.211 511.452 138.985 510.696 139.957 510.156C140.941 509.604 142.015 509.328 143.179 509.328C144.355 509.328 145.429 509.604 146.401 510.156C147.385 510.696 148.159 511.452 148.723 512.424C149.287 513.396 149.569 514.494 149.569 515.718C149.569 516.942 149.287 518.046 148.723 519.03C148.159 520.002 147.385 520.764 146.401 521.316C145.429 521.856 144.355 522.126 143.179 522.126ZM143.179 520.344C144.007 520.344 144.745 520.158 145.393 519.786C146.041 519.402 146.545 518.862 146.905 518.166C147.277 517.458 147.463 516.642 147.463 515.718C147.463 514.794 147.277 513.984 146.905 513.288C146.545 512.592 146.041 512.058 145.393 511.686C144.745 511.314 144.007 511.128 143.179 511.128C142.351 511.128 141.613 511.314 140.965 511.686C140.317 512.058 139.807 512.592 139.435 513.288C139.075 513.984 138.895 514.794 138.895 515.718C138.895 516.642 139.075 517.458 139.435 518.166C139.807 518.862 140.317 519.402 140.965 519.786C141.613 520.158 142.351 520.344 143.179 520.344ZM160.336 513.216C160.336 513.852 160.186 514.452 159.886 515.016C159.586 515.58 159.106 516.042 158.446 516.402C157.786 516.75 156.94 516.924 155.908 516.924H153.64V522H151.588V509.49H155.908C156.868 509.49 157.678 509.658 158.338 509.994C159.01 510.318 159.508 510.762 159.832 511.326C160.168 511.89 160.336 512.52 160.336 513.216ZM155.908 515.25C156.688 515.25 157.27 515.076 157.654 514.728C158.038 514.368 158.23 513.864 158.23 513.216C158.23 511.848 157.456 511.164 155.908 511.164H153.64V515.25H155.908ZM175.469 509.49V522H173.417V513.432L169.601 522H168.179L164.345 513.432V522H162.293V509.49H164.507L168.899 519.3L173.273 509.49H175.469ZM180.218 511.146V514.818H184.538V516.492H180.218V520.326H185.078V522H178.166V509.472H185.078V511.146H180.218ZM197.884 522H195.832L189.658 512.658V522H187.606V509.472H189.658L195.832 518.796V509.472H197.884V522ZM208.66 509.49V511.164H205.33V522H203.278V511.164H199.93V509.49H208.66ZM89.4581 552.126C88.6181 552.126 87.8621 551.982 87.1901 551.694C86.5181 551.394 85.9901 550.974 85.6061 550.434C85.2221 549.894 85.0301 549.264 85.0301 548.544H87.2261C87.2741 549.084 87.4841 549.528 87.8561 549.876C88.2401 550.224 88.7741 550.398 89.4581 550.398C90.1661 550.398 90.7181 550.23 91.1141 549.894C91.5101 549.546 91.7081 549.102 91.7081 548.562C91.7081 548.142 91.5821 547.8 91.3301 547.536C91.0901 547.272 90.7841 547.068 90.4121 546.924C90.0521 546.78 89.5481 546.624 88.9001 546.456C88.0841 546.24 87.4181 546.024 86.9021 545.808C86.3981 545.58 85.9661 545.232 85.6061 544.764C85.2461 544.296 85.0661 543.672 85.0661 542.892C85.0661 542.172 85.2461 541.542 85.6061 541.002C85.9661 540.462 86.4701 540.048 87.1181 539.76C87.7661 539.472 88.5161 539.328 89.3681 539.328C90.5801 539.328 91.5701 539.634 92.3381 540.246C93.1181 540.846 93.5501 541.674 93.6341 542.73H91.3661C91.3301 542.274 91.1141 541.884 90.7181 541.56C90.3221 541.236 89.8001 541.074 89.1521 541.074C88.5641 541.074 88.0841 541.224 87.7121 541.524C87.3401 541.824 87.1541 542.256 87.1541 542.82C87.1541 543.204 87.2681 543.522 87.4961 543.774C87.7361 544.014 88.0361 544.206 88.3961 544.35C88.7561 544.494 89.2481 544.65 89.8721 544.818C90.7001 545.046 91.3721 545.274 91.8881 545.502C92.4161 545.73 92.8601 546.084 93.2201 546.564C93.5921 547.032 93.7781 547.662 93.7781 548.454C93.7781 549.09 93.6041 549.69 93.2561 550.254C92.9201 550.818 92.4221 551.274 91.7621 551.622C91.1141 551.958 90.3461 552.126 89.4581 552.126ZM95.5154 545.718C95.5154 544.494 95.7974 543.396 96.3614 542.424C96.9374 541.452 97.7114 540.696 98.6834 540.156C99.6674 539.604 100.741 539.328 101.905 539.328C103.237 539.328 104.419 539.658 105.451 540.318C106.495 540.966 107.251 541.89 107.719 543.09H105.253C104.929 542.43 104.479 541.938 103.903 541.614C103.327 541.29 102.661 541.128 101.905 541.128C101.077 541.128 100.339 541.314 99.6914 541.686C99.0434 542.058 98.5334 542.592 98.1614 543.288C97.8014 543.984 97.6214 544.794 97.6214 545.718C97.6214 546.642 97.8014 547.452 98.1614 548.148C98.5334 548.844 99.0434 549.384 99.6914 549.768C100.339 550.14 101.077 550.326 101.905 550.326C102.661 550.326 103.327 550.164 103.903 549.84C104.479 549.516 104.929 549.024 105.253 548.364H107.719C107.251 549.564 106.495 550.488 105.451 551.136C104.419 551.784 103.237 552.108 101.905 552.108C100.729 552.108 99.6554 551.838 98.6834 551.298C97.7114 550.746 96.9374 549.984 96.3614 549.012C95.7974 548.04 95.5154 546.942 95.5154 545.718ZM120.111 539.49V552H118.059V546.528H112.173V552H110.121V539.49H112.173V544.854H118.059V539.49H120.111ZM124.865 541.146V544.818H129.185V546.492H124.865V550.326H129.725V552H122.813V539.472H129.725V541.146H124.865ZM145.428 539.49V552H143.376V543.432L139.56 552H138.138L134.304 543.432V552H132.252V539.49H134.466L138.858 549.3L143.232 539.49H145.428ZM150.177 541.146V544.818H154.497V546.492H150.177V550.326H155.037V552H148.125V539.472H155.037V541.146H150.177Z"
        fill="#13203C" />
    <path d="M172 429L174.887 424L169.113 424L172 429ZM171.5 391L171.5 424.5L172.5 424.5L172.5 391L171.5 391Z"
        fill="black" fill-opacity="0.25" />
    <rect x="47" y="1035" width="240.204" height="151.905" fill="#F9B8AF" />
    <rect x="57.4436" y="1047.11" width="240.204" height="151.905" fill="white" />
    <path
        d="M87.0499 1096.34H91.2799V1098H84.9979V1085.49H87.0499V1096.34ZM100.538 1095.44H95.3L94.4 1098H92.258L96.74 1085.47H99.116L103.598 1098H101.438L100.538 1095.44ZM99.962 1093.77L97.928 1087.96L95.876 1093.77H99.962ZM114.601 1089.09C114.277 1088.47 113.827 1088 113.251 1087.69C112.675 1087.36 112.009 1087.2 111.253 1087.2C110.425 1087.2 109.687 1087.39 109.039 1087.76C108.391 1088.13 107.881 1088.66 107.509 1089.34C107.149 1090.03 106.969 1090.82 106.969 1091.72C106.969 1092.62 107.149 1093.42 107.509 1094.11C107.881 1094.8 108.391 1095.32 109.039 1095.7C109.687 1096.07 110.425 1096.25 111.253 1096.25C112.369 1096.25 113.275 1095.94 113.971 1095.32C114.667 1094.69 115.093 1093.85 115.249 1092.78H110.551V1091.14H117.445V1092.74C117.313 1093.72 116.965 1094.61 116.401 1095.43C115.849 1096.24 115.123 1096.9 114.223 1097.39C113.335 1097.87 112.345 1098.11 111.253 1098.11C110.077 1098.11 109.003 1097.84 108.031 1097.3C107.059 1096.75 106.285 1095.98 105.709 1095.01C105.145 1094.04 104.863 1092.94 104.863 1091.72C104.863 1090.49 105.145 1089.4 105.709 1088.42C106.285 1087.45 107.059 1086.7 108.031 1086.16C109.015 1085.6 110.089 1085.33 111.253 1085.33C112.585 1085.33 113.767 1085.66 114.799 1086.32C115.843 1086.97 116.599 1087.89 117.067 1089.09H114.601ZM125.175 1098.13C124.011 1098.13 122.937 1097.86 121.953 1097.32C120.981 1096.76 120.207 1096 119.631 1095.03C119.067 1094.05 118.785 1092.94 118.785 1091.72C118.785 1090.49 119.067 1089.4 119.631 1088.42C120.207 1087.45 120.981 1086.7 121.953 1086.16C122.937 1085.6 124.011 1085.33 125.175 1085.33C126.351 1085.33 127.425 1085.6 128.397 1086.16C129.381 1086.7 130.155 1087.45 130.719 1088.42C131.283 1089.4 131.565 1090.49 131.565 1091.72C131.565 1092.94 131.283 1094.05 130.719 1095.03C130.155 1096 129.381 1096.76 128.397 1097.32C127.425 1097.86 126.351 1098.13 125.175 1098.13ZM125.175 1096.34C126.003 1096.34 126.741 1096.16 127.389 1095.79C128.037 1095.4 128.541 1094.86 128.901 1094.17C129.273 1093.46 129.459 1092.64 129.459 1091.72C129.459 1090.79 129.273 1089.98 128.901 1089.29C128.541 1088.59 128.037 1088.06 127.389 1087.69C126.741 1087.31 126.003 1087.13 125.175 1087.13C124.347 1087.13 123.609 1087.31 122.961 1087.69C122.313 1088.06 121.803 1088.59 121.431 1089.29C121.071 1089.98 120.891 1090.79 120.891 1091.72C120.891 1092.64 121.071 1093.46 121.431 1094.17C121.803 1094.86 122.313 1095.4 122.961 1095.79C123.609 1096.16 124.347 1096.34 125.175 1096.34ZM137.706 1098.13C136.866 1098.13 136.11 1097.98 135.438 1097.69C134.766 1097.39 134.238 1096.97 133.854 1096.43C133.47 1095.89 133.278 1095.26 133.278 1094.54H135.474C135.522 1095.08 135.732 1095.53 136.104 1095.88C136.488 1096.22 137.022 1096.4 137.706 1096.4C138.414 1096.4 138.966 1096.23 139.362 1095.89C139.758 1095.55 139.956 1095.1 139.956 1094.56C139.956 1094.14 139.83 1093.8 139.578 1093.54C139.338 1093.27 139.032 1093.07 138.66 1092.92C138.3 1092.78 137.796 1092.62 137.148 1092.46C136.332 1092.24 135.666 1092.02 135.15 1091.81C134.646 1091.58 134.214 1091.23 133.854 1090.76C133.494 1090.3 133.314 1089.67 133.314 1088.89C133.314 1088.17 133.494 1087.54 133.854 1087C134.214 1086.46 134.718 1086.05 135.366 1085.76C136.014 1085.47 136.764 1085.33 137.616 1085.33C138.828 1085.33 139.818 1085.63 140.586 1086.25C141.366 1086.85 141.798 1087.67 141.882 1088.73H139.614C139.578 1088.27 139.362 1087.88 138.966 1087.56C138.57 1087.24 138.048 1087.07 137.4 1087.07C136.812 1087.07 136.332 1087.22 135.96 1087.52C135.588 1087.82 135.402 1088.26 135.402 1088.82C135.402 1089.2 135.516 1089.52 135.744 1089.77C135.984 1090.01 136.284 1090.21 136.644 1090.35C137.004 1090.49 137.496 1090.65 138.12 1090.82C138.948 1091.05 139.62 1091.27 140.136 1091.5C140.664 1091.73 141.108 1092.08 141.468 1092.56C141.84 1093.03 142.026 1093.66 142.026 1094.45C142.026 1095.09 141.852 1095.69 141.504 1096.25C141.168 1096.82 140.67 1097.27 140.01 1097.62C139.362 1097.96 138.594 1098.13 137.706 1098.13ZM159.401 1098H157.349L151.175 1088.66V1098H149.123V1085.47H151.175L157.349 1094.8V1085.47H159.401V1098ZM167.802 1098.13C166.638 1098.13 165.564 1097.86 164.58 1097.32C163.608 1096.76 162.834 1096 162.258 1095.03C161.694 1094.05 161.412 1092.94 161.412 1091.72C161.412 1090.49 161.694 1089.4 162.258 1088.42C162.834 1087.45 163.608 1086.7 164.58 1086.16C165.564 1085.6 166.638 1085.33 167.802 1085.33C168.978 1085.33 170.052 1085.6 171.024 1086.16C172.008 1086.7 172.782 1087.45 173.346 1088.42C173.91 1089.4 174.192 1090.49 174.192 1091.72C174.192 1092.94 173.91 1094.05 173.346 1095.03C172.782 1096 172.008 1096.76 171.024 1097.32C170.052 1097.86 168.978 1098.13 167.802 1098.13ZM167.802 1096.34C168.63 1096.34 169.368 1096.16 170.016 1095.79C170.664 1095.4 171.168 1094.86 171.528 1094.17C171.9 1093.46 172.086 1092.64 172.086 1091.72C172.086 1090.79 171.9 1089.98 171.528 1089.29C171.168 1088.59 170.664 1088.06 170.016 1087.69C169.368 1087.31 168.63 1087.13 167.802 1087.13C166.974 1087.13 166.236 1087.31 165.588 1087.69C164.94 1088.06 164.43 1088.59 164.058 1089.29C163.698 1089.98 163.518 1090.79 163.518 1091.72C163.518 1092.64 163.698 1093.46 164.058 1094.17C164.43 1094.86 164.94 1095.4 165.588 1095.79C166.236 1096.16 166.974 1096.34 167.802 1096.34ZM182.709 1098L179.829 1093H178.263V1098H176.211V1085.49H180.531C181.491 1085.49 182.301 1085.66 182.961 1085.99C183.633 1086.33 184.131 1086.78 184.455 1087.34C184.791 1087.91 184.959 1088.54 184.959 1089.23C184.959 1090.05 184.719 1090.79 184.239 1091.47C183.771 1092.13 183.045 1092.58 182.061 1092.82L185.157 1098H182.709ZM178.263 1091.36H180.531C181.299 1091.36 181.875 1091.17 182.259 1090.78C182.655 1090.4 182.853 1089.88 182.853 1089.23C182.853 1088.59 182.661 1088.08 182.277 1087.72C181.893 1087.35 181.311 1087.16 180.531 1087.16H178.263V1091.36ZM195.666 1085.49V1087.16H192.336V1098H190.284V1087.16H186.936V1085.49H195.666ZM207.734 1085.49V1098H205.682V1092.53H199.796V1098H197.744V1085.49H199.796V1090.85H205.682V1085.49H207.734ZM231.401 1085.49L227.693 1098H225.371L222.743 1088.53L219.953 1098L217.649 1098.02L214.103 1085.49H216.281L218.873 1095.68L221.681 1085.49H223.985L226.595 1095.62L229.205 1085.49H231.401ZM235.146 1087.15V1090.82H239.466V1092.49H235.146V1096.33H240.006V1098H233.094V1085.47H240.006V1087.15H235.146ZM246.655 1098.13C245.815 1098.13 245.059 1097.98 244.387 1097.69C243.715 1097.39 243.187 1096.97 242.803 1096.43C242.419 1095.89 242.227 1095.26 242.227 1094.54H244.423C244.471 1095.08 244.681 1095.53 245.053 1095.88C245.437 1096.22 245.971 1096.4 246.655 1096.4C247.363 1096.4 247.915 1096.23 248.311 1095.89C248.707 1095.55 248.905 1095.1 248.905 1094.56C248.905 1094.14 248.779 1093.8 248.527 1093.54C248.287 1093.27 247.981 1093.07 247.609 1092.92C247.249 1092.78 246.745 1092.62 246.097 1092.46C245.281 1092.24 244.615 1092.02 244.099 1091.81C243.595 1091.58 243.163 1091.23 242.803 1090.76C242.443 1090.3 242.263 1089.67 242.263 1088.89C242.263 1088.17 242.443 1087.54 242.803 1087C243.163 1086.46 243.667 1086.05 244.315 1085.76C244.963 1085.47 245.713 1085.33 246.565 1085.33C247.777 1085.33 248.767 1085.63 249.535 1086.25C250.315 1086.85 250.747 1087.67 250.831 1088.73H248.563C248.527 1088.27 248.311 1087.88 247.915 1087.56C247.519 1087.24 246.997 1087.07 246.349 1087.07C245.761 1087.07 245.281 1087.22 244.909 1087.52C244.537 1087.82 244.351 1088.26 244.351 1088.82C244.351 1089.2 244.465 1089.52 244.693 1089.77C244.933 1090.01 245.233 1090.21 245.593 1090.35C245.953 1090.49 246.445 1090.65 247.069 1090.82C247.897 1091.05 248.569 1091.27 249.085 1091.5C249.613 1091.73 250.057 1092.08 250.417 1092.56C250.789 1093.03 250.975 1093.66 250.975 1094.45C250.975 1095.09 250.801 1095.69 250.453 1096.25C250.117 1096.82 249.619 1097.27 248.959 1097.62C248.311 1097.96 247.543 1098.13 246.655 1098.13ZM261.478 1085.49V1087.16H258.148V1098H256.096V1087.16H252.748V1085.49H261.478ZM89.0839 1115.49C90.4159 1115.49 91.5799 1115.75 92.5759 1116.26C93.5839 1116.77 94.3579 1117.5 94.8979 1118.46C95.4499 1119.41 95.7259 1120.52 95.7259 1121.79C95.7259 1123.06 95.4499 1124.17 94.8979 1125.1C94.3579 1126.04 93.5839 1126.76 92.5759 1127.26C91.5799 1127.75 90.4159 1128 89.0839 1128H84.9979V1115.49H89.0839ZM89.0839 1126.33C90.5479 1126.33 91.6699 1125.93 92.4499 1125.14C93.2299 1124.35 93.6199 1123.23 93.6199 1121.79C93.6199 1120.34 93.2299 1119.2 92.4499 1118.39C91.6699 1117.57 90.5479 1117.16 89.0839 1117.16H87.0499V1126.33H89.0839ZM99.8117 1117.15V1120.82H104.132V1122.49H99.8117V1126.33H104.672V1128H97.7597V1115.47H104.672V1117.15H99.8117ZM117.981 1115.49L113.283 1128H110.907L106.191 1115.49H108.387L112.095 1125.89L115.821 1115.49H117.981ZM121.749 1117.15V1120.82H126.069V1122.49H121.749V1126.33H126.609V1128H119.697V1115.47H126.609V1117.15H121.749ZM131.189 1126.34H135.419V1128H129.137V1115.49H131.189V1126.34ZM142.841 1128.13C141.677 1128.13 140.603 1127.86 139.619 1127.32C138.647 1126.76 137.873 1126 137.297 1125.03C136.733 1124.05 136.451 1122.94 136.451 1121.72C136.451 1120.49 136.733 1119.4 137.297 1118.42C137.873 1117.45 138.647 1116.7 139.619 1116.16C140.603 1115.6 141.677 1115.33 142.841 1115.33C144.017 1115.33 145.091 1115.6 146.063 1116.16C147.047 1116.7 147.821 1117.45 148.385 1118.42C148.949 1119.4 149.231 1120.49 149.231 1121.72C149.231 1122.94 148.949 1124.05 148.385 1125.03C147.821 1126 147.047 1126.76 146.063 1127.32C145.091 1127.86 144.017 1128.13 142.841 1128.13ZM142.841 1126.34C143.669 1126.34 144.407 1126.16 145.055 1125.79C145.703 1125.4 146.207 1124.86 146.567 1124.17C146.939 1123.46 147.125 1122.64 147.125 1121.72C147.125 1120.79 146.939 1119.98 146.567 1119.29C146.207 1118.59 145.703 1118.06 145.055 1117.69C144.407 1117.31 143.669 1117.13 142.841 1117.13C142.013 1117.13 141.275 1117.31 140.627 1117.69C139.979 1118.06 139.469 1118.59 139.097 1119.29C138.737 1119.98 138.557 1120.79 138.557 1121.72C138.557 1122.64 138.737 1123.46 139.097 1124.17C139.469 1124.86 139.979 1125.4 140.627 1125.79C141.275 1126.16 142.013 1126.34 142.841 1126.34ZM159.998 1119.22C159.998 1119.85 159.848 1120.45 159.548 1121.02C159.248 1121.58 158.768 1122.04 158.108 1122.4C157.448 1122.75 156.602 1122.92 155.57 1122.92H153.302V1128H151.25V1115.49H155.57C156.53 1115.49 157.34 1115.66 158 1115.99C158.672 1116.32 159.17 1116.76 159.494 1117.33C159.83 1117.89 159.998 1118.52 159.998 1119.22ZM155.57 1121.25C156.35 1121.25 156.932 1121.08 157.316 1120.73C157.7 1120.37 157.892 1119.86 157.892 1119.22C157.892 1117.85 157.118 1117.16 155.57 1117.16H153.302V1121.25H155.57ZM175.131 1115.49V1128H173.079V1119.43L169.263 1128H167.841L164.007 1119.43V1128H161.955V1115.49H164.169L168.561 1125.3L172.935 1115.49H175.131ZM179.88 1117.15V1120.82H184.2V1122.49H179.88V1126.33H184.74V1128H177.828V1115.47H184.74V1117.15H179.88ZM197.545 1128H195.493L189.319 1118.66V1128H187.267V1115.47H189.319L195.493 1124.8V1115.47H197.545V1128ZM208.322 1115.49V1117.16H204.992V1128H202.94V1117.16H199.592V1115.49H208.322ZM89.1199 1158.13C88.2799 1158.13 87.5239 1157.98 86.8519 1157.69C86.1799 1157.39 85.6519 1156.97 85.2679 1156.43C84.8839 1155.89 84.6919 1155.26 84.6919 1154.54H86.8879C86.9359 1155.08 87.1459 1155.53 87.5179 1155.88C87.9019 1156.22 88.4359 1156.4 89.1199 1156.4C89.8279 1156.4 90.3799 1156.23 90.7759 1155.89C91.1719 1155.55 91.3699 1155.1 91.3699 1154.56C91.3699 1154.14 91.2439 1153.8 90.9919 1153.54C90.7519 1153.27 90.4459 1153.07 90.0739 1152.92C89.7139 1152.78 89.2099 1152.62 88.5619 1152.46C87.7459 1152.24 87.0799 1152.02 86.5639 1151.81C86.0599 1151.58 85.6279 1151.23 85.2679 1150.76C84.9079 1150.3 84.7279 1149.67 84.7279 1148.89C84.7279 1148.17 84.9079 1147.54 85.2679 1147C85.6279 1146.46 86.1319 1146.05 86.7799 1145.76C87.4279 1145.47 88.1779 1145.33 89.0299 1145.33C90.2419 1145.33 91.2319 1145.63 91.9999 1146.25C92.7799 1146.85 93.2119 1147.67 93.2959 1148.73H91.0279C90.9919 1148.27 90.7759 1147.88 90.3799 1147.56C89.9839 1147.24 89.4619 1147.07 88.8139 1147.07C88.2259 1147.07 87.7459 1147.22 87.3739 1147.52C87.0019 1147.82 86.8159 1148.26 86.8159 1148.82C86.8159 1149.2 86.9299 1149.52 87.1579 1149.77C87.3979 1150.01 87.6979 1150.21 88.0579 1150.35C88.4179 1150.49 88.9099 1150.65 89.5339 1150.82C90.3619 1151.05 91.0339 1151.27 91.5499 1151.5C92.0779 1151.73 92.5219 1152.08 92.8819 1152.56C93.2539 1153.03 93.4399 1153.66 93.4399 1154.45C93.4399 1155.09 93.2659 1155.69 92.918 1156.25C92.5819 1156.82 92.0839 1157.27 91.4239 1157.62C90.7759 1157.96 90.0079 1158.13 89.1199 1158.13ZM95.1772 1151.72C95.1772 1150.49 95.4592 1149.4 96.0232 1148.42C96.5992 1147.45 97.3732 1146.7 98.3452 1146.16C99.3292 1145.6 100.403 1145.33 101.567 1145.33C102.899 1145.33 104.081 1145.66 105.113 1146.32C106.157 1146.97 106.913 1147.89 107.381 1149.09H104.915C104.591 1148.43 104.141 1147.94 103.565 1147.61C102.989 1147.29 102.323 1147.13 101.567 1147.13C100.739 1147.13 100.001 1147.31 99.3532 1147.69C98.7052 1148.06 98.1952 1148.59 97.8232 1149.29C97.4632 1149.98 97.2832 1150.79 97.2832 1151.72C97.2832 1152.64 97.4632 1153.45 97.8232 1154.15C98.1952 1154.84 98.7052 1155.38 99.3532 1155.77C100.001 1156.14 100.739 1156.33 101.567 1156.33C102.323 1156.33 102.989 1156.16 103.565 1155.84C104.141 1155.52 104.591 1155.02 104.915 1154.36H107.381C106.913 1155.56 106.157 1156.49 105.113 1157.14C104.081 1157.78 102.899 1158.11 101.567 1158.11C100.391 1158.11 99.3172 1157.84 98.3452 1157.3C97.3732 1156.75 96.5992 1155.98 96.0232 1155.01C95.4592 1154.04 95.1772 1152.94 95.1772 1151.72ZM119.773 1145.49V1158H117.721V1152.53H111.835V1158H109.783V1145.49H111.835V1150.85H117.721V1145.49H119.773ZM124.527 1147.15V1150.82H128.847V1152.49H124.527V1156.33H129.387V1158H122.475V1145.47H129.387V1147.15H124.527ZM145.09 1145.49V1158H143.038V1149.43L139.222 1158H137.8L133.966 1149.43V1158H131.914V1145.49H134.128L138.52 1155.3L142.894 1145.49H145.09ZM149.839 1147.15V1150.82H154.159V1152.49H149.839V1156.33H154.699V1158H147.787V1145.47H154.699V1147.15H149.839Z"
        fill="#13203C" />
    <path d="M172 1035L174.887 1030L169.113 1030L172 1035ZM171.5 997L171.5 1030.5L172.5 1030.5L172.5 997L171.5 997Z"
        fill="black" fill-opacity="0.25" />
    <rect x="47" y="631" width="240.204" height="151.905" fill="#F5F5BC" />
    <rect x="57.4436" y="643.108" width="240.204" height="151.905" fill="white" />
    <path
        d="M88.402 692.344H92.632V694H86.35V681.49H88.402V692.344ZM96.4 683.146V686.818H100.72V688.492H96.4V692.326H101.26V694H94.348V681.472H101.26V683.146H96.4ZM110.682 694L105.84 688.402V694H103.788V681.49H105.84V687.196L110.7 681.49H113.274L107.838 687.754L113.364 694H110.682ZM122.072 694L117.23 688.402V694H115.178V681.49H117.23V687.196L122.09 681.49H124.664L119.228 687.754L124.754 694H122.072ZM128.621 681.49V694H126.569V681.49H128.621ZM144.739 685.216C144.739 685.852 144.589 686.452 144.289 687.016C143.989 687.58 143.509 688.042 142.849 688.402C142.189 688.75 141.343 688.924 140.311 688.924H138.043V694H135.991V681.49H140.311C141.271 681.49 142.081 681.658 142.741 681.994C143.413 682.318 143.911 682.762 144.235 683.326C144.571 683.89 144.739 684.52 144.739 685.216ZM140.311 687.25C141.091 687.25 141.673 687.076 142.057 686.728C142.441 686.368 142.633 685.864 142.633 685.216C142.633 683.848 141.859 683.164 140.311 683.164H138.043V687.25H140.311ZM148.748 683.146V686.818H153.068V688.492H148.748V692.326H153.608V694H146.696V681.472H153.608V683.146H148.748ZM166.413 694H164.361L158.187 684.658V694H156.135V681.472H158.187L164.361 690.796V681.472H166.413V694ZM171.16 681.49V694H169.108V681.49H171.16ZM184.132 694H182.08L175.906 684.658V694H173.854V681.472H175.906L182.08 690.796V681.472H184.132V694ZM190.949 694.126C190.109 694.126 189.353 693.982 188.681 693.694C188.009 693.394 187.481 692.974 187.097 692.434C186.713 691.894 186.521 691.264 186.521 690.544H188.717C188.765 691.084 188.975 691.528 189.347 691.876C189.731 692.224 190.265 692.398 190.949 692.398C191.657 692.398 192.209 692.23 192.605 691.894C193.001 691.546 193.199 691.102 193.199 690.562C193.199 690.142 193.073 689.8 192.821 689.536C192.581 689.272 192.275 689.068 191.903 688.924C191.543 688.78 191.039 688.624 190.391 688.456C189.575 688.24 188.909 688.024 188.393 687.808C187.889 687.58 187.457 687.232 187.097 686.764C186.737 686.296 186.557 685.672 186.557 684.892C186.557 684.172 186.737 683.542 187.097 683.002C187.457 682.462 187.961 682.048 188.609 681.76C189.257 681.472 190.007 681.328 190.859 681.328C192.071 681.328 193.061 681.634 193.829 682.246C194.609 682.846 195.041 683.674 195.125 684.73H192.857C192.821 684.274 192.605 683.884 192.209 683.56C191.813 683.236 191.291 683.074 190.643 683.074C190.055 683.074 189.575 683.224 189.203 683.524C188.831 683.824 188.645 684.256 188.645 684.82C188.645 685.204 188.759 685.522 188.987 685.774C189.227 686.014 189.527 686.206 189.887 686.35C190.247 686.494 190.739 686.65 191.363 686.818C192.191 687.046 192.863 687.274 193.379 687.502C193.907 687.73 194.351 688.084 194.711 688.564C195.083 689.032 195.269 689.662 195.269 690.454C195.269 691.09 195.095 691.69 194.747 692.254C194.411 692.818 193.913 693.274 193.253 693.622C192.605 693.958 191.837 694.126 190.949 694.126ZM199.724 681.49V689.464C199.724 690.412 199.97 691.126 200.462 691.606C200.966 692.086 201.662 692.326 202.55 692.326C203.45 692.326 204.146 692.086 204.638 691.606C205.142 691.126 205.394 690.412 205.394 689.464V681.49H207.446V689.428C207.446 690.448 207.224 691.312 206.78 692.02C206.336 692.728 205.742 693.256 204.998 693.604C204.254 693.952 203.432 694.126 202.532 694.126C201.632 694.126 200.81 693.952 200.066 693.604C199.334 693.256 198.752 692.728 198.32 692.02C197.888 691.312 197.672 690.448 197.672 689.428V681.49H199.724ZM212.17 692.344H216.4V694H210.118V681.49H212.17V692.344ZM225.658 691.444H220.42L219.52 694H217.378L221.86 681.472H224.236L228.718 694H226.558L225.658 691.444ZM225.082 689.77L223.048 683.956L220.996 689.77H225.082ZM90.436 711.49C91.768 711.49 92.932 711.748 93.928 712.264C94.936 712.768 95.71 713.5 96.25 714.46C96.802 715.408 97.078 716.518 97.078 717.79C97.078 719.062 96.802 720.166 96.25 721.102C95.71 722.038 94.936 722.758 93.928 723.262C92.932 723.754 91.768 724 90.436 724H86.35V711.49H90.436ZM90.436 722.326C91.9 722.326 93.022 721.93 93.802 721.138C94.582 720.346 94.972 719.23 94.972 717.79C94.972 716.338 94.582 715.204 93.802 714.388C93.022 713.572 91.9 713.164 90.436 713.164H88.402V722.326H90.436ZM101.164 713.146V716.818H105.484V718.492H101.164V722.326H106.024V724H99.1117V711.472H106.024V713.146H101.164ZM119.333 711.49L114.635 724H112.259L107.543 711.49H109.739L113.447 721.894L117.173 711.49H119.333ZM123.101 713.146V716.818H127.421V718.492H123.101V722.326H127.961V724H121.049V711.472H127.961V713.146H123.101ZM132.541 722.344H136.771V724H130.489V711.49H132.541V722.344ZM144.193 724.126C143.029 724.126 141.955 723.856 140.971 723.316C139.999 722.764 139.225 722.002 138.649 721.03C138.085 720.046 137.803 718.942 137.803 717.718C137.803 716.494 138.085 715.396 138.649 714.424C139.225 713.452 139.999 712.696 140.971 712.156C141.955 711.604 143.029 711.328 144.193 711.328C145.369 711.328 146.443 711.604 147.415 712.156C148.399 712.696 149.173 713.452 149.737 714.424C150.301 715.396 150.583 716.494 150.583 717.718C150.583 718.942 150.301 720.046 149.737 721.03C149.173 722.002 148.399 722.764 147.415 723.316C146.443 723.856 145.369 724.126 144.193 724.126ZM144.193 722.344C145.021 722.344 145.759 722.158 146.407 721.786C147.055 721.402 147.559 720.862 147.919 720.166C148.291 719.458 148.477 718.642 148.477 717.718C148.477 716.794 148.291 715.984 147.919 715.288C147.559 714.592 147.055 714.058 146.407 713.686C145.759 713.314 145.021 713.128 144.193 713.128C143.365 713.128 142.627 713.314 141.979 713.686C141.331 714.058 140.821 714.592 140.449 715.288C140.089 715.984 139.909 716.794 139.909 717.718C139.909 718.642 140.089 719.458 140.449 720.166C140.821 720.862 141.331 721.402 141.979 721.786C142.627 722.158 143.365 722.344 144.193 722.344ZM161.35 715.216C161.35 715.852 161.2 716.452 160.9 717.016C160.6 717.58 160.12 718.042 159.46 718.402C158.8 718.75 157.954 718.924 156.922 718.924H154.654V724H152.602V711.49H156.922C157.882 711.49 158.692 711.658 159.352 711.994C160.024 712.318 160.522 712.762 160.846 713.326C161.182 713.89 161.35 714.52 161.35 715.216ZM156.922 717.25C157.702 717.25 158.284 717.076 158.668 716.728C159.052 716.368 159.244 715.864 159.244 715.216C159.244 713.848 158.47 713.164 156.922 713.164H154.654V717.25H156.922ZM176.483 711.49V724H174.431V715.432L170.615 724H169.193L165.359 715.432V724H163.307V711.49H165.521L169.913 721.3L174.287 711.49H176.483ZM181.232 713.146V716.818H185.552V718.492H181.232V722.326H186.092V724H179.18V711.472H186.092V713.146H181.232ZM198.898 724H196.846L190.672 714.658V724H188.62V711.472H190.672L196.846 720.796V711.472H198.898V724ZM209.674 711.49V713.164H206.344V724H204.292V713.164H200.944V711.49H209.674ZM90.472 754.126C89.632 754.126 88.876 753.982 88.204 753.694C87.532 753.394 87.004 752.974 86.62 752.434C86.236 751.894 86.044 751.264 86.044 750.544H88.24C88.288 751.084 88.498 751.528 88.87 751.876C89.254 752.224 89.788 752.398 90.472 752.398C91.18 752.398 91.732 752.23 92.128 751.894C92.524 751.546 92.722 751.102 92.722 750.562C92.722 750.142 92.596 749.8 92.344 749.536C92.104 749.272 91.798 749.068 91.426 748.924C91.066 748.78 90.562 748.624 89.914 748.456C89.098 748.24 88.432 748.024 87.916 747.808C87.412 747.58 86.98 747.232 86.62 746.764C86.26 746.296 86.08 745.672 86.08 744.892C86.08 744.172 86.26 743.542 86.62 743.002C86.98 742.462 87.484 742.048 88.132 741.76C88.78 741.472 89.53 741.328 90.382 741.328C91.594 741.328 92.584 741.634 93.352 742.246C94.132 742.846 94.564 743.674 94.648 744.73H92.38C92.344 744.274 92.128 743.884 91.732 743.56C91.336 743.236 90.814 743.074 90.166 743.074C89.578 743.074 89.098 743.224 88.726 743.524C88.354 743.824 88.168 744.256 88.168 744.82C88.168 745.204 88.282 745.522 88.51 745.774C88.75 746.014 89.05 746.206 89.41 746.35C89.77 746.494 90.262 746.65 90.886 746.818C91.714 747.046 92.386 747.274 92.902 747.502C93.43 747.73 93.874 748.084 94.234 748.564C94.606 749.032 94.792 749.662 94.792 750.454C94.792 751.09 94.618 751.69 94.27 752.254C93.934 752.818 93.436 753.274 92.776 753.622C92.128 753.958 91.36 754.126 90.472 754.126ZM96.5293 747.718C96.5293 746.494 96.8113 745.396 97.3753 744.424C97.9513 743.452 98.7253 742.696 99.6973 742.156C100.681 741.604 101.755 741.328 102.919 741.328C104.251 741.328 105.433 741.658 106.465 742.318C107.509 742.966 108.265 743.89 108.733 745.09H106.267C105.943 744.43 105.493 743.938 104.917 743.614C104.341 743.29 103.675 743.128 102.919 743.128C102.091 743.128 101.353 743.314 100.705 743.686C100.057 744.058 99.5473 744.592 99.1753 745.288C98.8153 745.984 98.6353 746.794 98.6353 747.718C98.6353 748.642 98.8153 749.452 99.1753 750.148C99.5473 750.844 100.057 751.384 100.705 751.768C101.353 752.14 102.091 752.326 102.919 752.326C103.675 752.326 104.341 752.164 104.917 751.84C105.493 751.516 105.943 751.024 106.267 750.364H108.733C108.265 751.564 107.509 752.488 106.465 753.136C105.433 753.784 104.251 754.108 102.919 754.108C101.743 754.108 100.669 753.838 99.6973 753.298C98.7253 752.746 97.9513 751.984 97.3753 751.012C96.8113 750.04 96.5293 748.942 96.5293 747.718ZM121.125 741.49V754H119.073V748.528H113.187V754H111.135V741.49H113.187V746.854H119.073V741.49H121.125ZM125.879 743.146V746.818H130.199V748.492H125.879V752.326H130.739V754H123.827V741.472H130.739V743.146H125.879ZM146.442 741.49V754H144.39V745.432L140.574 754H139.152L135.318 745.432V754H133.266V741.49H135.48L139.872 751.3L144.246 741.49H146.442ZM151.191 743.146V746.818H155.511V748.492H151.191V752.326H156.051V754H149.139V741.472H156.051V743.146H151.191Z"
        fill="#13203C" />
    <path d="M172 631L174.887 626L169.113 626L172 631ZM171.5 593L171.5 626.5L172.5 626.5L172.5 593L171.5 593Z"
        fill="black" fill-opacity="0.25" />
    <path d="M10 189L329 189" stroke="black" stroke-opacity="0.25" />
    <g filter="url(#filter1_d_262_480)">
        <rect x="30" y="30" width="261.625" height="112.993" fill="#18AB55" />
        <rect x="41.375" y="39.0067" width="261.625" height="112.993" fill="white" />
    </g>
    <path
        d="M73.892 79.444H68.654L67.754 82H65.612L70.094 69.472H72.47L76.952 82H74.792L73.892 79.444ZM73.316 77.77L71.282 71.956L69.23 77.77H73.316ZM87.9548 73.09C87.6308 72.466 87.1808 71.998 86.6048 71.686C86.0288 71.362 85.3628 71.2 84.6068 71.2C83.7788 71.2 83.0408 71.386 82.3928 71.758C81.7448 72.13 81.2348 72.658 80.8628 73.342C80.5028 74.026 80.3228 74.818 80.3228 75.718C80.3228 76.618 80.5028 77.416 80.8628 78.112C81.2348 78.796 81.7448 79.324 82.3928 79.696C83.0408 80.068 83.7788 80.254 84.6068 80.254C85.7228 80.254 86.6288 79.942 87.3248 79.318C88.0208 78.694 88.4468 77.848 88.6028 76.78H83.9048V75.142H90.7988V76.744C90.6668 77.716 90.3188 78.61 89.7548 79.426C89.2028 80.242 88.4768 80.896 87.5768 81.388C86.6888 81.868 85.6988 82.108 84.6068 82.108C83.4308 82.108 82.3568 81.838 81.3848 81.298C80.4128 80.746 79.6388 79.984 79.0628 79.012C78.4988 78.04 78.2168 76.942 78.2168 75.718C78.2168 74.494 78.4988 73.396 79.0628 72.424C79.6388 71.452 80.4128 70.696 81.3848 70.156C82.3688 69.604 83.4428 69.328 84.6068 69.328C85.9388 69.328 87.1208 69.658 88.1528 70.318C89.1968 70.966 89.9528 71.89 90.4208 73.09H87.9548ZM99.3207 82L96.4407 76.996H94.8747V82H92.8227V69.49H97.1427C98.1027 69.49 98.9127 69.658 99.5727 69.994C100.245 70.33 100.743 70.78 101.067 71.344C101.403 71.908 101.571 72.538 101.571 73.234C101.571 74.05 101.331 74.794 100.851 75.466C100.383 76.126 99.6567 76.576 98.6727 76.816L101.769 82H99.3207ZM94.8747 75.358H97.1427C97.9107 75.358 98.4867 75.166 98.8707 74.782C99.2667 74.398 99.4647 73.882 99.4647 73.234C99.4647 72.586 99.2727 72.082 98.8887 71.722C98.5047 71.35 97.9227 71.164 97.1427 71.164H94.8747V75.358ZM106.248 69.49V82H104.196V69.49H106.248ZM108.258 75.718C108.258 74.494 108.54 73.396 109.104 72.424C109.68 71.452 110.454 70.696 111.426 70.156C112.41 69.604 113.484 69.328 114.648 69.328C115.98 69.328 117.162 69.658 118.194 70.318C119.238 70.966 119.994 71.89 120.462 73.09H117.996C117.672 72.43 117.222 71.938 116.646 71.614C116.07 71.29 115.404 71.128 114.648 71.128C113.82 71.128 113.082 71.314 112.434 71.686C111.786 72.058 111.276 72.592 110.904 73.288C110.544 73.984 110.364 74.794 110.364 75.718C110.364 76.642 110.544 77.452 110.904 78.148C111.276 78.844 111.786 79.384 112.434 79.768C113.082 80.14 113.82 80.326 114.648 80.326C115.404 80.326 116.07 80.164 116.646 79.84C117.222 79.516 117.672 79.024 117.996 78.364H120.462C119.994 79.564 119.238 80.488 118.194 81.136C117.162 81.784 115.98 82.108 114.648 82.108C113.472 82.108 112.398 81.838 111.426 81.298C110.454 80.746 109.68 79.984 109.104 79.012C108.54 78.04 108.258 76.942 108.258 75.718ZM124.898 69.49V77.464C124.898 78.412 125.144 79.126 125.636 79.606C126.14 80.086 126.836 80.326 127.724 80.326C128.624 80.326 129.32 80.086 129.812 79.606C130.316 79.126 130.568 78.412 130.568 77.464V69.49H132.62V77.428C132.62 78.448 132.398 79.312 131.954 80.02C131.51 80.728 130.916 81.256 130.172 81.604C129.428 81.952 128.606 82.126 127.706 82.126C126.806 82.126 125.984 81.952 125.24 81.604C124.508 81.256 123.926 80.728 123.494 80.02C123.062 79.312 122.846 78.448 122.846 77.428V69.49H124.898ZM137.343 80.344H141.573V82H135.291V69.49H137.343V80.344ZM151.371 69.49V71.164H148.041V82H145.989V71.164H142.641V69.49H151.371ZM155.484 69.49V77.464C155.484 78.412 155.73 79.126 156.222 79.606C156.726 80.086 157.422 80.326 158.31 80.326C159.21 80.326 159.906 80.086 160.398 79.606C160.902 79.126 161.154 78.412 161.154 77.464V69.49H163.206V77.428C163.206 78.448 162.984 79.312 162.54 80.02C162.096 80.728 161.502 81.256 160.758 81.604C160.014 81.952 159.192 82.126 158.292 82.126C157.392 82.126 156.57 81.952 155.826 81.604C155.094 81.256 154.512 80.728 154.08 80.02C153.648 79.312 153.432 78.448 153.432 77.428V69.49H155.484ZM172.375 82L169.495 76.996H167.929V82H165.877V69.49H170.197C171.157 69.49 171.967 69.658 172.627 69.994C173.299 70.33 173.797 70.78 174.121 71.344C174.457 71.908 174.625 72.538 174.625 73.234C174.625 74.05 174.385 74.794 173.905 75.466C173.437 76.126 172.711 76.576 171.727 76.816L174.823 82H172.375ZM167.929 75.358H170.197C170.965 75.358 171.541 75.166 171.925 74.782C172.321 74.398 172.519 73.882 172.519 73.234C172.519 72.586 172.327 72.082 171.943 71.722C171.559 71.35 170.977 71.164 170.197 71.164H167.929V75.358ZM184.792 79.444H179.554L178.654 82H176.512L180.994 69.472H183.37L187.852 82H185.692L184.792 79.444ZM184.216 77.77L182.182 71.956L180.13 77.77H184.216ZM191.853 80.344H196.083V82H189.801V69.49H191.853V80.344ZM204.527 71.146V74.818H208.847V76.492H204.527V80.326H209.387V82H202.475V69.472H209.387V71.146H204.527ZM216.036 82.126C215.196 82.126 214.44 81.982 213.768 81.694C213.096 81.394 212.568 80.974 212.184 80.434C211.8 79.894 211.608 79.264 211.608 78.544H213.804C213.852 79.084 214.062 79.528 214.434 79.876C214.818 80.224 215.352 80.398 216.036 80.398C216.744 80.398 217.296 80.23 217.692 79.894C218.088 79.546 218.286 79.102 218.286 78.562C218.286 78.142 218.16 77.8 217.908 77.536C217.668 77.272 217.362 77.068 216.99 76.924C216.63 76.78 216.126 76.624 215.478 76.456C214.662 76.24 213.996 76.024 213.48 75.808C212.976 75.58 212.544 75.232 212.184 74.764C211.824 74.296 211.644 73.672 211.644 72.892C211.644 72.172 211.824 71.542 212.184 71.002C212.544 70.462 213.048 70.048 213.696 69.76C214.344 69.472 215.094 69.328 215.946 69.328C217.158 69.328 218.148 69.634 218.916 70.246C219.696 70.846 220.128 71.674 220.212 72.73H217.944C217.908 72.274 217.692 71.884 217.296 71.56C216.9 71.236 216.378 71.074 215.73 71.074C215.142 71.074 214.662 71.224 214.29 71.524C213.918 71.824 213.732 72.256 213.732 72.82C213.732 73.204 213.846 73.522 214.074 73.774C214.314 74.014 214.614 74.206 214.974 74.35C215.334 74.494 215.826 74.65 216.45 74.818C217.278 75.046 217.95 75.274 218.466 75.502C218.994 75.73 219.438 76.084 219.798 76.564C220.17 77.032 220.356 77.662 220.356 78.454C220.356 79.09 220.182 79.69 219.834 80.254C219.498 80.818 219 81.274 218.34 81.622C217.692 81.958 216.924 82.126 216.036 82.126ZM230.86 69.49V71.164H227.53V82H225.478V71.164H222.13V69.49H230.86ZM240.48 79.444H235.242L234.342 82H232.2L236.682 69.472H239.058L243.54 82H241.38L240.48 79.444ZM239.904 77.77L237.87 71.956L235.818 77.77H239.904ZM253.571 69.49V71.164H250.241V82H248.189V71.164H244.841V69.49H253.571ZM257.701 71.146V74.818H262.021V76.492H257.701V80.326H262.561V82H255.649V69.472H262.561V71.146H257.701ZM70.436 99.49C71.768 99.49 72.932 99.748 73.928 100.264C74.936 100.768 75.71 101.5 76.25 102.46C76.802 103.408 77.078 104.518 77.078 105.79C77.078 107.062 76.802 108.166 76.25 109.102C75.71 110.038 74.936 110.758 73.928 111.262C72.932 111.754 71.768 112 70.436 112H66.35V99.49H70.436ZM70.436 110.326C71.9 110.326 73.022 109.93 73.802 109.138C74.582 108.346 74.972 107.23 74.972 105.79C74.972 104.338 74.582 103.204 73.802 102.388C73.022 101.572 71.9 101.164 70.436 101.164H68.402V110.326H70.436ZM81.1637 101.146V104.818H85.4837V106.492H81.1637V110.326H86.0237V112H79.1117V99.472H86.0237V101.146H81.1637ZM99.3332 99.49L94.6352 112H92.2592L87.5432 99.49H89.7392L93.4472 109.894L97.1732 99.49H99.3332ZM103.101 101.146V104.818H107.421V106.492H103.101V110.326H107.961V112H101.049V99.472H107.961V101.146H103.101ZM112.541 110.344H116.771V112H110.489V99.49H112.541V110.344ZM124.193 112.126C123.029 112.126 121.955 111.856 120.971 111.316C119.999 110.764 119.225 110.002 118.649 109.03C118.085 108.046 117.803 106.942 117.803 105.718C117.803 104.494 118.085 103.396 118.649 102.424C119.225 101.452 119.999 100.696 120.971 100.156C121.955 99.604 123.029 99.328 124.193 99.328C125.369 99.328 126.443 99.604 127.415 100.156C128.399 100.696 129.173 101.452 129.737 102.424C130.301 103.396 130.583 104.494 130.583 105.718C130.583 106.942 130.301 108.046 129.737 109.03C129.173 110.002 128.399 110.764 127.415 111.316C126.443 111.856 125.369 112.126 124.193 112.126ZM124.193 110.344C125.021 110.344 125.759 110.158 126.407 109.786C127.055 109.402 127.559 108.862 127.919 108.166C128.291 107.458 128.477 106.642 128.477 105.718C128.477 104.794 128.291 103.984 127.919 103.288C127.559 102.592 127.055 102.058 126.407 101.686C125.759 101.314 125.021 101.128 124.193 101.128C123.365 101.128 122.627 101.314 121.979 101.686C121.331 102.058 120.821 102.592 120.449 103.288C120.089 103.984 119.909 104.794 119.909 105.718C119.909 106.642 120.089 107.458 120.449 108.166C120.821 108.862 121.331 109.402 121.979 109.786C122.627 110.158 123.365 110.344 124.193 110.344ZM141.35 103.216C141.35 103.852 141.2 104.452 140.9 105.016C140.6 105.58 140.12 106.042 139.46 106.402C138.8 106.75 137.954 106.924 136.922 106.924H134.654V112H132.602V99.49H136.922C137.882 99.49 138.692 99.658 139.352 99.994C140.024 100.318 140.522 100.762 140.846 101.326C141.182 101.89 141.35 102.52 141.35 103.216ZM136.922 105.25C137.702 105.25 138.284 105.076 138.668 104.728C139.052 104.368 139.244 103.864 139.244 103.216C139.244 101.848 138.47 101.164 136.922 101.164H134.654V105.25H136.922ZM156.483 99.49V112H154.431V103.432L150.615 112H149.193L145.359 103.432V112H143.307V99.49H145.521L149.913 109.3L154.287 99.49H156.483ZM161.232 101.146V104.818H165.552V106.492H161.232V110.326H166.092V112H159.18V99.472H166.092V101.146H161.232ZM178.898 112H176.846L170.672 102.658V112H168.62V99.472H170.672L176.846 108.796V99.472H178.898V112ZM189.674 99.49V101.164H186.344V112H184.292V101.164H180.944V99.49H189.674ZM200.55 112.126C199.71 112.126 198.954 111.982 198.282 111.694C197.61 111.394 197.082 110.974 196.698 110.434C196.314 109.894 196.122 109.264 196.122 108.544H198.318C198.366 109.084 198.576 109.528 198.948 109.876C199.332 110.224 199.866 110.398 200.55 110.398C201.258 110.398 201.81 110.23 202.206 109.894C202.602 109.546 202.8 109.102 202.8 108.562C202.8 108.142 202.674 107.8 202.422 107.536C202.182 107.272 201.876 107.068 201.504 106.924C201.144 106.78 200.64 106.624 199.992 106.456C199.176 106.24 198.51 106.024 197.994 105.808C197.49 105.58 197.058 105.232 196.698 104.764C196.338 104.296 196.158 103.672 196.158 102.892C196.158 102.172 196.338 101.542 196.698 101.002C197.058 100.462 197.562 100.048 198.21 99.76C198.858 99.472 199.608 99.328 200.46 99.328C201.672 99.328 202.662 99.634 203.43 100.246C204.21 100.846 204.642 101.674 204.726 102.73H202.458C202.422 102.274 202.206 101.884 201.81 101.56C201.414 101.236 200.892 101.074 200.244 101.074C199.656 101.074 199.176 101.224 198.804 101.524C198.432 101.824 198.246 102.256 198.246 102.82C198.246 103.204 198.36 103.522 198.588 103.774C198.828 104.014 199.128 104.206 199.488 104.35C199.848 104.494 200.34 104.65 200.964 104.818C201.792 105.046 202.464 105.274 202.98 105.502C203.508 105.73 203.952 106.084 204.312 106.564C204.684 107.032 204.87 107.662 204.87 108.454C204.87 109.09 204.696 109.69 204.348 110.254C204.012 110.818 203.514 111.274 202.854 111.622C202.206 111.958 201.438 112.126 200.55 112.126ZM206.607 105.718C206.607 104.494 206.889 103.396 207.453 102.424C208.029 101.452 208.803 100.696 209.775 100.156C210.759 99.604 211.833 99.328 212.997 99.328C214.329 99.328 215.511 99.658 216.543 100.318C217.587 100.966 218.343 101.89 218.811 103.09H216.345C216.021 102.43 215.571 101.938 214.995 101.614C214.419 101.29 213.753 101.128 212.997 101.128C212.169 101.128 211.431 101.314 210.783 101.686C210.135 102.058 209.625 102.592 209.253 103.288C208.893 103.984 208.713 104.794 208.713 105.718C208.713 106.642 208.893 107.452 209.253 108.148C209.625 108.844 210.135 109.384 210.783 109.768C211.431 110.14 212.169 110.326 212.997 110.326C213.753 110.326 214.419 110.164 214.995 109.84C215.571 109.516 216.021 109.024 216.345 108.364H218.811C218.343 109.564 217.587 110.488 216.543 111.136C215.511 111.784 214.329 112.108 212.997 112.108C211.821 112.108 210.747 111.838 209.775 111.298C208.803 110.746 208.029 109.984 207.453 109.012C206.889 108.04 206.607 106.942 206.607 105.718ZM231.203 99.49V112H229.151V106.528H223.265V112H221.213V99.49H223.265V104.854H229.151V99.49H231.203ZM235.957 101.146V104.818H240.277V106.492H235.957V110.326H240.817V112H233.905V99.472H240.817V101.146H235.957ZM256.52 99.49V112H254.468V103.432L250.652 112H249.23L245.396 103.432V112H243.344V99.49H245.558L249.95 109.3L254.324 99.49H256.52ZM261.269 101.146V104.818H265.589V106.492H261.269V110.326H266.129V112H259.217V99.472H266.129V101.146H261.269Z"
        fill="#13203C" />
    <path d="M329 188L329 1120" stroke="black" stroke-opacity="0.25" />
    <path d="M10 188L10 1120" stroke="black" stroke-opacity="0.25" />
    <path d="M47 1120L42 1117.11L42 1122.89L47 1120ZM10 1120.5L42.5 1120.5L42.5 1119.5L10 1119.5L10 1120.5Z"
        fill="black" fill-opacity="0.25" />
    <path d="M298 1120L303 1122.89V1117.11L298 1120ZM329 1119.5H302.5V1120.5H329V1119.5Z" fill="black"
        fill-opacity="0.25" />
    <defs>
        <filter id="filter0_d_262_480" x="27.4436" y="815.108" width="300.204" height="211.905"
            filterUnits="userSpaceOnUse" color-interpolation-filters="sRGB">
            <feFlood flood-opacity="0" result="BackgroundImageFix" />
            <feColorMatrix in="SourceAlpha" type="matrix" values="0 0 0 0 0 0 0 0 0 0 0 0 0 0 0 0 0 0 127 0"
                result="hardAlpha" />
            <feOffset />
            <feGaussianBlur stdDeviation="15" />
            <feComposite in2="hardAlpha" operator="out" />
            <feColorMatrix type="matrix" values="0 0 0 0 0 0 0 0 0 0 0 0 0 0 0 0 0 0 0.06 0" />
            <feBlend mode="normal" in2="BackgroundImageFix" result="effect1_dropShadow_262_480" />
            <feBlend mode="normal" in="SourceGraphic" in2="effect1_dropShadow_262_480" result="shape" />
        </filter>
        <filter id="filter1_d_262_480" x="0" y="0" width="333" height="182" filterUnits="userSpaceOnUse"
            color-interpolation-filters="sRGB">
            <feFlood flood-opacity="0" result="BackgroundImageFix" />
            <feColorMatrix in="SourceAlpha" type="matrix" values="0 0 0 0 0 0 0 0 0 0 0 0 0 0 0 0 0 0 127 0"
                result="hardAlpha" />
            <feOffset />
            <feGaussianBlur stdDeviation="15" />
            <feComposite in2="hardAlpha" operator="out" />
            <feColorMatrix type="matrix" values="0 0 0 0 0 0 0 0 0 0 0 0 0 0 0 0 0 0 0.06 0" />
            <feBlend mode="normal" in2="BackgroundImageFix" result="effect1_dropShadow_262_480" />
            <feBlend mode="normal" in="SourceGraphic" in2="effect1_dropShadow_262_480" result="shape" />
        </filter>
    </defs>
</svg>