<svg width="1379" height="422" viewBox="0 0 1379 422" fill="none" xmlns="http://www.w3.org/2000/svg">
    <g filter="url(#filter0_d_239_369)">
        <rect x="550" y="30" width="261.625" height="112.993" fill="#18AB55" />
        <rect x="561.375" y="39.0067" width="261.625" height="112.993" fill="white" />
    </g>
    <g filter="url(#filter1_d_239_369)">
        <rect x="30" y="227" width="240.204" height="151.905" fill="#F5F5BC" />
        <rect x="40.4437" y="239.108" width="240.204" height="151.905" fill="white" />
    </g>
    <rect x="297" y="227" width="240.204" height="151.905" fill="#D5EFC0" />
    <g filter="url(#filter2_d_239_369)">
        <rect x="307.444" y="239.108" width="240.204" height="151.905" fill="white" />
    </g>
    <g filter="url(#filter3_d_239_369)">
        <rect x="564" y="227" width="240.204" height="151.905" fill="#FFD8B3" />
        <rect x="574.444" y="239.108" width="240.204" height="151.905" fill="white" />
    </g>
    <g filter="url(#filter4_d_239_369)">
        <rect x="831" y="227" width="240.204" height="151.905" fill="#CEF4F1" />
        <rect x="841.444" y="239.108" width="240.204" height="151.905" fill="white" />
    </g>
    <g filter="url(#filter5_d_239_369)">
        <rect x="1098" y="227" width="240.204" height="151.905" fill="#F9B8AF" />
        <rect x="1108.44" y="239.108" width="240.204" height="151.905" fill="white" />
    </g>
    <path
        d="M593.892 79.444H588.654L587.754 82H585.612L590.094 69.472H592.47L596.952 82H594.792L593.892 79.444ZM593.316 77.77L591.282 71.956L589.23 77.77H593.316ZM607.955 73.09C607.631 72.466 607.181 71.998 606.605 71.686C606.029 71.362 605.363 71.2 604.607 71.2C603.779 71.2 603.041 71.386 602.393 71.758C601.745 72.13 601.235 72.658 600.863 73.342C600.503 74.026 600.323 74.818 600.323 75.718C600.323 76.618 600.503 77.416 600.863 78.112C601.235 78.796 601.745 79.324 602.393 79.696C603.041 80.068 603.779 80.254 604.607 80.254C605.723 80.254 606.629 79.942 607.325 79.318C608.021 78.694 608.447 77.848 608.603 76.78H603.905V75.142H610.799V76.744C610.667 77.716 610.319 78.61 609.755 79.426C609.203 80.242 608.477 80.896 607.577 81.388C606.689 81.868 605.699 82.108 604.607 82.108C603.431 82.108 602.357 81.838 601.385 81.298C600.413 80.746 599.639 79.984 599.063 79.012C598.499 78.04 598.217 76.942 598.217 75.718C598.217 74.494 598.499 73.396 599.063 72.424C599.639 71.452 600.413 70.696 601.385 70.156C602.369 69.604 603.443 69.328 604.607 69.328C605.939 69.328 607.121 69.658 608.153 70.318C609.197 70.966 609.953 71.89 610.421 73.09H607.955ZM619.321 82L616.441 76.996H614.875V82H612.823V69.49H617.143C618.103 69.49 618.913 69.658 619.573 69.994C620.245 70.33 620.743 70.78 621.067 71.344C621.403 71.908 621.571 72.538 621.571 73.234C621.571 74.05 621.331 74.794 620.851 75.466C620.383 76.126 619.657 76.576 618.673 76.816L621.769 82H619.321ZM614.875 75.358H617.143C617.911 75.358 618.487 75.166 618.871 74.782C619.267 74.398 619.465 73.882 619.465 73.234C619.465 72.586 619.273 72.082 618.889 71.722C618.505 71.35 617.923 71.164 617.143 71.164H614.875V75.358ZM626.248 69.49V82H624.196V69.49H626.248ZM628.258 75.718C628.258 74.494 628.54 73.396 629.104 72.424C629.68 71.452 630.454 70.696 631.426 70.156C632.41 69.604 633.484 69.328 634.648 69.328C635.98 69.328 637.162 69.658 638.194 70.318C639.238 70.966 639.994 71.89 640.462 73.09H637.996C637.672 72.43 637.222 71.938 636.646 71.614C636.07 71.29 635.404 71.128 634.648 71.128C633.82 71.128 633.082 71.314 632.434 71.686C631.786 72.058 631.276 72.592 630.904 73.288C630.544 73.984 630.364 74.794 630.364 75.718C630.364 76.642 630.544 77.452 630.904 78.148C631.276 78.844 631.786 79.384 632.434 79.768C633.082 80.14 633.82 80.326 634.648 80.326C635.404 80.326 636.07 80.164 636.646 79.84C637.222 79.516 637.672 79.024 637.996 78.364H640.462C639.994 79.564 639.238 80.488 638.194 81.136C637.162 81.784 635.98 82.108 634.648 82.108C633.472 82.108 632.398 81.838 631.426 81.298C630.454 80.746 629.68 79.984 629.104 79.012C628.54 78.04 628.258 76.942 628.258 75.718ZM644.898 69.49V77.464C644.898 78.412 645.144 79.126 645.636 79.606C646.14 80.086 646.836 80.326 647.724 80.326C648.624 80.326 649.32 80.086 649.812 79.606C650.316 79.126 650.568 78.412 650.568 77.464V69.49H652.62V77.428C652.62 78.448 652.398 79.312 651.954 80.02C651.51 80.728 650.916 81.256 650.172 81.604C649.428 81.952 648.606 82.126 647.706 82.126C646.806 82.126 645.984 81.952 645.24 81.604C644.508 81.256 643.926 80.728 643.494 80.02C643.062 79.312 642.846 78.448 642.846 77.428V69.49H644.898ZM657.343 80.344H661.573V82H655.291V69.49H657.343V80.344ZM671.371 69.49V71.164H668.041V82H665.989V71.164H662.641V69.49H671.371ZM675.484 69.49V77.464C675.484 78.412 675.73 79.126 676.222 79.606C676.726 80.086 677.422 80.326 678.31 80.326C679.21 80.326 679.906 80.086 680.398 79.606C680.902 79.126 681.154 78.412 681.154 77.464V69.49H683.206V77.428C683.206 78.448 682.984 79.312 682.54 80.02C682.096 80.728 681.502 81.256 680.758 81.604C680.014 81.952 679.192 82.126 678.292 82.126C677.392 82.126 676.57 81.952 675.826 81.604C675.094 81.256 674.512 80.728 674.08 80.02C673.648 79.312 673.432 78.448 673.432 77.428V69.49H675.484ZM692.375 82L689.495 76.996H687.929V82H685.877V69.49H690.197C691.157 69.49 691.967 69.658 692.627 69.994C693.299 70.33 693.797 70.78 694.121 71.344C694.457 71.908 694.625 72.538 694.625 73.234C694.625 74.05 694.385 74.794 693.905 75.466C693.437 76.126 692.711 76.576 691.727 76.816L694.823 82H692.375ZM687.929 75.358H690.197C690.965 75.358 691.541 75.166 691.925 74.782C692.321 74.398 692.519 73.882 692.519 73.234C692.519 72.586 692.327 72.082 691.943 71.722C691.559 71.35 690.977 71.164 690.197 71.164H687.929V75.358ZM704.792 79.444H699.554L698.654 82H696.512L700.994 69.472H703.37L707.852 82H705.692L704.792 79.444ZM704.216 77.77L702.182 71.956L700.13 77.77H704.216ZM711.853 80.344H716.083V82H709.801V69.49H711.853V80.344ZM724.527 71.146V74.818H728.847V76.492H724.527V80.326H729.387V82H722.475V69.472H729.387V71.146H724.527ZM736.036 82.126C735.196 82.126 734.44 81.982 733.768 81.694C733.096 81.394 732.568 80.974 732.184 80.434C731.8 79.894 731.608 79.264 731.608 78.544H733.804C733.852 79.084 734.062 79.528 734.434 79.876C734.818 80.224 735.352 80.398 736.036 80.398C736.744 80.398 737.296 80.23 737.692 79.894C738.088 79.546 738.286 79.102 738.286 78.562C738.286 78.142 738.16 77.8 737.908 77.536C737.668 77.272 737.362 77.068 736.99 76.924C736.63 76.78 736.126 76.624 735.478 76.456C734.662 76.24 733.996 76.024 733.48 75.808C732.976 75.58 732.544 75.232 732.184 74.764C731.824 74.296 731.644 73.672 731.644 72.892C731.644 72.172 731.824 71.542 732.184 71.002C732.544 70.462 733.048 70.048 733.696 69.76C734.344 69.472 735.094 69.328 735.946 69.328C737.158 69.328 738.148 69.634 738.916 70.246C739.696 70.846 740.128 71.674 740.212 72.73H737.944C737.908 72.274 737.692 71.884 737.296 71.56C736.9 71.236 736.378 71.074 735.73 71.074C735.142 71.074 734.662 71.224 734.29 71.524C733.918 71.824 733.732 72.256 733.732 72.82C733.732 73.204 733.846 73.522 734.074 73.774C734.314 74.014 734.614 74.206 734.974 74.35C735.334 74.494 735.826 74.65 736.45 74.818C737.278 75.046 737.95 75.274 738.466 75.502C738.994 75.73 739.438 76.084 739.798 76.564C740.17 77.032 740.356 77.662 740.356 78.454C740.356 79.09 740.182 79.69 739.834 80.254C739.498 80.818 739 81.274 738.34 81.622C737.692 81.958 736.924 82.126 736.036 82.126ZM750.86 69.49V71.164H747.53V82H745.478V71.164H742.13V69.49H750.86ZM760.48 79.444H755.242L754.342 82H752.2L756.682 69.472H759.058L763.54 82H761.38L760.48 79.444ZM759.904 77.77L757.87 71.956L755.818 77.77H759.904ZM773.571 69.49V71.164H770.241V82H768.189V71.164H764.841V69.49H773.571ZM777.701 71.146V74.818H782.021V76.492H777.701V80.326H782.561V82H775.649V69.472H782.561V71.146H777.701ZM590.436 99.49C591.768 99.49 592.932 99.748 593.928 100.264C594.936 100.768 595.71 101.5 596.25 102.46C596.802 103.408 597.078 104.518 597.078 105.79C597.078 107.062 596.802 108.166 596.25 109.102C595.71 110.038 594.936 110.758 593.928 111.262C592.932 111.754 591.768 112 590.436 112H586.35V99.49H590.436ZM590.436 110.326C591.9 110.326 593.022 109.93 593.802 109.138C594.582 108.346 594.972 107.23 594.972 105.79C594.972 104.338 594.582 103.204 593.802 102.388C593.022 101.572 591.9 101.164 590.436 101.164H588.402V110.326H590.436ZM601.164 101.146V104.818H605.484V106.492H601.164V110.326H606.024V112H599.112V99.472H606.024V101.146H601.164ZM619.333 99.49L614.635 112H612.259L607.543 99.49H609.739L613.447 109.894L617.173 99.49H619.333ZM623.101 101.146V104.818H627.421V106.492H623.101V110.326H627.961V112H621.049V99.472H627.961V101.146H623.101ZM632.541 110.344H636.771V112H630.489V99.49H632.541V110.344ZM644.193 112.126C643.029 112.126 641.955 111.856 640.971 111.316C639.999 110.764 639.225 110.002 638.649 109.03C638.085 108.046 637.803 106.942 637.803 105.718C637.803 104.494 638.085 103.396 638.649 102.424C639.225 101.452 639.999 100.696 640.971 100.156C641.955 99.604 643.029 99.328 644.193 99.328C645.369 99.328 646.443 99.604 647.415 100.156C648.399 100.696 649.173 101.452 649.737 102.424C650.301 103.396 650.583 104.494 650.583 105.718C650.583 106.942 650.301 108.046 649.737 109.03C649.173 110.002 648.399 110.764 647.415 111.316C646.443 111.856 645.369 112.126 644.193 112.126ZM644.193 110.344C645.021 110.344 645.759 110.158 646.407 109.786C647.055 109.402 647.559 108.862 647.919 108.166C648.291 107.458 648.477 106.642 648.477 105.718C648.477 104.794 648.291 103.984 647.919 103.288C647.559 102.592 647.055 102.058 646.407 101.686C645.759 101.314 645.021 101.128 644.193 101.128C643.365 101.128 642.627 101.314 641.979 101.686C641.331 102.058 640.821 102.592 640.449 103.288C640.089 103.984 639.909 104.794 639.909 105.718C639.909 106.642 640.089 107.458 640.449 108.166C640.821 108.862 641.331 109.402 641.979 109.786C642.627 110.158 643.365 110.344 644.193 110.344ZM661.35 103.216C661.35 103.852 661.2 104.452 660.9 105.016C660.6 105.58 660.12 106.042 659.46 106.402C658.8 106.75 657.954 106.924 656.922 106.924H654.654V112H652.602V99.49H656.922C657.882 99.49 658.692 99.658 659.352 99.994C660.024 100.318 660.522 100.762 660.846 101.326C661.182 101.89 661.35 102.52 661.35 103.216ZM656.922 105.25C657.702 105.25 658.284 105.076 658.668 104.728C659.052 104.368 659.244 103.864 659.244 103.216C659.244 101.848 658.47 101.164 656.922 101.164H654.654V105.25H656.922ZM676.483 99.49V112H674.431V103.432L670.615 112H669.193L665.359 103.432V112H663.307V99.49H665.521L669.913 109.3L674.287 99.49H676.483ZM681.232 101.146V104.818H685.552V106.492H681.232V110.326H686.092V112H679.18V99.472H686.092V101.146H681.232ZM698.898 112H696.846L690.672 102.658V112H688.62V99.472H690.672L696.846 108.796V99.472H698.898V112ZM709.674 99.49V101.164H706.344V112H704.292V101.164H700.944V99.49H709.674ZM720.55 112.126C719.71 112.126 718.954 111.982 718.282 111.694C717.61 111.394 717.082 110.974 716.698 110.434C716.314 109.894 716.122 109.264 716.122 108.544H718.318C718.366 109.084 718.576 109.528 718.948 109.876C719.332 110.224 719.866 110.398 720.55 110.398C721.258 110.398 721.81 110.23 722.206 109.894C722.602 109.546 722.8 109.102 722.8 108.562C722.8 108.142 722.674 107.8 722.422 107.536C722.182 107.272 721.876 107.068 721.504 106.924C721.144 106.78 720.64 106.624 719.992 106.456C719.176 106.24 718.51 106.024 717.994 105.808C717.49 105.58 717.058 105.232 716.698 104.764C716.338 104.296 716.158 103.672 716.158 102.892C716.158 102.172 716.338 101.542 716.698 101.002C717.058 100.462 717.562 100.048 718.21 99.76C718.858 99.472 719.608 99.328 720.46 99.328C721.672 99.328 722.662 99.634 723.43 100.246C724.21 100.846 724.642 101.674 724.726 102.73H722.458C722.422 102.274 722.206 101.884 721.81 101.56C721.414 101.236 720.892 101.074 720.244 101.074C719.656 101.074 719.176 101.224 718.804 101.524C718.432 101.824 718.246 102.256 718.246 102.82C718.246 103.204 718.36 103.522 718.588 103.774C718.828 104.014 719.128 104.206 719.488 104.35C719.848 104.494 720.34 104.65 720.964 104.818C721.792 105.046 722.464 105.274 722.98 105.502C723.508 105.73 723.952 106.084 724.312 106.564C724.684 107.032 724.87 107.662 724.87 108.454C724.87 109.09 724.696 109.69 724.348 110.254C724.012 110.818 723.514 111.274 722.854 111.622C722.206 111.958 721.438 112.126 720.55 112.126ZM726.607 105.718C726.607 104.494 726.889 103.396 727.453 102.424C728.029 101.452 728.803 100.696 729.775 100.156C730.759 99.604 731.833 99.328 732.997 99.328C734.329 99.328 735.511 99.658 736.543 100.318C737.587 100.966 738.343 101.89 738.811 103.09H736.345C736.021 102.43 735.571 101.938 734.995 101.614C734.419 101.29 733.753 101.128 732.997 101.128C732.169 101.128 731.431 101.314 730.783 101.686C730.135 102.058 729.625 102.592 729.253 103.288C728.893 103.984 728.713 104.794 728.713 105.718C728.713 106.642 728.893 107.452 729.253 108.148C729.625 108.844 730.135 109.384 730.783 109.768C731.431 110.14 732.169 110.326 732.997 110.326C733.753 110.326 734.419 110.164 734.995 109.84C735.571 109.516 736.021 109.024 736.345 108.364H738.811C738.343 109.564 737.587 110.488 736.543 111.136C735.511 111.784 734.329 112.108 732.997 112.108C731.821 112.108 730.747 111.838 729.775 111.298C728.803 110.746 728.029 109.984 727.453 109.012C726.889 108.04 726.607 106.942 726.607 105.718ZM751.203 99.49V112H749.151V106.528H743.265V112H741.213V99.49H743.265V104.854H749.151V99.49H751.203ZM755.957 101.146V104.818H760.277V106.492H755.957V110.326H760.817V112H753.905V99.472H760.817V101.146H755.957ZM776.52 99.49V112H774.468V103.432L770.652 112H769.23L765.396 103.432V112H763.344V99.49H765.558L769.95 109.3L774.324 99.49H776.52ZM781.269 101.146V104.818H785.589V106.492H781.269V110.326H786.129V112H779.217V99.472H786.129V101.146H781.269Z"
        fill="#13203C" />
    <path
        d="M71.402 288.344H75.632V290H69.35V277.49H71.402V288.344ZM79.4 279.146V282.818H83.72V284.492H79.4V288.326H84.26V290H77.348V277.472H84.26V279.146H79.4ZM93.6815 290L88.8395 284.402V290H86.7875V277.49H88.8395V283.196L93.6995 277.49H96.2735L90.8375 283.754L96.3635 290H93.6815ZM105.072 290L100.23 284.402V290H98.1781V277.49H100.23V283.196L105.09 277.49H107.664L102.228 283.754L107.754 290H105.072ZM111.621 277.49V290H109.569V277.49H111.621ZM127.739 281.216C127.739 281.852 127.589 282.452 127.289 283.016C126.989 283.58 126.509 284.042 125.849 284.402C125.189 284.75 124.343 284.924 123.311 284.924H121.043V290H118.991V277.49H123.311C124.271 277.49 125.081 277.658 125.741 277.994C126.413 278.318 126.911 278.762 127.235 279.326C127.571 279.89 127.739 280.52 127.739 281.216ZM123.311 283.25C124.091 283.25 124.673 283.076 125.057 282.728C125.441 282.368 125.633 281.864 125.633 281.216C125.633 279.848 124.859 279.164 123.311 279.164H121.043V283.25H123.311ZM131.748 279.146V282.818H136.068V284.492H131.748V288.326H136.608V290H129.696V277.472H136.608V279.146H131.748ZM149.413 290H147.361L141.187 280.658V290H139.135V277.472H141.187L147.361 286.796V277.472H149.413V290ZM154.16 277.49V290H152.108V277.49H154.16ZM167.132 290H165.08L158.906 280.658V290H156.854V277.472H158.906L165.08 286.796V277.472H167.132V290ZM173.949 290.126C173.109 290.126 172.353 289.982 171.681 289.694C171.009 289.394 170.481 288.974 170.097 288.434C169.713 287.894 169.521 287.264 169.521 286.544H171.717C171.765 287.084 171.975 287.528 172.347 287.876C172.731 288.224 173.265 288.398 173.949 288.398C174.657 288.398 175.209 288.23 175.605 287.894C176.001 287.546 176.199 287.102 176.199 286.562C176.199 286.142 176.073 285.8 175.821 285.536C175.581 285.272 175.275 285.068 174.903 284.924C174.543 284.78 174.039 284.624 173.391 284.456C172.575 284.24 171.909 284.024 171.393 283.808C170.889 283.58 170.457 283.232 170.097 282.764C169.737 282.296 169.557 281.672 169.557 280.892C169.557 280.172 169.737 279.542 170.097 279.002C170.457 278.462 170.961 278.048 171.609 277.76C172.257 277.472 173.007 277.328 173.859 277.328C175.071 277.328 176.061 277.634 176.829 278.246C177.609 278.846 178.041 279.674 178.125 280.73H175.857C175.821 280.274 175.605 279.884 175.209 279.56C174.813 279.236 174.291 279.074 173.643 279.074C173.055 279.074 172.575 279.224 172.203 279.524C171.831 279.824 171.645 280.256 171.645 280.82C171.645 281.204 171.759 281.522 171.987 281.774C172.227 282.014 172.527 282.206 172.887 282.35C173.247 282.494 173.739 282.65 174.363 282.818C175.191 283.046 175.863 283.274 176.379 283.502C176.907 283.73 177.351 284.084 177.711 284.564C178.083 285.032 178.269 285.662 178.269 286.454C178.269 287.09 178.095 287.69 177.747 288.254C177.411 288.818 176.913 289.274 176.253 289.622C175.605 289.958 174.837 290.126 173.949 290.126ZM182.724 277.49V285.464C182.724 286.412 182.97 287.126 183.462 287.606C183.966 288.086 184.662 288.326 185.55 288.326C186.45 288.326 187.146 288.086 187.638 287.606C188.142 287.126 188.394 286.412 188.394 285.464V277.49H190.446V285.428C190.446 286.448 190.224 287.312 189.78 288.02C189.336 288.728 188.742 289.256 187.998 289.604C187.254 289.952 186.432 290.126 185.532 290.126C184.632 290.126 183.81 289.952 183.066 289.604C182.334 289.256 181.752 288.728 181.32 288.02C180.888 287.312 180.672 286.448 180.672 285.428V277.49H182.724ZM195.17 288.344H199.4V290H193.118V277.49H195.17V288.344ZM208.658 287.444H203.42L202.52 290H200.378L204.86 277.472H207.236L211.718 290H209.558L208.658 287.444ZM208.082 285.77L206.048 279.956L203.996 285.77H208.082ZM73.436 307.49C74.768 307.49 75.932 307.748 76.928 308.264C77.936 308.768 78.71 309.5 79.25 310.46C79.802 311.408 80.078 312.518 80.078 313.79C80.078 315.062 79.802 316.166 79.25 317.102C78.71 318.038 77.936 318.758 76.928 319.262C75.932 319.754 74.768 320 73.436 320H69.35V307.49H73.436ZM73.436 318.326C74.9 318.326 76.022 317.93 76.802 317.138C77.582 316.346 77.972 315.23 77.972 313.79C77.972 312.338 77.582 311.204 76.802 310.388C76.022 309.572 74.9 309.164 73.436 309.164H71.402V318.326H73.436ZM84.1637 309.146V312.818H88.4837V314.492H84.1637V318.326H89.0237V320H82.1117V307.472H89.0237V309.146H84.1637ZM102.333 307.49L97.6352 320H95.2592L90.5432 307.49H92.7392L96.4472 317.894L100.173 307.49H102.333ZM106.101 309.146V312.818H110.421V314.492H106.101V318.326H110.961V320H104.049V307.472H110.961V309.146H106.101ZM115.541 318.344H119.771V320H113.489V307.49H115.541V318.344ZM127.193 320.126C126.029 320.126 124.955 319.856 123.971 319.316C122.999 318.764 122.225 318.002 121.649 317.03C121.085 316.046 120.803 314.942 120.803 313.718C120.803 312.494 121.085 311.396 121.649 310.424C122.225 309.452 122.999 308.696 123.971 308.156C124.955 307.604 126.029 307.328 127.193 307.328C128.369 307.328 129.443 307.604 130.415 308.156C131.399 308.696 132.173 309.452 132.737 310.424C133.301 311.396 133.583 312.494 133.583 313.718C133.583 314.942 133.301 316.046 132.737 317.03C132.173 318.002 131.399 318.764 130.415 319.316C129.443 319.856 128.369 320.126 127.193 320.126ZM127.193 318.344C128.021 318.344 128.759 318.158 129.407 317.786C130.055 317.402 130.559 316.862 130.919 316.166C131.291 315.458 131.477 314.642 131.477 313.718C131.477 312.794 131.291 311.984 130.919 311.288C130.559 310.592 130.055 310.058 129.407 309.686C128.759 309.314 128.021 309.128 127.193 309.128C126.365 309.128 125.627 309.314 124.979 309.686C124.331 310.058 123.821 310.592 123.449 311.288C123.089 311.984 122.909 312.794 122.909 313.718C122.909 314.642 123.089 315.458 123.449 316.166C123.821 316.862 124.331 317.402 124.979 317.786C125.627 318.158 126.365 318.344 127.193 318.344ZM144.35 311.216C144.35 311.852 144.2 312.452 143.9 313.016C143.6 313.58 143.12 314.042 142.46 314.402C141.8 314.75 140.954 314.924 139.922 314.924H137.654V320H135.602V307.49H139.922C140.882 307.49 141.692 307.658 142.352 307.994C143.024 308.318 143.522 308.762 143.846 309.326C144.182 309.89 144.35 310.52 144.35 311.216ZM139.922 313.25C140.702 313.25 141.284 313.076 141.668 312.728C142.052 312.368 142.244 311.864 142.244 311.216C142.244 309.848 141.47 309.164 139.922 309.164H137.654V313.25H139.922ZM159.483 307.49V320H157.431V311.432L153.615 320H152.193L148.359 311.432V320H146.307V307.49H148.521L152.913 317.3L157.287 307.49H159.483ZM164.232 309.146V312.818H168.552V314.492H164.232V318.326H169.092V320H162.18V307.472H169.092V309.146H164.232ZM181.898 320H179.846L173.672 310.658V320H171.62V307.472H173.672L179.846 316.796V307.472H181.898V320ZM192.674 307.49V309.164H189.344V320H187.292V309.164H183.944V307.49H192.674ZM73.472 350.126C72.632 350.126 71.876 349.982 71.204 349.694C70.532 349.394 70.004 348.974 69.62 348.434C69.236 347.894 69.044 347.264 69.044 346.544H71.24C71.288 347.084 71.498 347.528 71.87 347.876C72.254 348.224 72.788 348.398 73.472 348.398C74.18 348.398 74.732 348.23 75.128 347.894C75.524 347.546 75.722 347.102 75.722 346.562C75.722 346.142 75.596 345.8 75.344 345.536C75.104 345.272 74.798 345.068 74.426 344.924C74.066 344.78 73.562 344.624 72.914 344.456C72.098 344.24 71.432 344.024 70.916 343.808C70.412 343.58 69.98 343.232 69.62 342.764C69.26 342.296 69.08 341.672 69.08 340.892C69.08 340.172 69.26 339.542 69.62 339.002C69.98 338.462 70.484 338.048 71.132 337.76C71.78 337.472 72.53 337.328 73.382 337.328C74.594 337.328 75.584 337.634 76.352 338.246C77.132 338.846 77.564 339.674 77.648 340.73H75.38C75.344 340.274 75.128 339.884 74.732 339.56C74.336 339.236 73.814 339.074 73.166 339.074C72.578 339.074 72.098 339.224 71.726 339.524C71.354 339.824 71.168 340.256 71.168 340.82C71.168 341.204 71.282 341.522 71.51 341.774C71.75 342.014 72.05 342.206 72.41 342.35C72.77 342.494 73.262 342.65 73.886 342.818C74.714 343.046 75.386 343.274 75.902 343.502C76.43 343.73 76.874 344.084 77.234 344.564C77.606 345.032 77.792 345.662 77.792 346.454C77.792 347.09 77.618 347.69 77.27 348.254C76.934 348.818 76.436 349.274 75.776 349.622C75.128 349.958 74.36 350.126 73.472 350.126ZM79.5293 343.718C79.5293 342.494 79.8113 341.396 80.3753 340.424C80.9513 339.452 81.7253 338.696 82.6973 338.156C83.6813 337.604 84.7553 337.328 85.9193 337.328C87.2513 337.328 88.4333 337.658 89.4653 338.318C90.5093 338.966 91.2653 339.89 91.7333 341.09H89.2673C88.9433 340.43 88.4933 339.938 87.9173 339.614C87.3413 339.29 86.6753 339.128 85.9193 339.128C85.0913 339.128 84.3533 339.314 83.7053 339.686C83.0573 340.058 82.5473 340.592 82.1753 341.288C81.8153 341.984 81.6353 342.794 81.6353 343.718C81.6353 344.642 81.8153 345.452 82.1753 346.148C82.5473 346.844 83.0573 347.384 83.7053 347.768C84.3533 348.14 85.0913 348.326 85.9193 348.326C86.6753 348.326 87.3413 348.164 87.9173 347.84C88.4933 347.516 88.9433 347.024 89.2673 346.364H91.7333C91.2653 347.564 90.5093 348.488 89.4653 349.136C88.4333 349.784 87.2513 350.108 85.9193 350.108C84.7433 350.108 83.6693 349.838 82.6973 349.298C81.7253 348.746 80.9513 347.984 80.3753 347.012C79.8113 346.04 79.5293 344.942 79.5293 343.718ZM104.125 337.49V350H102.073V344.528H96.1872V350H94.1352V337.49H96.1872V342.854H102.073V337.49H104.125ZM108.879 339.146V342.818H113.199V344.492H108.879V348.326H113.739V350H106.827V337.472H113.739V339.146H108.879ZM129.442 337.49V350H127.39V341.432L123.574 350H122.152L118.318 341.432V350H116.266V337.49H118.48L122.872 347.3L127.246 337.49H129.442ZM134.191 339.146V342.818H138.511V344.492H134.191V348.326H139.051V350H132.139V337.472H139.051V339.146H134.191Z"
        fill="#13203C" />
    <path
        d="M342.708 283.574C343.38 283.694 343.95 284.048 344.418 284.636C344.886 285.224 345.12 285.89 345.12 286.634C345.12 287.27 344.952 287.846 344.616 288.362C344.292 288.866 343.818 289.268 343.194 289.568C342.57 289.856 341.844 290 341.016 290H336.012V277.49H340.782C341.634 277.49 342.366 277.634 342.978 277.922C343.59 278.21 344.052 278.6 344.364 279.092C344.676 279.572 344.832 280.112 344.832 280.712C344.832 281.432 344.64 282.032 344.256 282.512C343.872 282.992 343.356 283.346 342.708 283.574ZM338.064 282.746H340.602C341.274 282.746 341.796 282.596 342.168 282.296C342.552 281.984 342.744 281.54 342.744 280.964C342.744 280.4 342.552 279.962 342.168 279.65C341.796 279.326 341.274 279.164 340.602 279.164H338.064V282.746ZM340.836 288.326C341.532 288.326 342.078 288.158 342.474 287.822C342.87 287.486 343.068 287.018 343.068 286.418C343.068 285.806 342.858 285.32 342.438 284.96C342.018 284.6 341.46 284.42 340.764 284.42H338.064V288.326H340.836ZM354.892 287.444H349.654L348.754 290H346.612L351.094 277.472H353.47L357.952 290H355.792L354.892 287.444ZM354.316 285.77L352.282 279.956L350.23 285.77H354.316ZM363.987 277.49C365.319 277.49 366.483 277.748 367.479 278.264C368.487 278.768 369.261 279.5 369.801 280.46C370.353 281.408 370.629 282.518 370.629 283.79C370.629 285.062 370.353 286.166 369.801 287.102C369.261 288.038 368.487 288.758 367.479 289.262C366.483 289.754 365.319 290 363.987 290H359.901V277.49H363.987ZM363.987 288.326C365.451 288.326 366.573 287.93 367.353 287.138C368.133 286.346 368.523 285.23 368.523 283.79C368.523 282.338 368.133 281.204 367.353 280.388C366.573 279.572 365.451 279.164 363.987 279.164H361.953V288.326H363.987ZM380.204 287.444H374.966L374.066 290H371.924L376.406 277.472H378.782L383.264 290H381.104L380.204 287.444ZM379.628 285.77L377.594 279.956L375.542 285.77H379.628ZM394.267 281.09C393.943 280.466 393.493 279.998 392.917 279.686C392.341 279.362 391.675 279.2 390.919 279.2C390.091 279.2 389.353 279.386 388.705 279.758C388.057 280.13 387.547 280.658 387.175 281.342C386.815 282.026 386.635 282.818 386.635 283.718C386.635 284.618 386.815 285.416 387.175 286.112C387.547 286.796 388.057 287.324 388.705 287.696C389.353 288.068 390.091 288.254 390.919 288.254C392.035 288.254 392.941 287.942 393.637 287.318C394.333 286.694 394.759 285.848 394.915 284.78H390.217V283.142H397.111V284.744C396.979 285.716 396.631 286.61 396.067 287.426C395.515 288.242 394.789 288.896 393.889 289.388C393.001 289.868 392.011 290.108 390.919 290.108C389.743 290.108 388.669 289.838 387.697 289.298C386.725 288.746 385.951 287.984 385.375 287.012C384.811 286.04 384.529 284.942 384.529 283.718C384.529 282.494 384.811 281.396 385.375 280.424C385.951 279.452 386.725 278.696 387.697 278.156C388.681 277.604 389.755 277.328 390.919 277.328C392.251 277.328 393.433 277.658 394.465 278.318C395.509 278.966 396.265 279.89 396.733 281.09H394.267ZM405.633 290L402.753 284.996H401.187V290H399.135V277.49H403.455C404.415 277.49 405.225 277.658 405.885 277.994C406.557 278.33 407.055 278.78 407.379 279.344C407.715 279.908 407.883 280.538 407.883 281.234C407.883 282.05 407.643 282.794 407.163 283.466C406.695 284.126 405.969 284.576 404.985 284.816L408.081 290H405.633ZM401.187 283.358H403.455C404.223 283.358 404.799 283.166 405.183 282.782C405.579 282.398 405.777 281.882 405.777 281.234C405.777 280.586 405.585 280.082 405.201 279.722C404.817 279.35 404.235 279.164 403.455 279.164H401.187V283.358ZM419.778 277.49L415.638 285.464V290H413.586V285.464L409.428 277.49H411.714L414.612 283.628L417.51 277.49H419.778ZM340.098 307.49C341.43 307.49 342.594 307.748 343.59 308.264C344.598 308.768 345.372 309.5 345.912 310.46C346.464 311.408 346.74 312.518 346.74 313.79C346.74 315.062 346.464 316.166 345.912 317.102C345.372 318.038 344.598 318.758 343.59 319.262C342.594 319.754 341.43 320 340.098 320H336.012V307.49H340.098ZM340.098 318.326C341.562 318.326 342.684 317.93 343.464 317.138C344.244 316.346 344.634 315.23 344.634 313.79C344.634 312.338 344.244 311.204 343.464 310.388C342.684 309.572 341.562 309.164 340.098 309.164H338.064V318.326H340.098ZM350.826 309.146V312.818H355.146V314.492H350.826V318.326H355.686V320H348.774V307.472H355.686V309.146H350.826ZM368.995 307.49L364.297 320H361.921L357.205 307.49H359.401L363.109 317.894L366.835 307.49H368.995ZM372.763 309.146V312.818H377.083V314.492H372.763V318.326H377.623V320H370.711V307.472H377.623V309.146H372.763ZM382.203 318.344H386.433V320H380.151V307.49H382.203V318.344ZM393.855 320.126C392.691 320.126 391.617 319.856 390.633 319.316C389.661 318.764 388.887 318.002 388.311 317.03C387.747 316.046 387.465 314.942 387.465 313.718C387.465 312.494 387.747 311.396 388.311 310.424C388.887 309.452 389.661 308.696 390.633 308.156C391.617 307.604 392.691 307.328 393.855 307.328C395.031 307.328 396.105 307.604 397.077 308.156C398.061 308.696 398.835 309.452 399.399 310.424C399.963 311.396 400.245 312.494 400.245 313.718C400.245 314.942 399.963 316.046 399.399 317.03C398.835 318.002 398.061 318.764 397.077 319.316C396.105 319.856 395.031 320.126 393.855 320.126ZM393.855 318.344C394.683 318.344 395.421 318.158 396.069 317.786C396.717 317.402 397.221 316.862 397.581 316.166C397.953 315.458 398.139 314.642 398.139 313.718C398.139 312.794 397.953 311.984 397.581 311.288C397.221 310.592 396.717 310.058 396.069 309.686C395.421 309.314 394.683 309.128 393.855 309.128C393.027 309.128 392.289 309.314 391.641 309.686C390.993 310.058 390.483 310.592 390.111 311.288C389.751 311.984 389.571 312.794 389.571 313.718C389.571 314.642 389.751 315.458 390.111 316.166C390.483 316.862 390.993 317.402 391.641 317.786C392.289 318.158 393.027 318.344 393.855 318.344ZM411.012 311.216C411.012 311.852 410.862 312.452 410.562 313.016C410.262 313.58 409.782 314.042 409.122 314.402C408.462 314.75 407.616 314.924 406.584 314.924H404.316V320H402.264V307.49H406.584C407.544 307.49 408.354 307.658 409.014 307.994C409.686 308.318 410.184 308.762 410.508 309.326C410.844 309.89 411.012 310.52 411.012 311.216ZM406.584 313.25C407.364 313.25 407.946 313.076 408.33 312.728C408.714 312.368 408.906 311.864 408.906 311.216C408.906 309.848 408.132 309.164 406.584 309.164H404.316V313.25H406.584ZM426.145 307.49V320H424.093V311.432L420.277 320H418.855L415.021 311.432V320H412.969V307.49H415.183L419.575 317.3L423.949 307.49H426.145ZM430.894 309.146V312.818H435.214V314.492H430.894V318.326H435.754V320H428.842V307.472H435.754V309.146H430.894ZM448.56 320H446.508L440.334 310.658V320H438.282V307.472H440.334L446.508 316.796V307.472H448.56V320ZM459.336 307.49V309.164H456.006V320H453.954V309.164H450.606V307.49H459.336ZM340.134 350.126C339.294 350.126 338.538 349.982 337.866 349.694C337.194 349.394 336.666 348.974 336.282 348.434C335.898 347.894 335.706 347.264 335.706 346.544H337.902C337.95 347.084 338.16 347.528 338.532 347.876C338.916 348.224 339.45 348.398 340.134 348.398C340.842 348.398 341.394 348.23 341.79 347.894C342.186 347.546 342.384 347.102 342.384 346.562C342.384 346.142 342.258 345.8 342.006 345.536C341.766 345.272 341.46 345.068 341.088 344.924C340.728 344.78 340.224 344.624 339.576 344.456C338.76 344.24 338.094 344.024 337.578 343.808C337.074 343.58 336.642 343.232 336.282 342.764C335.922 342.296 335.742 341.672 335.742 340.892C335.742 340.172 335.922 339.542 336.282 339.002C336.642 338.462 337.146 338.048 337.794 337.76C338.442 337.472 339.192 337.328 340.044 337.328C341.256 337.328 342.246 337.634 343.014 338.246C343.794 338.846 344.226 339.674 344.31 340.73H342.042C342.006 340.274 341.79 339.884 341.394 339.56C340.998 339.236 340.476 339.074 339.828 339.074C339.24 339.074 338.76 339.224 338.388 339.524C338.016 339.824 337.83 340.256 337.83 340.82C337.83 341.204 337.944 341.522 338.172 341.774C338.412 342.014 338.712 342.206 339.072 342.35C339.432 342.494 339.924 342.65 340.548 342.818C341.376 343.046 342.048 343.274 342.564 343.502C343.092 343.73 343.536 344.084 343.896 344.564C344.268 345.032 344.454 345.662 344.454 346.454C344.454 347.09 344.28 347.69 343.932 348.254C343.596 348.818 343.098 349.274 342.438 349.622C341.79 349.958 341.022 350.126 340.134 350.126ZM346.191 343.718C346.191 342.494 346.473 341.396 347.037 340.424C347.613 339.452 348.387 338.696 349.359 338.156C350.343 337.604 351.417 337.328 352.581 337.328C353.913 337.328 355.095 337.658 356.127 338.318C357.171 338.966 357.927 339.89 358.395 341.09H355.929C355.605 340.43 355.155 339.938 354.579 339.614C354.003 339.29 353.337 339.128 352.581 339.128C351.753 339.128 351.015 339.314 350.367 339.686C349.719 340.058 349.209 340.592 348.837 341.288C348.477 341.984 348.297 342.794 348.297 343.718C348.297 344.642 348.477 345.452 348.837 346.148C349.209 346.844 349.719 347.384 350.367 347.768C351.015 348.14 351.753 348.326 352.581 348.326C353.337 348.326 354.003 348.164 354.579 347.84C355.155 347.516 355.605 347.024 355.929 346.364H358.395C357.927 347.564 357.171 348.488 356.127 349.136C355.095 349.784 353.913 350.108 352.581 350.108C351.405 350.108 350.331 349.838 349.359 349.298C348.387 348.746 347.613 347.984 347.037 347.012C346.473 346.04 346.191 344.942 346.191 343.718ZM370.787 337.49V350H368.735V344.528H362.849V350H360.797V337.49H362.849V342.854H368.735V337.49H370.787ZM375.541 339.146V342.818H379.861V344.492H375.541V348.326H380.401V350H373.489V337.472H380.401V339.146H375.541ZM396.104 337.49V350H394.052V341.432L390.236 350H388.814L384.98 341.432V350H382.928V337.49H385.142L389.534 347.3L393.908 337.49H396.104ZM400.853 339.146V342.818H405.173V344.492H400.853V348.326H405.713V350H398.801V337.472H405.713V339.146H400.853Z"
        fill="#13203C" />
    <path
        d="M603.726 279.146V282.818H608.046V284.492H603.726V288.326H608.586V290H601.674V277.472H608.586V279.146H603.726ZM619.861 281.216C619.861 281.852 619.711 282.452 619.411 283.016C619.111 283.58 618.631 284.042 617.971 284.402C617.311 284.75 616.465 284.924 615.433 284.924H613.165V290H611.113V277.49H615.433C616.393 277.49 617.203 277.658 617.863 277.994C618.535 278.318 619.033 278.762 619.357 279.326C619.693 279.89 619.861 280.52 619.861 281.216ZM615.433 283.25C616.213 283.25 616.795 283.076 617.179 282.728C617.563 282.368 617.755 281.864 617.755 281.216C617.755 279.848 616.981 279.164 615.433 279.164H613.165V283.25H615.433ZM623.871 279.146V282.818H628.191V284.492H623.871V288.326H628.731V290H621.819V277.472H628.731V279.146H623.871ZM605.76 307.49C607.092 307.49 608.256 307.748 609.252 308.264C610.26 308.768 611.034 309.5 611.574 310.46C612.126 311.408 612.402 312.518 612.402 313.79C612.402 315.062 612.126 316.166 611.574 317.102C611.034 318.038 610.26 318.758 609.252 319.262C608.256 319.754 607.092 320 605.76 320H601.674V307.49H605.76ZM605.76 318.326C607.224 318.326 608.346 317.93 609.126 317.138C609.906 316.346 610.296 315.23 610.296 313.79C610.296 312.338 609.906 311.204 609.126 310.388C608.346 309.572 607.224 309.164 605.76 309.164H603.726V318.326H605.76ZM616.488 309.146V312.818H620.808V314.492H616.488V318.326H621.348V320H614.436V307.472H621.348V309.146H616.488ZM634.657 307.49L629.959 320H627.583L622.867 307.49H625.063L628.771 317.894L632.497 307.49H634.657ZM638.425 309.146V312.818H642.745V314.492H638.425V318.326H643.285V320H636.373V307.472H643.285V309.146H638.425ZM647.865 318.344H652.095V320H645.813V307.49H647.865V318.344ZM659.517 320.126C658.353 320.126 657.279 319.856 656.295 319.316C655.323 318.764 654.549 318.002 653.973 317.03C653.409 316.046 653.127 314.942 653.127 313.718C653.127 312.494 653.409 311.396 653.973 310.424C654.549 309.452 655.323 308.696 656.295 308.156C657.279 307.604 658.353 307.328 659.517 307.328C660.693 307.328 661.767 307.604 662.739 308.156C663.723 308.696 664.497 309.452 665.061 310.424C665.625 311.396 665.907 312.494 665.907 313.718C665.907 314.942 665.625 316.046 665.061 317.03C664.497 318.002 663.723 318.764 662.739 319.316C661.767 319.856 660.693 320.126 659.517 320.126ZM659.517 318.344C660.345 318.344 661.083 318.158 661.731 317.786C662.379 317.402 662.883 316.862 663.243 316.166C663.615 315.458 663.801 314.642 663.801 313.718C663.801 312.794 663.615 311.984 663.243 311.288C662.883 310.592 662.379 310.058 661.731 309.686C661.083 309.314 660.345 309.128 659.517 309.128C658.689 309.128 657.951 309.314 657.303 309.686C656.655 310.058 656.145 310.592 655.773 311.288C655.413 311.984 655.233 312.794 655.233 313.718C655.233 314.642 655.413 315.458 655.773 316.166C656.145 316.862 656.655 317.402 657.303 317.786C657.951 318.158 658.689 318.344 659.517 318.344ZM676.674 311.216C676.674 311.852 676.524 312.452 676.224 313.016C675.924 313.58 675.444 314.042 674.784 314.402C674.124 314.75 673.278 314.924 672.246 314.924H669.978V320H667.926V307.49H672.246C673.206 307.49 674.016 307.658 674.676 307.994C675.348 308.318 675.846 308.762 676.17 309.326C676.506 309.89 676.674 310.52 676.674 311.216ZM672.246 313.25C673.026 313.25 673.608 313.076 673.992 312.728C674.376 312.368 674.568 311.864 674.568 311.216C674.568 309.848 673.794 309.164 672.246 309.164H669.978V313.25H672.246ZM691.807 307.49V320H689.755V311.432L685.939 320H684.517L680.683 311.432V320H678.631V307.49H680.845L685.237 317.3L689.611 307.49H691.807ZM696.556 309.146V312.818H700.876V314.492H696.556V318.326H701.416V320H694.504V307.472H701.416V309.146H696.556ZM714.222 320H712.17L705.996 310.658V320H703.944V307.472H705.996L712.17 316.796V307.472H714.222V320ZM724.998 307.49V309.164H721.668V320H719.616V309.164H716.268V307.49H724.998ZM605.796 350.126C604.956 350.126 604.2 349.982 603.528 349.694C602.856 349.394 602.328 348.974 601.944 348.434C601.56 347.894 601.368 347.264 601.368 346.544H603.564C603.612 347.084 603.822 347.528 604.194 347.876C604.578 348.224 605.112 348.398 605.796 348.398C606.504 348.398 607.056 348.23 607.452 347.894C607.848 347.546 608.046 347.102 608.046 346.562C608.046 346.142 607.92 345.8 607.668 345.536C607.428 345.272 607.122 345.068 606.75 344.924C606.39 344.78 605.886 344.624 605.238 344.456C604.422 344.24 603.756 344.024 603.24 343.808C602.736 343.58 602.304 343.232 601.944 342.764C601.584 342.296 601.404 341.672 601.404 340.892C601.404 340.172 601.584 339.542 601.944 339.002C602.304 338.462 602.808 338.048 603.456 337.76C604.104 337.472 604.854 337.328 605.706 337.328C606.918 337.328 607.908 337.634 608.676 338.246C609.456 338.846 609.888 339.674 609.972 340.73H607.704C607.668 340.274 607.452 339.884 607.056 339.56C606.66 339.236 606.138 339.074 605.49 339.074C604.902 339.074 604.422 339.224 604.05 339.524C603.678 339.824 603.492 340.256 603.492 340.82C603.492 341.204 603.606 341.522 603.834 341.774C604.074 342.014 604.374 342.206 604.734 342.35C605.094 342.494 605.586 342.65 606.21 342.818C607.038 343.046 607.71 343.274 608.226 343.502C608.754 343.73 609.198 344.084 609.558 344.564C609.93 345.032 610.116 345.662 610.116 346.454C610.116 347.09 609.942 347.69 609.594 348.254C609.258 348.818 608.76 349.274 608.1 349.622C607.452 349.958 606.684 350.126 605.796 350.126ZM611.853 343.718C611.853 342.494 612.135 341.396 612.699 340.424C613.275 339.452 614.049 338.696 615.021 338.156C616.005 337.604 617.079 337.328 618.243 337.328C619.575 337.328 620.757 337.658 621.789 338.318C622.833 338.966 623.589 339.89 624.057 341.09H621.591C621.267 340.43 620.817 339.938 620.241 339.614C619.665 339.29 618.999 339.128 618.243 339.128C617.415 339.128 616.677 339.314 616.029 339.686C615.381 340.058 614.871 340.592 614.499 341.288C614.139 341.984 613.959 342.794 613.959 343.718C613.959 344.642 614.139 345.452 614.499 346.148C614.871 346.844 615.381 347.384 616.029 347.768C616.677 348.14 617.415 348.326 618.243 348.326C618.999 348.326 619.665 348.164 620.241 347.84C620.817 347.516 621.267 347.024 621.591 346.364H624.057C623.589 347.564 622.833 348.488 621.789 349.136C620.757 349.784 619.575 350.108 618.243 350.108C617.067 350.108 615.993 349.838 615.021 349.298C614.049 348.746 613.275 347.984 612.699 347.012C612.135 346.04 611.853 344.942 611.853 343.718ZM636.449 337.49V350H634.397V344.528H628.511V350H626.459V337.49H628.511V342.854H634.397V337.49H636.449ZM641.203 339.146V342.818H645.523V344.492H641.203V348.326H646.063V350H639.151V337.472H646.063V339.146H641.203ZM661.766 337.49V350H659.714V341.432L655.898 350H654.476L650.642 341.432V350H648.59V337.49H650.804L655.196 347.3L659.57 337.49H661.766ZM666.515 339.146V342.818H670.835V344.492H666.515V348.326H671.375V350H664.463V337.472H671.375V339.146H666.515Z"
        fill="#13203C" />
    <path
        d="M871.388 277.49V290H869.336V277.49H871.388ZM880.976 290L876.134 284.402V290H874.082V277.49H876.134V283.196L880.994 277.49H883.568L878.132 283.754L883.658 290H880.976ZM891.179 290.126C890.015 290.126 888.941 289.856 887.957 289.316C886.985 288.764 886.211 288.002 885.635 287.03C885.071 286.046 884.789 284.942 884.789 283.718C884.789 282.494 885.071 281.396 885.635 280.424C886.211 279.452 886.985 278.696 887.957 278.156C888.941 277.604 890.015 277.328 891.179 277.328C892.355 277.328 893.429 277.604 894.401 278.156C895.385 278.696 896.159 279.452 896.723 280.424C897.287 281.396 897.569 282.494 897.569 283.718C897.569 284.942 897.287 286.046 896.723 287.03C896.159 288.002 895.385 288.764 894.401 289.316C893.429 289.856 892.355 290.126 891.179 290.126ZM891.179 288.344C892.007 288.344 892.745 288.158 893.393 287.786C894.041 287.402 894.545 286.862 894.905 286.166C895.277 285.458 895.463 284.642 895.463 283.718C895.463 282.794 895.277 281.984 894.905 281.288C894.545 280.592 894.041 280.058 893.393 279.686C892.745 279.314 892.007 279.128 891.179 279.128C890.351 279.128 889.613 279.314 888.965 279.686C888.317 280.058 887.807 280.592 887.435 281.288C887.075 281.984 886.895 282.794 886.895 283.718C886.895 284.642 887.075 285.458 887.435 286.166C887.807 286.862 888.317 287.402 888.965 287.786C889.613 288.158 890.351 288.344 891.179 288.344ZM906.086 290L903.206 284.996H901.64V290H899.588V277.49H903.908C904.868 277.49 905.678 277.658 906.338 277.994C907.01 278.33 907.508 278.78 907.832 279.344C908.168 279.908 908.336 280.538 908.336 281.234C908.336 282.05 908.096 282.794 907.616 283.466C907.148 284.126 906.422 284.576 905.438 284.816L908.534 290H906.086ZM901.64 283.358H903.908C904.676 283.358 905.252 283.166 905.636 282.782C906.032 282.398 906.23 281.882 906.23 281.234C906.23 280.586 906.038 280.082 905.654 279.722C905.27 279.35 904.688 279.164 903.908 279.164H901.64V283.358ZM916.667 290.126C915.503 290.126 914.429 289.856 913.445 289.316C912.473 288.764 911.699 288.002 911.123 287.03C910.559 286.046 910.277 284.942 910.277 283.718C910.277 282.494 910.559 281.396 911.123 280.424C911.699 279.452 912.473 278.696 913.445 278.156C914.429 277.604 915.503 277.328 916.667 277.328C917.843 277.328 918.917 277.604 919.889 278.156C920.873 278.696 921.647 279.452 922.211 280.424C922.775 281.396 923.057 282.494 923.057 283.718C923.057 284.942 922.775 286.046 922.211 287.03C921.647 288.002 920.873 288.764 919.889 289.316C918.917 289.856 917.843 290.126 916.667 290.126ZM916.667 288.344C917.495 288.344 918.233 288.158 918.881 287.786C919.529 287.402 920.033 286.862 920.393 286.166C920.765 285.458 920.951 284.642 920.951 283.718C920.951 282.794 920.765 281.984 920.393 281.288C920.033 280.592 919.529 280.058 918.881 279.686C918.233 279.314 917.495 279.128 916.667 279.128C915.839 279.128 915.101 279.314 914.453 279.686C913.805 280.058 913.295 280.592 912.923 281.288C912.563 281.984 912.383 282.794 912.383 283.718C912.383 284.642 912.563 285.458 912.923 286.166C913.295 286.862 913.805 287.402 914.453 287.786C915.101 288.158 915.839 288.344 916.667 288.344ZM929.162 277.49C930.494 277.49 931.658 277.748 932.654 278.264C933.662 278.768 934.436 279.5 934.976 280.46C935.528 281.408 935.804 282.518 935.804 283.79C935.804 285.062 935.528 286.166 934.976 287.102C934.436 288.038 933.662 288.758 932.654 289.262C931.658 289.754 930.494 290 929.162 290H925.076V277.49H929.162ZM929.162 288.326C930.626 288.326 931.748 287.93 932.528 287.138C933.308 286.346 933.698 285.23 933.698 283.79C933.698 282.338 933.308 281.204 932.528 280.388C931.748 279.572 930.626 279.164 929.162 279.164H927.128V288.326H929.162ZM939.872 277.49V285.464C939.872 286.412 940.118 287.126 940.61 287.606C941.114 288.086 941.81 288.326 942.698 288.326C943.598 288.326 944.294 288.086 944.786 287.606C945.29 287.126 945.542 286.412 945.542 285.464V277.49H947.594V285.428C947.594 286.448 947.372 287.312 946.928 288.02C946.484 288.728 945.89 289.256 945.146 289.604C944.402 289.952 943.58 290.126 942.68 290.126C941.78 290.126 940.958 289.952 940.214 289.604C939.482 289.256 938.9 288.728 938.468 288.02C938.036 287.312 937.82 286.448 937.82 285.428V277.49H939.872ZM873.422 307.49C874.754 307.49 875.918 307.748 876.914 308.264C877.922 308.768 878.696 309.5 879.236 310.46C879.788 311.408 880.064 312.518 880.064 313.79C880.064 315.062 879.788 316.166 879.236 317.102C878.696 318.038 877.922 318.758 876.914 319.262C875.918 319.754 874.754 320 873.422 320H869.336V307.49H873.422ZM873.422 318.326C874.886 318.326 876.008 317.93 876.788 317.138C877.568 316.346 877.958 315.23 877.958 313.79C877.958 312.338 877.568 311.204 876.788 310.388C876.008 309.572 874.886 309.164 873.422 309.164H871.388V318.326H873.422ZM884.15 309.146V312.818H888.47V314.492H884.15V318.326H889.01V320H882.098V307.472H889.01V309.146H884.15ZM902.319 307.49L897.621 320H895.245L890.529 307.49H892.725L896.433 317.894L900.159 307.49H902.319ZM906.087 309.146V312.818H910.407V314.492H906.087V318.326H910.947V320H904.035V307.472H910.947V309.146H906.087ZM915.527 318.344H919.757V320H913.475V307.49H915.527V318.344ZM927.179 320.126C926.015 320.126 924.941 319.856 923.957 319.316C922.985 318.764 922.211 318.002 921.635 317.03C921.071 316.046 920.789 314.942 920.789 313.718C920.789 312.494 921.071 311.396 921.635 310.424C922.211 309.452 922.985 308.696 923.957 308.156C924.941 307.604 926.015 307.328 927.179 307.328C928.355 307.328 929.429 307.604 930.401 308.156C931.385 308.696 932.159 309.452 932.723 310.424C933.287 311.396 933.569 312.494 933.569 313.718C933.569 314.942 933.287 316.046 932.723 317.03C932.159 318.002 931.385 318.764 930.401 319.316C929.429 319.856 928.355 320.126 927.179 320.126ZM927.179 318.344C928.007 318.344 928.745 318.158 929.393 317.786C930.041 317.402 930.545 316.862 930.905 316.166C931.277 315.458 931.463 314.642 931.463 313.718C931.463 312.794 931.277 311.984 930.905 311.288C930.545 310.592 930.041 310.058 929.393 309.686C928.745 309.314 928.007 309.128 927.179 309.128C926.351 309.128 925.613 309.314 924.965 309.686C924.317 310.058 923.807 310.592 923.435 311.288C923.075 311.984 922.895 312.794 922.895 313.718C922.895 314.642 923.075 315.458 923.435 316.166C923.807 316.862 924.317 317.402 924.965 317.786C925.613 318.158 926.351 318.344 927.179 318.344ZM944.336 311.216C944.336 311.852 944.186 312.452 943.886 313.016C943.586 313.58 943.106 314.042 942.446 314.402C941.786 314.75 940.94 314.924 939.908 314.924H937.64V320H935.588V307.49H939.908C940.868 307.49 941.678 307.658 942.338 307.994C943.01 308.318 943.508 308.762 943.832 309.326C944.168 309.89 944.336 310.52 944.336 311.216ZM939.908 313.25C940.688 313.25 941.27 313.076 941.654 312.728C942.038 312.368 942.23 311.864 942.23 311.216C942.23 309.848 941.456 309.164 939.908 309.164H937.64V313.25H939.908ZM959.469 307.49V320H957.417V311.432L953.601 320H952.179L948.345 311.432V320H946.293V307.49H948.507L952.899 317.3L957.273 307.49H959.469ZM964.218 309.146V312.818H968.538V314.492H964.218V318.326H969.078V320H962.166V307.472H969.078V309.146H964.218ZM981.884 320H979.832L973.658 310.658V320H971.606V307.472H973.658L979.832 316.796V307.472H981.884V320ZM992.66 307.49V309.164H989.33V320H987.278V309.164H983.93V307.49H992.66ZM873.458 350.126C872.618 350.126 871.862 349.982 871.19 349.694C870.518 349.394 869.99 348.974 869.606 348.434C869.222 347.894 869.03 347.264 869.03 346.544H871.226C871.274 347.084 871.484 347.528 871.856 347.876C872.24 348.224 872.774 348.398 873.458 348.398C874.166 348.398 874.718 348.23 875.114 347.894C875.51 347.546 875.708 347.102 875.708 346.562C875.708 346.142 875.582 345.8 875.33 345.536C875.09 345.272 874.784 345.068 874.412 344.924C874.052 344.78 873.548 344.624 872.9 344.456C872.084 344.24 871.418 344.024 870.902 343.808C870.398 343.58 869.966 343.232 869.606 342.764C869.246 342.296 869.066 341.672 869.066 340.892C869.066 340.172 869.246 339.542 869.606 339.002C869.966 338.462 870.47 338.048 871.118 337.76C871.766 337.472 872.516 337.328 873.368 337.328C874.58 337.328 875.57 337.634 876.338 338.246C877.118 338.846 877.55 339.674 877.634 340.73H875.366C875.33 340.274 875.114 339.884 874.718 339.56C874.322 339.236 873.8 339.074 873.152 339.074C872.564 339.074 872.084 339.224 871.712 339.524C871.34 339.824 871.154 340.256 871.154 340.82C871.154 341.204 871.268 341.522 871.496 341.774C871.736 342.014 872.036 342.206 872.396 342.35C872.756 342.494 873.248 342.65 873.872 342.818C874.7 343.046 875.372 343.274 875.888 343.502C876.416 343.73 876.86 344.084 877.22 344.564C877.592 345.032 877.778 345.662 877.778 346.454C877.778 347.09 877.604 347.69 877.256 348.254C876.92 348.818 876.422 349.274 875.762 349.622C875.114 349.958 874.346 350.126 873.458 350.126ZM879.515 343.718C879.515 342.494 879.797 341.396 880.361 340.424C880.937 339.452 881.711 338.696 882.683 338.156C883.667 337.604 884.741 337.328 885.905 337.328C887.237 337.328 888.419 337.658 889.451 338.318C890.495 338.966 891.251 339.89 891.719 341.09H889.253C888.929 340.43 888.479 339.938 887.903 339.614C887.327 339.29 886.661 339.128 885.905 339.128C885.077 339.128 884.339 339.314 883.691 339.686C883.043 340.058 882.533 340.592 882.161 341.288C881.801 341.984 881.621 342.794 881.621 343.718C881.621 344.642 881.801 345.452 882.161 346.148C882.533 346.844 883.043 347.384 883.691 347.768C884.339 348.14 885.077 348.326 885.905 348.326C886.661 348.326 887.327 348.164 887.903 347.84C888.479 347.516 888.929 347.024 889.253 346.364H891.719C891.251 347.564 890.495 348.488 889.451 349.136C888.419 349.784 887.237 350.108 885.905 350.108C884.729 350.108 883.655 349.838 882.683 349.298C881.711 348.746 880.937 347.984 880.361 347.012C879.797 346.04 879.515 344.942 879.515 343.718ZM904.111 337.49V350H902.059V344.528H896.173V350H894.121V337.49H896.173V342.854H902.059V337.49H904.111ZM908.865 339.146V342.818H913.185V344.492H908.865V348.326H913.725V350H906.813V337.472H913.725V339.146H908.865ZM929.428 337.49V350H927.376V341.432L923.56 350H922.138L918.304 341.432V350H916.252V337.49H918.466L922.858 347.3L927.232 337.49H929.428ZM934.177 339.146V342.818H938.497V344.492H934.177V348.326H939.037V350H932.125V337.472H939.037V339.146H934.177Z"
        fill="#13203C" />
    <path
        d="M1138.05 288.344H1142.28V290H1136V277.49H1138.05V288.344ZM1151.54 287.444H1146.3L1145.4 290H1143.26L1147.74 277.472H1150.12L1154.6 290H1152.44L1151.54 287.444ZM1150.96 285.77L1148.93 279.956L1146.88 285.77H1150.96ZM1165.6 281.09C1165.28 280.466 1164.83 279.998 1164.25 279.686C1163.67 279.362 1163.01 279.2 1162.25 279.2C1161.42 279.2 1160.69 279.386 1160.04 279.758C1159.39 280.13 1158.88 280.658 1158.51 281.342C1158.15 282.026 1157.97 282.818 1157.97 283.718C1157.97 284.618 1158.15 285.416 1158.51 286.112C1158.88 286.796 1159.39 287.324 1160.04 287.696C1160.69 288.068 1161.42 288.254 1162.25 288.254C1163.37 288.254 1164.27 287.942 1164.97 287.318C1165.67 286.694 1166.09 285.848 1166.25 284.78H1161.55V283.142H1168.44V284.744C1168.31 285.716 1167.96 286.61 1167.4 287.426C1166.85 288.242 1166.12 288.896 1165.22 289.388C1164.33 289.868 1163.34 290.108 1162.25 290.108C1161.08 290.108 1160 289.838 1159.03 289.298C1158.06 288.746 1157.28 287.984 1156.71 287.012C1156.14 286.04 1155.86 284.942 1155.86 283.718C1155.86 282.494 1156.14 281.396 1156.71 280.424C1157.28 279.452 1158.06 278.696 1159.03 278.156C1160.01 277.604 1161.09 277.328 1162.25 277.328C1163.58 277.328 1164.77 277.658 1165.8 278.318C1166.84 278.966 1167.6 279.89 1168.07 281.09H1165.6ZM1176.17 290.126C1175.01 290.126 1173.94 289.856 1172.95 289.316C1171.98 288.764 1171.21 288.002 1170.63 287.03C1170.07 286.046 1169.78 284.942 1169.78 283.718C1169.78 282.494 1170.07 281.396 1170.63 280.424C1171.21 279.452 1171.98 278.696 1172.95 278.156C1173.94 277.604 1175.01 277.328 1176.17 277.328C1177.35 277.328 1178.42 277.604 1179.4 278.156C1180.38 278.696 1181.15 279.452 1181.72 280.424C1182.28 281.396 1182.56 282.494 1182.56 283.718C1182.56 284.942 1182.28 286.046 1181.72 287.03C1181.15 288.002 1180.38 288.764 1179.4 289.316C1178.42 289.856 1177.35 290.126 1176.17 290.126ZM1176.17 288.344C1177 288.344 1177.74 288.158 1178.39 287.786C1179.04 287.402 1179.54 286.862 1179.9 286.166C1180.27 285.458 1180.46 284.642 1180.46 283.718C1180.46 282.794 1180.27 281.984 1179.9 281.288C1179.54 280.592 1179.04 280.058 1178.39 279.686C1177.74 279.314 1177 279.128 1176.17 279.128C1175.35 279.128 1174.61 279.314 1173.96 279.686C1173.31 280.058 1172.8 280.592 1172.43 281.288C1172.07 281.984 1171.89 282.794 1171.89 283.718C1171.89 284.642 1172.07 285.458 1172.43 286.166C1172.8 286.862 1173.31 287.402 1173.96 287.786C1174.61 288.158 1175.35 288.344 1176.17 288.344ZM1188.71 290.126C1187.87 290.126 1187.11 289.982 1186.44 289.694C1185.77 289.394 1185.24 288.974 1184.85 288.434C1184.47 287.894 1184.28 287.264 1184.28 286.544H1186.47C1186.52 287.084 1186.73 287.528 1187.1 287.876C1187.49 288.224 1188.02 288.398 1188.71 288.398C1189.41 288.398 1189.97 288.23 1190.36 287.894C1190.76 287.546 1190.96 287.102 1190.96 286.562C1190.96 286.142 1190.83 285.8 1190.58 285.536C1190.34 285.272 1190.03 285.068 1189.66 284.924C1189.3 284.78 1188.8 284.624 1188.15 284.456C1187.33 284.24 1186.67 284.024 1186.15 283.808C1185.65 283.58 1185.21 283.232 1184.85 282.764C1184.49 282.296 1184.31 281.672 1184.31 280.892C1184.31 280.172 1184.49 279.542 1184.85 279.002C1185.21 278.462 1185.72 278.048 1186.37 277.76C1187.01 277.472 1187.76 277.328 1188.62 277.328C1189.83 277.328 1190.82 277.634 1191.59 278.246C1192.37 278.846 1192.8 279.674 1192.88 280.73H1190.61C1190.58 280.274 1190.36 279.884 1189.97 279.56C1189.57 279.236 1189.05 279.074 1188.4 279.074C1187.81 279.074 1187.33 279.224 1186.96 279.524C1186.59 279.824 1186.4 280.256 1186.4 280.82C1186.4 281.204 1186.52 281.522 1186.74 281.774C1186.98 282.014 1187.28 282.206 1187.64 282.35C1188 282.494 1188.5 282.65 1189.12 282.818C1189.95 283.046 1190.62 283.274 1191.14 283.502C1191.66 283.73 1192.11 284.084 1192.47 284.564C1192.84 285.032 1193.03 285.662 1193.03 286.454C1193.03 287.09 1192.85 287.69 1192.5 288.254C1192.17 288.818 1191.67 289.274 1191.01 289.622C1190.36 289.958 1189.59 290.126 1188.71 290.126ZM1210.4 290H1208.35L1202.18 280.658V290H1200.12V277.472H1202.18L1208.35 286.796V277.472H1210.4V290ZM1218.8 290.126C1217.64 290.126 1216.56 289.856 1215.58 289.316C1214.61 288.764 1213.83 288.002 1213.26 287.03C1212.69 286.046 1212.41 284.942 1212.41 283.718C1212.41 282.494 1212.69 281.396 1213.26 280.424C1213.83 279.452 1214.61 278.696 1215.58 278.156C1216.56 277.604 1217.64 277.328 1218.8 277.328C1219.98 277.328 1221.05 277.604 1222.02 278.156C1223.01 278.696 1223.78 279.452 1224.35 280.424C1224.91 281.396 1225.19 282.494 1225.19 283.718C1225.19 284.942 1224.91 286.046 1224.35 287.03C1223.78 288.002 1223.01 288.764 1222.02 289.316C1221.05 289.856 1219.98 290.126 1218.8 290.126ZM1218.8 288.344C1219.63 288.344 1220.37 288.158 1221.02 287.786C1221.66 287.402 1222.17 286.862 1222.53 286.166C1222.9 285.458 1223.09 284.642 1223.09 283.718C1223.09 282.794 1222.9 281.984 1222.53 281.288C1222.17 280.592 1221.66 280.058 1221.02 279.686C1220.37 279.314 1219.63 279.128 1218.8 279.128C1217.97 279.128 1217.24 279.314 1216.59 279.686C1215.94 280.058 1215.43 280.592 1215.06 281.288C1214.7 281.984 1214.52 282.794 1214.52 283.718C1214.52 284.642 1214.7 285.458 1215.06 286.166C1215.43 286.862 1215.94 287.402 1216.59 287.786C1217.24 288.158 1217.97 288.344 1218.8 288.344ZM1233.71 290L1230.83 284.996H1229.26V290H1227.21V277.49H1231.53C1232.49 277.49 1233.3 277.658 1233.96 277.994C1234.63 278.33 1235.13 278.78 1235.45 279.344C1235.79 279.908 1235.96 280.538 1235.96 281.234C1235.96 282.05 1235.72 282.794 1235.24 283.466C1234.77 284.126 1234.04 284.576 1233.06 284.816L1236.16 290H1233.71ZM1229.26 283.358H1231.53C1232.3 283.358 1232.87 283.166 1233.26 282.782C1233.65 282.398 1233.85 281.882 1233.85 281.234C1233.85 280.586 1233.66 280.082 1233.28 279.722C1232.89 279.35 1232.31 279.164 1231.53 279.164H1229.26V283.358ZM1246.67 277.49V279.164H1243.34V290H1241.28V279.164H1237.94V277.49H1246.67ZM1258.73 277.49V290H1256.68V284.528H1250.8V290H1248.74V277.49H1250.8V282.854H1256.68V277.49H1258.73ZM1282.4 277.49L1278.69 290H1276.37L1273.74 280.532L1270.95 290L1268.65 290.018L1265.1 277.49H1267.28L1269.87 287.678L1272.68 277.49H1274.99L1277.6 287.624L1280.21 277.49H1282.4ZM1286.15 279.146V282.818H1290.47V284.492H1286.15V288.326H1291.01V290H1284.09V277.472H1291.01V279.146H1286.15ZM1297.66 290.126C1296.82 290.126 1296.06 289.982 1295.39 289.694C1294.72 289.394 1294.19 288.974 1293.8 288.434C1293.42 287.894 1293.23 287.264 1293.23 286.544H1295.42C1295.47 287.084 1295.68 287.528 1296.05 287.876C1296.44 288.224 1296.97 288.398 1297.66 288.398C1298.36 288.398 1298.92 288.23 1299.31 287.894C1299.71 287.546 1299.91 287.102 1299.91 286.562C1299.91 286.142 1299.78 285.8 1299.53 285.536C1299.29 285.272 1298.98 285.068 1298.61 284.924C1298.25 284.78 1297.75 284.624 1297.1 284.456C1296.28 284.24 1295.62 284.024 1295.1 283.808C1294.6 283.58 1294.16 283.232 1293.8 282.764C1293.44 282.296 1293.26 281.672 1293.26 280.892C1293.26 280.172 1293.44 279.542 1293.8 279.002C1294.16 278.462 1294.67 278.048 1295.32 277.76C1295.96 277.472 1296.71 277.328 1297.57 277.328C1298.78 277.328 1299.77 277.634 1300.54 278.246C1301.32 278.846 1301.75 279.674 1301.83 280.73H1299.56C1299.53 280.274 1299.31 279.884 1298.92 279.56C1298.52 279.236 1298 279.074 1297.35 279.074C1296.76 279.074 1296.28 279.224 1295.91 279.524C1295.54 279.824 1295.35 280.256 1295.35 280.82C1295.35 281.204 1295.47 281.522 1295.69 281.774C1295.93 282.014 1296.23 282.206 1296.59 282.35C1296.95 282.494 1297.45 282.65 1298.07 282.818C1298.9 283.046 1299.57 283.274 1300.09 283.502C1300.61 283.73 1301.06 284.084 1301.42 284.564C1301.79 285.032 1301.98 285.662 1301.98 286.454C1301.98 287.09 1301.8 287.69 1301.45 288.254C1301.12 288.818 1300.62 289.274 1299.96 289.622C1299.31 289.958 1298.54 290.126 1297.66 290.126ZM1312.48 277.49V279.164H1309.15V290H1307.1V279.164H1303.75V277.49H1312.48ZM1140.08 307.49C1141.42 307.49 1142.58 307.748 1143.58 308.264C1144.58 308.768 1145.36 309.5 1145.9 310.46C1146.45 311.408 1146.73 312.518 1146.73 313.79C1146.73 315.062 1146.45 316.166 1145.9 317.102C1145.36 318.038 1144.58 318.758 1143.58 319.262C1142.58 319.754 1141.42 320 1140.08 320H1136V307.49H1140.08ZM1140.08 318.326C1141.55 318.326 1142.67 317.93 1143.45 317.138C1144.23 316.346 1144.62 315.23 1144.62 313.79C1144.62 312.338 1144.23 311.204 1143.45 310.388C1142.67 309.572 1141.55 309.164 1140.08 309.164H1138.05V318.326H1140.08ZM1150.81 309.146V312.818H1155.13V314.492H1150.81V318.326H1155.67V320H1148.76V307.472H1155.67V309.146H1150.81ZM1168.98 307.49L1164.28 320H1161.91L1157.19 307.49H1159.39L1163.1 317.894L1166.82 307.49H1168.98ZM1172.75 309.146V312.818H1177.07V314.492H1172.75V318.326H1177.61V320H1170.7V307.472H1177.61V309.146H1172.75ZM1182.19 318.344H1186.42V320H1180.14V307.49H1182.19V318.344ZM1193.84 320.126C1192.68 320.126 1191.6 319.856 1190.62 319.316C1189.65 318.764 1188.87 318.002 1188.3 317.03C1187.73 316.046 1187.45 314.942 1187.45 313.718C1187.45 312.494 1187.73 311.396 1188.3 310.424C1188.87 309.452 1189.65 308.696 1190.62 308.156C1191.6 307.604 1192.68 307.328 1193.84 307.328C1195.02 307.328 1196.09 307.604 1197.06 308.156C1198.05 308.696 1198.82 309.452 1199.38 310.424C1199.95 311.396 1200.23 312.494 1200.23 313.718C1200.23 314.942 1199.95 316.046 1199.38 317.03C1198.82 318.002 1198.05 318.764 1197.06 319.316C1196.09 319.856 1195.02 320.126 1193.84 320.126ZM1193.84 318.344C1194.67 318.344 1195.41 318.158 1196.05 317.786C1196.7 317.402 1197.21 316.862 1197.57 316.166C1197.94 315.458 1198.12 314.642 1198.12 313.718C1198.12 312.794 1197.94 311.984 1197.57 311.288C1197.21 310.592 1196.7 310.058 1196.05 309.686C1195.41 309.314 1194.67 309.128 1193.84 309.128C1193.01 309.128 1192.27 309.314 1191.63 309.686C1190.98 310.058 1190.47 310.592 1190.1 311.288C1189.74 311.984 1189.56 312.794 1189.56 313.718C1189.56 314.642 1189.74 315.458 1190.1 316.166C1190.47 316.862 1190.98 317.402 1191.63 317.786C1192.27 318.158 1193.01 318.344 1193.84 318.344ZM1211 311.216C1211 311.852 1210.85 312.452 1210.55 313.016C1210.25 313.58 1209.77 314.042 1209.11 314.402C1208.45 314.75 1207.6 314.924 1206.57 314.924H1204.3V320H1202.25V307.49H1206.57C1207.53 307.49 1208.34 307.658 1209 307.994C1209.67 308.318 1210.17 308.762 1210.49 309.326C1210.83 309.89 1211 310.52 1211 311.216ZM1206.57 313.25C1207.35 313.25 1207.93 313.076 1208.32 312.728C1208.7 312.368 1208.89 311.864 1208.89 311.216C1208.89 309.848 1208.12 309.164 1206.57 309.164H1204.3V313.25H1206.57ZM1226.13 307.49V320H1224.08V311.432L1220.26 320H1218.84L1215.01 311.432V320H1212.96V307.49H1215.17L1219.56 317.3L1223.94 307.49H1226.13ZM1230.88 309.146V312.818H1235.2V314.492H1230.88V318.326H1235.74V320H1228.83V307.472H1235.74V309.146H1230.88ZM1248.55 320H1246.49L1240.32 310.658V320H1238.27V307.472H1240.32L1246.49 316.796V307.472H1248.55V320ZM1259.32 307.49V309.164H1255.99V320H1253.94V309.164H1250.59V307.49H1259.32ZM1140.12 350.126C1139.28 350.126 1138.52 349.982 1137.85 349.694C1137.18 349.394 1136.65 348.974 1136.27 348.434C1135.88 347.894 1135.69 347.264 1135.69 346.544H1137.89C1137.94 347.084 1138.15 347.528 1138.52 347.876C1138.9 348.224 1139.44 348.398 1140.12 348.398C1140.83 348.398 1141.38 348.23 1141.78 347.894C1142.17 347.546 1142.37 347.102 1142.37 346.562C1142.37 346.142 1142.24 345.8 1141.99 345.536C1141.75 345.272 1141.45 345.068 1141.07 344.924C1140.71 344.78 1140.21 344.624 1139.56 344.456C1138.75 344.24 1138.08 344.024 1137.56 343.808C1137.06 343.58 1136.63 343.232 1136.27 342.764C1135.91 342.296 1135.73 341.672 1135.73 340.892C1135.73 340.172 1135.91 339.542 1136.27 339.002C1136.63 338.462 1137.13 338.048 1137.78 337.76C1138.43 337.472 1139.18 337.328 1140.03 337.328C1141.24 337.328 1142.23 337.634 1143 338.246C1143.78 338.846 1144.21 339.674 1144.3 340.73H1142.03C1141.99 340.274 1141.78 339.884 1141.38 339.56C1140.98 339.236 1140.46 339.074 1139.81 339.074C1139.23 339.074 1138.75 339.224 1138.37 339.524C1138 339.824 1137.82 340.256 1137.82 340.82C1137.82 341.204 1137.93 341.522 1138.16 341.774C1138.4 342.014 1138.7 342.206 1139.06 342.35C1139.42 342.494 1139.91 342.65 1140.53 342.818C1141.36 343.046 1142.03 343.274 1142.55 343.502C1143.08 343.73 1143.52 344.084 1143.88 344.564C1144.25 345.032 1144.44 345.662 1144.44 346.454C1144.44 347.09 1144.27 347.69 1143.92 348.254C1143.58 348.818 1143.08 349.274 1142.42 349.622C1141.78 349.958 1141.01 350.126 1140.12 350.126ZM1146.18 343.718C1146.18 342.494 1146.46 341.396 1147.02 340.424C1147.6 339.452 1148.37 338.696 1149.35 338.156C1150.33 337.604 1151.4 337.328 1152.57 337.328C1153.9 337.328 1155.08 337.658 1156.11 338.318C1157.16 338.966 1157.91 339.89 1158.38 341.09H1155.92C1155.59 340.43 1155.14 339.938 1154.57 339.614C1153.99 339.29 1153.32 339.128 1152.57 339.128C1151.74 339.128 1151 339.314 1150.35 339.686C1149.71 340.058 1149.2 340.592 1148.82 341.288C1148.46 341.984 1148.28 342.794 1148.28 343.718C1148.28 344.642 1148.46 345.452 1148.82 346.148C1149.2 346.844 1149.71 347.384 1150.35 347.768C1151 348.14 1151.74 348.326 1152.57 348.326C1153.32 348.326 1153.99 348.164 1154.57 347.84C1155.14 347.516 1155.59 347.024 1155.92 346.364H1158.38C1157.91 347.564 1157.16 348.488 1156.11 349.136C1155.08 349.784 1153.9 350.108 1152.57 350.108C1151.39 350.108 1150.32 349.838 1149.35 349.298C1148.37 348.746 1147.6 347.984 1147.02 347.012C1146.46 346.04 1146.18 344.942 1146.18 343.718ZM1170.77 337.49V350H1168.72V344.528H1162.84V350H1160.78V337.49H1162.84V342.854H1168.72V337.49H1170.77ZM1175.53 339.146V342.818H1179.85V344.492H1175.53V348.326H1180.39V350H1173.47V337.472H1180.39V339.146H1175.53ZM1196.09 337.49V350H1194.04V341.432L1190.22 350H1188.8L1184.97 341.432V350H1182.91V337.49H1185.13L1189.52 347.3L1193.89 337.49H1196.09ZM1200.84 339.146V342.818H1205.16V344.492H1200.84V348.326H1205.7V350H1198.79V337.472H1205.7V339.146H1200.84Z"
        fill="#13203C" />
    <path d="M687 227L689.887 222H684.113L687 227ZM686.5 152V222.5H687.5V152H686.5Z" fill="black" fill-opacity="0.25" />
    <path d="M422 227L424.887 222L419.113 222L422 227ZM421.5 189L421.5 222.5L422.5 222.5L422.5 189L421.5 189Z"
        fill="black" fill-opacity="0.25" />
    <path d="M956 227L958.887 222L953.113 222L956 227ZM955.5 189L955.5 222.5L956.5 222.5L956.5 189L955.5 189Z"
        fill="black" fill-opacity="0.25" />
    <path d="M1223 227L1225.89 222L1220.11 222L1223 227ZM1222.5 189L1222.5 222.5L1223.5 222.5L1223.5 189L1222.5 189Z"
        fill="black" fill-opacity="0.25" />
    <path d="M155 227L157.887 222L152.113 222L155 227ZM154.5 189L154.5 222.5L155.5 222.5L155.5 189L154.5 189Z"
        fill="black" fill-opacity="0.25" />
    <path d="M155 189L1223 189" stroke="black" stroke-opacity="0.25" />
    <defs>
        <filter id="filter0_d_239_369" x="520" y="0" width="333" height="182" filterUnits="userSpaceOnUse"
            color-interpolation-filters="sRGB">
            <feFlood flood-opacity="0" result="BackgroundImageFix" />
            <feColorMatrix in="SourceAlpha" type="matrix" values="0 0 0 0 0 0 0 0 0 0 0 0 0 0 0 0 0 0 127 0"
                result="hardAlpha" />
            <feOffset />
            <feGaussianBlur stdDeviation="15" />
            <feComposite in2="hardAlpha" operator="out" />
            <feColorMatrix type="matrix" values="0 0 0 0 0 0 0 0 0 0 0 0 0 0 0 0 0 0 0.06 0" />
            <feBlend mode="normal" in2="BackgroundImageFix" result="effect1_dropShadow_239_369" />
            <feBlend mode="normal" in="SourceGraphic" in2="effect1_dropShadow_239_369" result="shape" />
        </filter>
        <filter id="filter1_d_239_369" x="0" y="197" width="310.648" height="224.013" filterUnits="userSpaceOnUse"
            color-interpolation-filters="sRGB">
            <feFlood flood-opacity="0" result="BackgroundImageFix" />
            <feColorMatrix in="SourceAlpha" type="matrix" values="0 0 0 0 0 0 0 0 0 0 0 0 0 0 0 0 0 0 127 0"
                result="hardAlpha" />
            <feOffset />
            <feGaussianBlur stdDeviation="15" />
            <feComposite in2="hardAlpha" operator="out" />
            <feColorMatrix type="matrix" values="0 0 0 0 0 0 0 0 0 0 0 0 0 0 0 0 0 0 0.06 0" />
            <feBlend mode="normal" in2="BackgroundImageFix" result="effect1_dropShadow_239_369" />
            <feBlend mode="normal" in="SourceGraphic" in2="effect1_dropShadow_239_369" result="shape" />
        </filter>
        <filter id="filter2_d_239_369" x="277.444" y="209.108" width="300.204" height="211.905"
            filterUnits="userSpaceOnUse" color-interpolation-filters="sRGB">
            <feFlood flood-opacity="0" result="BackgroundImageFix" />
            <feColorMatrix in="SourceAlpha" type="matrix" values="0 0 0 0 0 0 0 0 0 0 0 0 0 0 0 0 0 0 127 0"
                result="hardAlpha" />
            <feOffset />
            <feGaussianBlur stdDeviation="15" />
            <feComposite in2="hardAlpha" operator="out" />
            <feColorMatrix type="matrix" values="0 0 0 0 0 0 0 0 0 0 0 0 0 0 0 0 0 0 0.06 0" />
            <feBlend mode="normal" in2="BackgroundImageFix" result="effect1_dropShadow_239_369" />
            <feBlend mode="normal" in="SourceGraphic" in2="effect1_dropShadow_239_369" result="shape" />
        </filter>
        <filter id="filter3_d_239_369" x="534" y="197" width="310.648" height="224.013" filterUnits="userSpaceOnUse"
            color-interpolation-filters="sRGB">
            <feFlood flood-opacity="0" result="BackgroundImageFix" />
            <feColorMatrix in="SourceAlpha" type="matrix" values="0 0 0 0 0 0 0 0 0 0 0 0 0 0 0 0 0 0 127 0"
                result="hardAlpha" />
            <feOffset />
            <feGaussianBlur stdDeviation="15" />
            <feComposite in2="hardAlpha" operator="out" />
            <feColorMatrix type="matrix" values="0 0 0 0 0 0 0 0 0 0 0 0 0 0 0 0 0 0 0.06 0" />
            <feBlend mode="normal" in2="BackgroundImageFix" result="effect1_dropShadow_239_369" />
            <feBlend mode="normal" in="SourceGraphic" in2="effect1_dropShadow_239_369" result="shape" />
        </filter>
        <filter id="filter4_d_239_369" x="801" y="197" width="310.648" height="224.013" filterUnits="userSpaceOnUse"
            color-interpolation-filters="sRGB">
            <feFlood flood-opacity="0" result="BackgroundImageFix" />
            <feColorMatrix in="SourceAlpha" type="matrix" values="0 0 0 0 0 0 0 0 0 0 0 0 0 0 0 0 0 0 127 0"
                result="hardAlpha" />
            <feOffset />
            <feGaussianBlur stdDeviation="15" />
            <feComposite in2="hardAlpha" operator="out" />
            <feColorMatrix type="matrix" values="0 0 0 0 0 0 0 0 0 0 0 0 0 0 0 0 0 0 0.06 0" />
            <feBlend mode="normal" in2="BackgroundImageFix" result="effect1_dropShadow_239_369" />
            <feBlend mode="normal" in="SourceGraphic" in2="effect1_dropShadow_239_369" result="shape" />
        </filter>
        <filter id="filter5_d_239_369" x="1068" y="197" width="310.648" height="224.013" filterUnits="userSpaceOnUse"
            color-interpolation-filters="sRGB">
            <feFlood flood-opacity="0" result="BackgroundImageFix" />
            <feColorMatrix in="SourceAlpha" type="matrix" values="0 0 0 0 0 0 0 0 0 0 0 0 0 0 0 0 0 0 127 0"
                result="hardAlpha" />
            <feOffset />
            <feGaussianBlur stdDeviation="15" />
            <feComposite in2="hardAlpha" operator="out" />
            <feColorMatrix type="matrix" values="0 0 0 0 0 0 0 0 0 0 0 0 0 0 0 0 0 0 0.06 0" />
            <feBlend mode="normal" in2="BackgroundImageFix" result="effect1_dropShadow_239_369" />
            <feBlend mode="normal" in="SourceGraphic" in2="effect1_dropShadow_239_369" result="shape" />
        </filter>
    </defs>
</svg>