<svg width="333" height="628" viewBox="0 0 333 628" fill="none" xmlns="http://www.w3.org/2000/svg">
<path d="M167 227L169.887 222L164.113 222L167 227ZM166.5 189L166.5 222.5L167.5 222.5L167.5 189L166.5 189Z" fill="black" fill-opacity="0.25"/>
<path d="M167 431L169.887 426L164.113 426L167 431ZM166.5 393L166.5 426.5L167.5 426.5L167.5 393L166.5 393Z" fill="black" fill-opacity="0.25"/>
<g filter="url(#filter0_d_266_341)">
<rect x="30" y="30" width="261.625" height="112.993" fill="#18AB55"/>
<rect x="41.375" y="39.0067" width="261.625" height="112.993" fill="white"/>
</g>
<g filter="url(#filter1_d_266_341)">
<rect x="42" y="229" width="240.542" height="151.905" fill="#F5F5BC"/>
<rect x="52.4583" y="241.108" width="240.542" height="151.905" fill="white"/>
</g>
<path d="M114.402 99.344H118.632V101H112.35V88.49H114.402V99.344ZM127.89 98.444H122.652L121.752 101H119.61L124.092 88.472H126.468L130.95 101H128.79L127.89 98.444ZM127.314 96.77L125.28 90.956L123.228 96.77H127.314ZM143.177 101H141.125L134.951 91.658V101H132.899V88.472H134.951L141.125 97.796V88.472H143.177V101ZM149.957 88.49C151.289 88.49 152.453 88.748 153.449 89.264C154.457 89.768 155.231 90.5 155.771 91.46C156.323 92.408 156.599 93.518 156.599 94.79C156.599 96.062 156.323 97.166 155.771 98.102C155.231 99.038 154.457 99.758 153.449 100.262C152.453 100.754 151.289 101 149.957 101H145.871V88.49H149.957ZM149.957 99.326C151.421 99.326 152.543 98.93 153.323 98.138C154.103 97.346 154.493 96.23 154.493 94.79C154.493 93.338 154.103 92.204 153.323 91.388C152.543 90.572 151.421 90.164 149.957 90.164H147.923V99.326H149.957ZM170.005 94.574C170.677 94.694 171.247 95.048 171.715 95.636C172.183 96.224 172.417 96.89 172.417 97.634C172.417 98.27 172.249 98.846 171.913 99.362C171.589 99.866 171.115 100.268 170.491 100.568C169.867 100.856 169.141 101 168.313 101H163.309V88.49H168.079C168.931 88.49 169.663 88.634 170.275 88.922C170.887 89.21 171.349 89.6 171.661 90.092C171.973 90.572 172.129 91.112 172.129 91.712C172.129 92.432 171.937 93.032 171.553 93.512C171.169 93.992 170.653 94.346 170.005 94.574ZM165.361 93.746H167.899C168.571 93.746 169.093 93.596 169.465 93.296C169.849 92.984 170.041 92.54 170.041 91.964C170.041 91.4 169.849 90.962 169.465 90.65C169.093 90.326 168.571 90.164 167.899 90.164H165.361V93.746ZM168.133 99.326C168.829 99.326 169.375 99.158 169.771 98.822C170.167 98.486 170.365 98.018 170.365 97.418C170.365 96.806 170.155 96.32 169.735 95.96C169.315 95.6 168.757 95.42 168.061 95.42H165.361V99.326H168.133ZM182.189 98.444H176.951L176.051 101H173.909L178.391 88.472H180.767L185.249 101H183.089L182.189 98.444ZM181.613 96.77L179.579 90.956L177.527 96.77H181.613ZM197.476 101H195.424L189.25 91.658V101H187.198V88.472H189.25L195.424 97.796V88.472H197.476V101ZM207.064 101L202.222 95.402V101H200.17V88.49H202.222V94.196L207.082 88.49H209.656L204.22 94.754L209.746 101H207.064Z" fill="#13203C"/>
<path d="M78.848 316L75.968 310.996H74.402V316H72.35V303.49H76.67C77.63 303.49 78.44 303.658 79.1 303.994C79.772 304.33 80.27 304.78 80.594 305.344C80.93 305.908 81.098 306.538 81.098 307.234C81.098 308.05 80.858 308.794 80.378 309.466C79.91 310.126 79.184 310.576 78.2 310.816L81.296 316H78.848ZM74.402 309.358H76.67C77.438 309.358 78.014 309.166 78.398 308.782C78.794 308.398 78.992 307.882 78.992 307.234C78.992 306.586 78.8 306.082 78.416 305.722C78.032 305.35 77.45 305.164 76.67 305.164H74.402V309.358ZM85.775 305.146V308.818H90.095V310.492H85.775V314.326H90.635V316H83.723V303.472H90.635V305.146H85.775ZM97.2845 316.126C96.4445 316.126 95.6885 315.982 95.0165 315.694C94.3445 315.394 93.8165 314.974 93.4325 314.434C93.0485 313.894 92.8565 313.264 92.8565 312.544H95.0525C95.1005 313.084 95.3105 313.528 95.6825 313.876C96.0665 314.224 96.6005 314.398 97.2845 314.398C97.9925 314.398 98.5445 314.23 98.9405 313.894C99.3365 313.546 99.5345 313.102 99.5345 312.562C99.5345 312.142 99.4085 311.8 99.1565 311.536C98.9165 311.272 98.6105 311.068 98.2385 310.924C97.8785 310.78 97.3745 310.624 96.7265 310.456C95.9105 310.24 95.2445 310.024 94.7285 309.808C94.2245 309.58 93.7925 309.232 93.4325 308.764C93.0725 308.296 92.8925 307.672 92.8925 306.892C92.8925 306.172 93.0725 305.542 93.4325 305.002C93.7925 304.462 94.2965 304.048 94.9445 303.76C95.5925 303.472 96.3425 303.328 97.1945 303.328C98.4065 303.328 99.3965 303.634 100.165 304.246C100.945 304.846 101.377 305.674 101.461 306.73H99.1925C99.1565 306.274 98.9405 305.884 98.5445 305.56C98.1485 305.236 97.6265 305.074 96.9785 305.074C96.3905 305.074 95.9105 305.224 95.5385 305.524C95.1665 305.824 94.9805 306.256 94.9805 306.82C94.9805 307.204 95.0945 307.522 95.3225 307.774C95.5625 308.014 95.8625 308.206 96.2225 308.35C96.5825 308.494 97.0745 308.65 97.6985 308.818C98.5265 309.046 99.1985 309.274 99.7145 309.502C100.243 309.73 100.687 310.084 101.047 310.564C101.419 311.032 101.605 311.662 101.605 312.454C101.605 313.09 101.431 313.69 101.083 314.254C100.747 314.818 100.249 315.274 99.5885 315.622C98.9405 315.958 98.1725 316.126 97.2845 316.126ZM106.078 305.146V308.818H110.398V310.492H106.078V314.326H110.938V316H104.026V303.472H110.938V305.146H106.078ZM119.963 316L117.083 310.996H115.517V316H113.465V303.49H117.785C118.745 303.49 119.555 303.658 120.215 303.994C120.887 304.33 121.385 304.78 121.709 305.344C122.045 305.908 122.213 306.538 122.213 307.234C122.213 308.05 121.973 308.794 121.493 309.466C121.025 310.126 120.299 310.576 119.315 310.816L122.411 316H119.963ZM115.517 309.358H117.785C118.553 309.358 119.129 309.166 119.513 308.782C119.909 308.398 120.107 307.882 120.107 307.234C120.107 306.586 119.915 306.082 119.531 305.722C119.147 305.35 118.565 305.164 117.785 305.164H115.517V309.358ZM135.62 303.49L130.922 316H128.546L123.83 303.49H126.026L129.734 313.894L133.46 303.49H135.62ZM139.388 305.146V308.818H143.708V310.492H139.388V314.326H144.248V316H137.336V303.472H144.248V305.146H139.388ZM150.862 303.49C152.194 303.49 153.358 303.748 154.354 304.264C155.362 304.768 156.136 305.5 156.676 306.46C157.228 307.408 157.504 308.518 157.504 309.79C157.504 311.062 157.228 312.166 156.676 313.102C156.136 314.038 155.362 314.758 154.354 315.262C153.358 315.754 152.194 316 150.862 316H146.776V303.49H150.862ZM150.862 314.326C152.326 314.326 153.448 313.93 154.228 313.138C155.008 312.346 155.398 311.23 155.398 309.79C155.398 308.338 155.008 307.204 154.228 306.388C153.448 305.572 152.326 305.164 150.862 305.164H148.828V314.326H150.862ZM173.879 316L172.331 314.452C171.731 315.052 171.077 315.502 170.369 315.802C169.661 316.09 168.869 316.234 167.993 316.234C167.105 316.234 166.319 316.078 165.635 315.766C164.951 315.454 164.423 315.01 164.051 314.434C163.679 313.846 163.493 313.168 163.493 312.4C163.493 311.536 163.739 310.768 164.231 310.096C164.723 309.412 165.455 308.872 166.427 308.476C166.079 308.056 165.833 307.666 165.689 307.306C165.545 306.934 165.473 306.526 165.473 306.082C165.473 305.53 165.611 305.038 165.887 304.606C166.175 304.174 166.583 303.832 167.111 303.58C167.639 303.328 168.251 303.202 168.947 303.202C169.655 303.202 170.255 303.34 170.747 303.616C171.251 303.88 171.623 304.246 171.863 304.714C172.115 305.182 172.217 305.704 172.169 306.28H170.117C170.129 305.836 170.021 305.494 169.793 305.254C169.565 305.002 169.253 304.876 168.857 304.876C168.461 304.876 168.137 304.996 167.885 305.236C167.645 305.464 167.525 305.746 167.525 306.082C167.525 306.406 167.615 306.73 167.795 307.054C167.987 307.366 168.317 307.774 168.785 308.278L172.097 311.572L173.375 309.466H175.589L173.969 312.238L173.519 312.976L176.561 316H173.879ZM167.993 314.488C169.121 314.488 170.117 314.026 170.981 313.102L167.669 309.772C166.253 310.336 165.545 311.188 165.545 312.328C165.545 312.94 165.773 313.456 166.229 313.876C166.685 314.284 167.273 314.488 167.993 314.488ZM190.124 313.444H184.886L183.986 316H181.844L186.326 303.472H188.702L193.184 316H191.024L190.124 313.444ZM189.548 311.77L187.514 305.956L185.462 311.77H189.548ZM205.915 303.49L201.217 316H198.841L194.125 303.49H196.321L200.029 313.894L203.755 303.49H205.915ZM215.173 313.444H209.935L209.035 316H206.893L211.375 303.472H213.751L218.233 316H216.073L215.173 313.444ZM214.597 311.77L212.563 305.956L210.511 311.77H214.597ZM222.234 303.49V316H220.182V303.49H222.234ZM226.98 314.344H231.21V316H224.928V303.49H226.98V314.344ZM240.468 313.444H235.23L234.33 316H232.188L236.67 303.472H239.046L243.528 316H241.368L240.468 313.444ZM239.892 311.77L237.858 305.956L235.806 311.77H239.892ZM252.173 309.574C252.845 309.694 253.415 310.048 253.883 310.636C254.351 311.224 254.585 311.89 254.585 312.634C254.585 313.27 254.417 313.846 254.081 314.362C253.757 314.866 253.283 315.268 252.659 315.568C252.035 315.856 251.309 316 250.481 316H245.477V303.49H250.247C251.099 303.49 251.831 303.634 252.443 303.922C253.055 304.21 253.517 304.6 253.829 305.092C254.141 305.572 254.297 306.112 254.297 306.712C254.297 307.432 254.105 308.032 253.721 308.512C253.337 308.992 252.821 309.346 252.173 309.574ZM247.529 308.746H250.067C250.739 308.746 251.261 308.596 251.633 308.296C252.017 307.984 252.209 307.54 252.209 306.964C252.209 306.4 252.017 305.962 251.633 305.65C251.261 305.326 250.739 305.164 250.067 305.164H247.529V308.746ZM250.301 314.326C250.997 314.326 251.543 314.158 251.939 313.822C252.335 313.486 252.533 313.018 252.533 312.418C252.533 311.806 252.323 311.32 251.903 310.96C251.483 310.6 250.925 310.42 250.229 310.42H247.529V314.326H250.301ZM258.867 314.344H263.097V316H256.815V303.49H258.867V314.344ZM266.865 305.146V308.818H271.185V310.492H266.865V314.326H271.725V316H264.813V303.472H271.725V305.146H266.865Z" fill="#13203C"/>
<g filter="url(#filter2_d_266_341)">
<rect x="36" y="433" width="251.083" height="151.905" fill="#F9B8AF"/>
<rect x="46.9167" y="445.108" width="251.083" height="151.905" fill="white"/>
</g>
<path d="M65.848 527L62.968 521.996H61.402V527H59.35V514.49H63.67C64.63 514.49 65.44 514.658 66.1 514.994C66.772 515.33 67.27 515.78 67.594 516.344C67.93 516.908 68.098 517.538 68.098 518.234C68.098 519.05 67.858 519.794 67.378 520.466C66.91 521.126 66.184 521.576 65.2 521.816L68.296 527H65.848ZM61.402 520.358H63.67C64.438 520.358 65.014 520.166 65.398 519.782C65.794 519.398 65.992 518.882 65.992 518.234C65.992 517.586 65.8 517.082 65.416 516.722C65.032 516.35 64.45 516.164 63.67 516.164H61.402V520.358ZM72.775 516.146V519.818H77.095V521.492H72.775V525.326H77.635V527H70.723V514.472H77.635V516.146H72.775ZM84.2845 527.126C83.4445 527.126 82.6885 526.982 82.0165 526.694C81.3445 526.394 80.8165 525.974 80.4325 525.434C80.0485 524.894 79.8565 524.264 79.8565 523.544H82.0525C82.1005 524.084 82.3105 524.528 82.6825 524.876C83.0665 525.224 83.6005 525.398 84.2845 525.398C84.9925 525.398 85.5445 525.23 85.9405 524.894C86.3365 524.546 86.5345 524.102 86.5345 523.562C86.5345 523.142 86.4085 522.8 86.1565 522.536C85.9165 522.272 85.6105 522.068 85.2385 521.924C84.8785 521.78 84.3745 521.624 83.7265 521.456C82.9105 521.24 82.2445 521.024 81.7285 520.808C81.2245 520.58 80.7925 520.232 80.4325 519.764C80.0725 519.296 79.8925 518.672 79.8925 517.892C79.8925 517.172 80.0725 516.542 80.4325 516.002C80.7925 515.462 81.2965 515.048 81.9445 514.76C82.5925 514.472 83.3425 514.328 84.1945 514.328C85.4065 514.328 86.3965 514.634 87.1645 515.246C87.9445 515.846 88.3765 516.674 88.4605 517.73H86.1925C86.1565 517.274 85.9405 516.884 85.5445 516.56C85.1485 516.236 84.6265 516.074 83.9785 516.074C83.3905 516.074 82.9105 516.224 82.5385 516.524C82.1665 516.824 81.9805 517.256 81.9805 517.82C81.9805 518.204 82.0945 518.522 82.3225 518.774C82.5625 519.014 82.8625 519.206 83.2225 519.35C83.5825 519.494 84.0745 519.65 84.6985 519.818C85.5265 520.046 86.1985 520.274 86.7145 520.502C87.2425 520.73 87.6865 521.084 88.0465 521.564C88.4185 522.032 88.6045 522.662 88.6045 523.454C88.6045 524.09 88.4305 524.69 88.0825 525.254C87.7465 525.818 87.2485 526.274 86.5885 526.622C85.9405 526.958 85.1725 527.126 84.2845 527.126ZM93.0778 516.146V519.818H97.3978V521.492H93.0778V525.326H97.9378V527H91.0258V514.472H97.9378V516.146H93.0778ZM106.963 527L104.083 521.996H102.517V527H100.465V514.49H104.785C105.745 514.49 106.555 514.658 107.215 514.994C107.887 515.33 108.385 515.78 108.709 516.344C109.045 516.908 109.213 517.538 109.213 518.234C109.213 519.05 108.973 519.794 108.493 520.466C108.025 521.126 107.299 521.576 106.315 521.816L109.411 527H106.963ZM102.517 520.358H104.785C105.553 520.358 106.129 520.166 106.513 519.782C106.909 519.398 107.107 518.882 107.107 518.234C107.107 517.586 106.915 517.082 106.531 516.722C106.147 516.35 105.565 516.164 104.785 516.164H102.517V520.358ZM122.62 514.49L117.922 527H115.546L110.83 514.49H113.026L116.734 524.894L120.46 514.49H122.62ZM126.388 516.146V519.818H130.708V521.492H126.388V525.326H131.248V527H124.336V514.472H131.248V516.146H126.388ZM137.862 514.49C139.194 514.49 140.358 514.748 141.354 515.264C142.362 515.768 143.136 516.5 143.676 517.46C144.228 518.408 144.504 519.518 144.504 520.79C144.504 522.062 144.228 523.166 143.676 524.102C143.136 525.038 142.362 525.758 141.354 526.262C140.358 526.754 139.194 527 137.862 527H133.776V514.49H137.862ZM137.862 525.326C139.326 525.326 140.448 524.93 141.228 524.138C142.008 523.346 142.398 522.23 142.398 520.79C142.398 519.338 142.008 518.204 141.228 517.388C140.448 516.572 139.326 516.164 137.862 516.164H135.828V525.326H137.862ZM160.879 527L159.331 525.452C158.731 526.052 158.077 526.502 157.369 526.802C156.661 527.09 155.869 527.234 154.993 527.234C154.105 527.234 153.319 527.078 152.635 526.766C151.951 526.454 151.423 526.01 151.051 525.434C150.679 524.846 150.493 524.168 150.493 523.4C150.493 522.536 150.739 521.768 151.231 521.096C151.723 520.412 152.455 519.872 153.427 519.476C153.079 519.056 152.833 518.666 152.689 518.306C152.545 517.934 152.473 517.526 152.473 517.082C152.473 516.53 152.611 516.038 152.887 515.606C153.175 515.174 153.583 514.832 154.111 514.58C154.639 514.328 155.251 514.202 155.947 514.202C156.655 514.202 157.255 514.34 157.747 514.616C158.251 514.88 158.623 515.246 158.863 515.714C159.115 516.182 159.217 516.704 159.169 517.28H157.117C157.129 516.836 157.021 516.494 156.793 516.254C156.565 516.002 156.253 515.876 155.857 515.876C155.461 515.876 155.137 515.996 154.885 516.236C154.645 516.464 154.525 516.746 154.525 517.082C154.525 517.406 154.615 517.73 154.795 518.054C154.987 518.366 155.317 518.774 155.785 519.278L159.097 522.572L160.375 520.466H162.589L160.969 523.238L160.519 523.976L163.561 527H160.879ZM154.993 525.488C156.121 525.488 157.117 525.026 157.981 524.102L154.669 520.772C153.253 521.336 152.545 522.188 152.545 523.328C152.545 523.94 152.773 524.456 153.229 524.876C153.685 525.284 154.273 525.488 154.993 525.488ZM171.616 514.49V522.464C171.616 523.412 171.862 524.126 172.354 524.606C172.858 525.086 173.554 525.326 174.442 525.326C175.342 525.326 176.038 525.086 176.53 524.606C177.034 524.126 177.286 523.412 177.286 522.464V514.49H179.338V522.428C179.338 523.448 179.116 524.312 178.672 525.02C178.228 525.728 177.634 526.256 176.89 526.604C176.146 526.952 175.324 527.126 174.424 527.126C173.524 527.126 172.702 526.952 171.958 526.604C171.226 526.256 170.644 525.728 170.212 525.02C169.78 524.312 169.564 523.448 169.564 522.428V514.49H171.616ZM192.288 527H190.236L184.062 517.658V527H182.01V514.472H184.062L190.236 523.796V514.472H192.288V527ZM202.525 524.444H197.287L196.387 527H194.245L198.727 514.472H201.103L205.585 527H203.425L202.525 524.444ZM201.949 522.77L199.915 516.956L197.863 522.77H201.949ZM218.316 514.49L213.618 527H211.242L206.526 514.49H208.722L212.43 524.894L216.156 514.49H218.316ZM227.574 524.444H222.336L221.436 527H219.294L223.776 514.472H226.152L230.634 527H228.474L227.574 524.444ZM226.998 522.77L224.964 516.956L222.912 522.77H226.998ZM234.634 514.49V527H232.582V514.49H234.634ZM239.381 525.344H243.611V527H237.329V514.49H239.381V525.344ZM252.869 524.444H247.631L246.731 527H244.589L249.071 514.472H251.447L255.929 527H253.769L252.869 524.444ZM252.293 522.77L250.259 516.956L248.207 522.77H252.293ZM264.573 520.574C265.245 520.694 265.815 521.048 266.283 521.636C266.751 522.224 266.985 522.89 266.985 523.634C266.985 524.27 266.817 524.846 266.481 525.362C266.157 525.866 265.683 526.268 265.059 526.568C264.435 526.856 263.709 527 262.881 527H257.877V514.49H262.647C263.499 514.49 264.231 514.634 264.843 514.922C265.455 515.21 265.917 515.6 266.229 516.092C266.541 516.572 266.697 517.112 266.697 517.712C266.697 518.432 266.505 519.032 266.121 519.512C265.737 519.992 265.221 520.346 264.573 520.574ZM259.929 519.746H262.467C263.139 519.746 263.661 519.596 264.033 519.296C264.417 518.984 264.609 518.54 264.609 517.964C264.609 517.4 264.417 516.962 264.033 516.65C263.661 516.326 263.139 516.164 262.467 516.164H259.929V519.746ZM262.701 525.326C263.397 525.326 263.943 525.158 264.339 524.822C264.735 524.486 264.933 524.018 264.933 523.418C264.933 522.806 264.723 522.32 264.303 521.96C263.883 521.6 263.325 521.42 262.629 521.42H259.929V525.326H262.701ZM271.267 525.344H275.497V527H269.215V514.49H271.267V525.344ZM279.265 516.146V519.818H283.585V521.492H279.265V525.326H284.125V527H277.213V514.472H284.125V516.146H279.265Z" fill="#13203C"/>
<path d="M167 152V189" stroke="black" stroke-opacity="0.25"/>
<path d="M4 189L323 189" stroke="black" stroke-opacity="0.25"/>
<path d="M4 189L4.00001 521" stroke="black" stroke-opacity="0.25"/>
<path d="M323 189L323 521" stroke="black" stroke-opacity="0.25"/>
<path d="M36 521L31 518.113L31 523.887L36 521ZM4 521.5L31.5 521.5L31.5 520.5L4 520.5L4 521.5Z" fill="black" fill-opacity="0.25"/>
<path d="M298 521L303 523.887V518.113L298 521ZM323 520.5H302.5V521.5H323V520.5Z" fill="black" fill-opacity="0.25"/>
<defs>
<filter id="filter0_d_266_341" x="0" y="0" width="333" height="182" filterUnits="userSpaceOnUse" color-interpolation-filters="sRGB">
<feFlood flood-opacity="0" result="BackgroundImageFix"/>
<feColorMatrix in="SourceAlpha" type="matrix" values="0 0 0 0 0 0 0 0 0 0 0 0 0 0 0 0 0 0 127 0" result="hardAlpha"/>
<feOffset/>
<feGaussianBlur stdDeviation="15"/>
<feComposite in2="hardAlpha" operator="out"/>
<feColorMatrix type="matrix" values="0 0 0 0 0 0 0 0 0 0 0 0 0 0 0 0 0 0 0.06 0"/>
<feBlend mode="normal" in2="BackgroundImageFix" result="effect1_dropShadow_266_341"/>
<feBlend mode="normal" in="SourceGraphic" in2="effect1_dropShadow_266_341" result="shape"/>
</filter>
<filter id="filter1_d_266_341" x="12" y="199" width="311" height="224.013" filterUnits="userSpaceOnUse" color-interpolation-filters="sRGB">
<feFlood flood-opacity="0" result="BackgroundImageFix"/>
<feColorMatrix in="SourceAlpha" type="matrix" values="0 0 0 0 0 0 0 0 0 0 0 0 0 0 0 0 0 0 127 0" result="hardAlpha"/>
<feOffset/>
<feGaussianBlur stdDeviation="15"/>
<feComposite in2="hardAlpha" operator="out"/>
<feColorMatrix type="matrix" values="0 0 0 0 0 0 0 0 0 0 0 0 0 0 0 0 0 0 0.06 0"/>
<feBlend mode="normal" in2="BackgroundImageFix" result="effect1_dropShadow_266_341"/>
<feBlend mode="normal" in="SourceGraphic" in2="effect1_dropShadow_266_341" result="shape"/>
</filter>
<filter id="filter2_d_266_341" x="6" y="403" width="322" height="224.013" filterUnits="userSpaceOnUse" color-interpolation-filters="sRGB">
<feFlood flood-opacity="0" result="BackgroundImageFix"/>
<feColorMatrix in="SourceAlpha" type="matrix" values="0 0 0 0 0 0 0 0 0 0 0 0 0 0 0 0 0 0 127 0" result="hardAlpha"/>
<feOffset/>
<feGaussianBlur stdDeviation="15"/>
<feComposite in2="hardAlpha" operator="out"/>
<feColorMatrix type="matrix" values="0 0 0 0 0 0 0 0 0 0 0 0 0 0 0 0 0 0 0.06 0"/>
<feBlend mode="normal" in2="BackgroundImageFix" result="effect1_dropShadow_266_341"/>
<feBlend mode="normal" in="SourceGraphic" in2="effect1_dropShadow_266_341" result="shape"/>
</filter>
</defs>
</svg>
