<svg width="955" height="422" viewBox="0 0 955 422" fill="none" xmlns="http://www.w3.org/2000/svg">
<g filter="url(#filter0_d_243_412)">
<rect x="341" y="30" width="261.625" height="112.993" fill="#18AB55"/>
<rect x="352.375" y="39.0067" width="261.625" height="112.993" fill="white"/>
</g>
<g filter="url(#filter1_d_243_412)">
<rect x="30" y="227" width="298.013" height="151.905" fill="#F5F5BC"/>
<rect x="42.957" y="239.108" width="298.013" height="151.905" fill="white"/>
</g>
<g filter="url(#filter2_d_243_412)">
<rect x="614" y="227" width="298.013" height="151.905" fill="#F9B8AF"/>
<rect x="626.957" y="239.108" width="298.013" height="151.905" fill="white"/>
</g>
<path d="M425.402 99.344H429.632V101H423.35V88.49H425.402V99.344ZM438.89 98.444H433.652L432.752 101H430.61L435.092 88.472H437.468L441.95 101H439.79L438.89 98.444ZM438.314 96.77L436.28 90.956L434.228 96.77H438.314ZM454.177 101H452.125L445.951 91.658V101H443.899V88.472H445.951L452.125 97.796V88.472H454.177V101ZM460.957 88.49C462.289 88.49 463.453 88.748 464.449 89.264C465.457 89.768 466.231 90.5 466.771 91.46C467.323 92.408 467.599 93.518 467.599 94.79C467.599 96.062 467.323 97.166 466.771 98.102C466.231 99.038 465.457 99.758 464.449 100.262C463.453 100.754 462.289 101 460.957 101H456.871V88.49H460.957ZM460.957 99.326C462.421 99.326 463.543 98.93 464.323 98.138C465.103 97.346 465.493 96.23 465.493 94.79C465.493 93.338 465.103 92.204 464.323 91.388C463.543 90.572 462.421 90.164 460.957 90.164H458.923V99.326H460.957ZM481.005 94.574C481.677 94.694 482.247 95.048 482.715 95.636C483.183 96.224 483.417 96.89 483.417 97.634C483.417 98.27 483.249 98.846 482.913 99.362C482.589 99.866 482.115 100.268 481.491 100.568C480.867 100.856 480.141 101 479.313 101H474.309V88.49H479.079C479.931 88.49 480.663 88.634 481.275 88.922C481.887 89.21 482.349 89.6 482.661 90.092C482.973 90.572 483.129 91.112 483.129 91.712C483.129 92.432 482.937 93.032 482.553 93.512C482.169 93.992 481.653 94.346 481.005 94.574ZM476.361 93.746H478.899C479.571 93.746 480.093 93.596 480.465 93.296C480.849 92.984 481.041 92.54 481.041 91.964C481.041 91.4 480.849 90.962 480.465 90.65C480.093 90.326 479.571 90.164 478.899 90.164H476.361V93.746ZM479.133 99.326C479.829 99.326 480.375 99.158 480.771 98.822C481.167 98.486 481.365 98.018 481.365 97.418C481.365 96.806 481.155 96.32 480.735 95.96C480.315 95.6 479.757 95.42 479.061 95.42H476.361V99.326H479.133ZM493.189 98.444H487.951L487.051 101H484.909L489.391 88.472H491.767L496.249 101H494.089L493.189 98.444ZM492.613 96.77L490.579 90.956L488.527 96.77H492.613ZM508.476 101H506.424L500.25 91.658V101H498.198V88.472H500.25L506.424 97.796V88.472H508.476V101ZM518.064 101L513.222 95.402V101H511.17V88.49H513.222V94.196L518.082 88.49H520.656L515.22 94.754L520.746 101H518.064Z" fill="#13203C"/>
<path d="M91.848 321L88.968 315.996H87.402V321H85.35V308.49H89.67C90.63 308.49 91.44 308.658 92.1 308.994C92.772 309.33 93.27 309.78 93.594 310.344C93.93 310.908 94.098 311.538 94.098 312.234C94.098 313.05 93.858 313.794 93.378 314.466C92.91 315.126 92.184 315.576 91.2 315.816L94.296 321H91.848ZM87.402 314.358H89.67C90.438 314.358 91.014 314.166 91.398 313.782C91.794 313.398 91.992 312.882 91.992 312.234C91.992 311.586 91.8 311.082 91.416 310.722C91.032 310.35 90.45 310.164 89.67 310.164H87.402V314.358ZM98.775 310.146V313.818H103.095V315.492H98.775V319.326H103.635V321H96.723V308.472H103.635V310.146H98.775ZM110.285 321.126C109.445 321.126 108.689 320.982 108.017 320.694C107.345 320.394 106.817 319.974 106.433 319.434C106.049 318.894 105.857 318.264 105.857 317.544H108.053C108.101 318.084 108.311 318.528 108.683 318.876C109.067 319.224 109.601 319.398 110.285 319.398C110.993 319.398 111.545 319.23 111.941 318.894C112.337 318.546 112.535 318.102 112.535 317.562C112.535 317.142 112.409 316.8 112.157 316.536C111.917 316.272 111.611 316.068 111.239 315.924C110.879 315.78 110.375 315.624 109.727 315.456C108.911 315.24 108.245 315.024 107.729 314.808C107.225 314.58 106.793 314.232 106.433 313.764C106.073 313.296 105.893 312.672 105.893 311.892C105.893 311.172 106.073 310.542 106.433 310.002C106.793 309.462 107.297 309.048 107.945 308.76C108.593 308.472 109.343 308.328 110.195 308.328C111.407 308.328 112.397 308.634 113.165 309.246C113.945 309.846 114.377 310.674 114.461 311.73H112.193C112.157 311.274 111.941 310.884 111.545 310.56C111.149 310.236 110.627 310.074 109.979 310.074C109.391 310.074 108.911 310.224 108.539 310.524C108.167 310.824 107.981 311.256 107.981 311.82C107.981 312.204 108.095 312.522 108.323 312.774C108.563 313.014 108.863 313.206 109.223 313.35C109.583 313.494 110.075 313.65 110.699 313.818C111.527 314.046 112.199 314.274 112.715 314.502C113.243 314.73 113.687 315.084 114.047 315.564C114.419 316.032 114.605 316.662 114.605 317.454C114.605 318.09 114.431 318.69 114.083 319.254C113.747 319.818 113.249 320.274 112.589 320.622C111.941 320.958 111.173 321.126 110.285 321.126ZM119.078 310.146V313.818H123.398V315.492H119.078V319.326H123.938V321H117.026V308.472H123.938V310.146H119.078ZM132.963 321L130.083 315.996H128.517V321H126.465V308.49H130.785C131.745 308.49 132.555 308.658 133.215 308.994C133.887 309.33 134.385 309.78 134.709 310.344C135.045 310.908 135.213 311.538 135.213 312.234C135.213 313.05 134.973 313.794 134.493 314.466C134.025 315.126 133.299 315.576 132.315 315.816L135.411 321H132.963ZM128.517 314.358H130.785C131.553 314.358 132.129 314.166 132.513 313.782C132.909 313.398 133.107 312.882 133.107 312.234C133.107 311.586 132.915 311.082 132.531 310.722C132.147 310.35 131.565 310.164 130.785 310.164H128.517V314.358ZM148.62 308.49L143.922 321H141.546L136.83 308.49H139.026L142.734 318.894L146.46 308.49H148.62ZM152.388 310.146V313.818H156.708V315.492H152.388V319.326H157.248V321H150.336V308.472H157.248V310.146H152.388ZM163.862 308.49C165.194 308.49 166.358 308.748 167.354 309.264C168.362 309.768 169.136 310.5 169.676 311.46C170.228 312.408 170.504 313.518 170.504 314.79C170.504 316.062 170.228 317.166 169.676 318.102C169.136 319.038 168.362 319.758 167.354 320.262C166.358 320.754 165.194 321 163.862 321H159.776V308.49H163.862ZM163.862 319.326C165.326 319.326 166.448 318.93 167.228 318.138C168.008 317.346 168.398 316.23 168.398 314.79C168.398 313.338 168.008 312.204 167.228 311.388C166.448 310.572 165.326 310.164 163.862 310.164H161.828V319.326H163.862ZM186.879 321L185.331 319.452C184.731 320.052 184.077 320.502 183.369 320.802C182.661 321.09 181.869 321.234 180.993 321.234C180.105 321.234 179.319 321.078 178.635 320.766C177.951 320.454 177.423 320.01 177.051 319.434C176.679 318.846 176.493 318.168 176.493 317.4C176.493 316.536 176.739 315.768 177.231 315.096C177.723 314.412 178.455 313.872 179.427 313.476C179.079 313.056 178.833 312.666 178.689 312.306C178.545 311.934 178.473 311.526 178.473 311.082C178.473 310.53 178.611 310.038 178.887 309.606C179.175 309.174 179.583 308.832 180.111 308.58C180.639 308.328 181.251 308.202 181.947 308.202C182.655 308.202 183.255 308.34 183.747 308.616C184.251 308.88 184.623 309.246 184.863 309.714C185.115 310.182 185.217 310.704 185.169 311.28H183.117C183.129 310.836 183.021 310.494 182.793 310.254C182.565 310.002 182.253 309.876 181.857 309.876C181.461 309.876 181.137 309.996 180.885 310.236C180.645 310.464 180.525 310.746 180.525 311.082C180.525 311.406 180.615 311.73 180.795 312.054C180.987 312.366 181.317 312.774 181.785 313.278L185.097 316.572L186.375 314.466H188.589L186.969 317.238L186.519 317.976L189.561 321H186.879ZM180.993 319.488C182.121 319.488 183.117 319.026 183.981 318.102L180.669 314.772C179.253 315.336 178.545 316.188 178.545 317.328C178.545 317.94 178.773 318.456 179.229 318.876C179.685 319.284 180.273 319.488 180.993 319.488ZM203.124 318.444H197.886L196.986 321H194.844L199.326 308.472H201.702L206.184 321H204.024L203.124 318.444ZM202.548 316.77L200.514 310.956L198.462 316.77H202.548ZM218.915 308.49L214.217 321H211.841L207.125 308.49H209.321L213.029 318.894L216.755 308.49H218.915ZM228.173 318.444H222.935L222.035 321H219.893L224.375 308.472H226.751L231.233 321H229.073L228.173 318.444ZM227.597 316.77L225.563 310.956L223.511 316.77H227.597ZM235.234 308.49V321H233.182V308.49H235.234ZM239.98 319.344H244.21V321H237.928V308.49H239.98V319.344ZM253.468 318.444H248.23L247.33 321H245.188L249.67 308.472H252.046L256.528 321H254.368L253.468 318.444ZM252.892 316.77L250.858 310.956L248.806 316.77H252.892ZM265.173 314.574C265.845 314.694 266.415 315.048 266.883 315.636C267.351 316.224 267.585 316.89 267.585 317.634C267.585 318.27 267.417 318.846 267.081 319.362C266.757 319.866 266.283 320.268 265.659 320.568C265.035 320.856 264.309 321 263.481 321H258.477V308.49H263.247C264.099 308.49 264.831 308.634 265.443 308.922C266.055 309.21 266.517 309.6 266.829 310.092C267.141 310.572 267.297 311.112 267.297 311.712C267.297 312.432 267.105 313.032 266.721 313.512C266.337 313.992 265.821 314.346 265.173 314.574ZM260.529 313.746H263.067C263.739 313.746 264.261 313.596 264.633 313.296C265.017 312.984 265.209 312.54 265.209 311.964C265.209 311.4 265.017 310.962 264.633 310.65C264.261 310.326 263.739 310.164 263.067 310.164H260.529V313.746ZM263.301 319.326C263.997 319.326 264.543 319.158 264.939 318.822C265.335 318.486 265.533 318.018 265.533 317.418C265.533 316.806 265.323 316.32 264.903 315.96C264.483 315.6 263.925 315.42 263.229 315.42H260.529V319.326H263.301ZM271.867 319.344H276.097V321H269.815V308.49H271.867V319.344ZM279.865 310.146V313.818H284.185V315.492H279.865V319.326H284.725V321H277.813V308.472H284.725V310.146H279.865Z" fill="#13203C"/>
<path d="M658.848 320L655.968 314.996H654.402V320H652.35V307.49H656.67C657.63 307.49 658.44 307.658 659.1 307.994C659.772 308.33 660.27 308.78 660.594 309.344C660.93 309.908 661.098 310.538 661.098 311.234C661.098 312.05 660.858 312.794 660.378 313.466C659.91 314.126 659.184 314.576 658.2 314.816L661.296 320H658.848ZM654.402 313.358H656.67C657.438 313.358 658.014 313.166 658.398 312.782C658.794 312.398 658.992 311.882 658.992 311.234C658.992 310.586 658.8 310.082 658.416 309.722C658.032 309.35 657.45 309.164 656.67 309.164H654.402V313.358ZM665.775 309.146V312.818H670.095V314.492H665.775V318.326H670.635V320H663.723V307.472H670.635V309.146H665.775ZM677.285 320.126C676.445 320.126 675.689 319.982 675.017 319.694C674.345 319.394 673.817 318.974 673.433 318.434C673.049 317.894 672.857 317.264 672.857 316.544H675.053C675.101 317.084 675.311 317.528 675.683 317.876C676.067 318.224 676.601 318.398 677.285 318.398C677.993 318.398 678.545 318.23 678.941 317.894C679.337 317.546 679.535 317.102 679.535 316.562C679.535 316.142 679.409 315.8 679.157 315.536C678.917 315.272 678.611 315.068 678.239 314.924C677.879 314.78 677.375 314.624 676.727 314.456C675.911 314.24 675.245 314.024 674.729 313.808C674.225 313.58 673.793 313.232 673.433 312.764C673.073 312.296 672.893 311.672 672.893 310.892C672.893 310.172 673.073 309.542 673.433 309.002C673.793 308.462 674.297 308.048 674.945 307.76C675.593 307.472 676.343 307.328 677.195 307.328C678.407 307.328 679.397 307.634 680.165 308.246C680.945 308.846 681.377 309.674 681.461 310.73H679.193C679.157 310.274 678.941 309.884 678.545 309.56C678.149 309.236 677.627 309.074 676.979 309.074C676.391 309.074 675.911 309.224 675.539 309.524C675.167 309.824 674.981 310.256 674.981 310.82C674.981 311.204 675.095 311.522 675.323 311.774C675.563 312.014 675.863 312.206 676.223 312.35C676.583 312.494 677.075 312.65 677.699 312.818C678.527 313.046 679.199 313.274 679.715 313.502C680.243 313.73 680.687 314.084 681.047 314.564C681.419 315.032 681.605 315.662 681.605 316.454C681.605 317.09 681.431 317.69 681.083 318.254C680.747 318.818 680.249 319.274 679.589 319.622C678.941 319.958 678.173 320.126 677.285 320.126ZM686.078 309.146V312.818H690.398V314.492H686.078V318.326H690.938V320H684.026V307.472H690.938V309.146H686.078ZM699.963 320L697.083 314.996H695.517V320H693.465V307.49H697.785C698.745 307.49 699.555 307.658 700.215 307.994C700.887 308.33 701.385 308.78 701.709 309.344C702.045 309.908 702.213 310.538 702.213 311.234C702.213 312.05 701.973 312.794 701.493 313.466C701.025 314.126 700.299 314.576 699.315 314.816L702.411 320H699.963ZM695.517 313.358H697.785C698.553 313.358 699.129 313.166 699.513 312.782C699.909 312.398 700.107 311.882 700.107 311.234C700.107 310.586 699.915 310.082 699.531 309.722C699.147 309.35 698.565 309.164 697.785 309.164H695.517V313.358ZM715.62 307.49L710.922 320H708.546L703.83 307.49H706.026L709.734 317.894L713.46 307.49H715.62ZM719.388 309.146V312.818H723.708V314.492H719.388V318.326H724.248V320H717.336V307.472H724.248V309.146H719.388ZM730.862 307.49C732.194 307.49 733.358 307.748 734.354 308.264C735.362 308.768 736.136 309.5 736.676 310.46C737.228 311.408 737.504 312.518 737.504 313.79C737.504 315.062 737.228 316.166 736.676 317.102C736.136 318.038 735.362 318.758 734.354 319.262C733.358 319.754 732.194 320 730.862 320H726.776V307.49H730.862ZM730.862 318.326C732.326 318.326 733.448 317.93 734.228 317.138C735.008 316.346 735.398 315.23 735.398 313.79C735.398 312.338 735.008 311.204 734.228 310.388C733.448 309.572 732.326 309.164 730.862 309.164H728.828V318.326H730.862ZM753.879 320L752.331 318.452C751.731 319.052 751.077 319.502 750.369 319.802C749.661 320.09 748.869 320.234 747.993 320.234C747.105 320.234 746.319 320.078 745.635 319.766C744.951 319.454 744.423 319.01 744.051 318.434C743.679 317.846 743.493 317.168 743.493 316.4C743.493 315.536 743.739 314.768 744.231 314.096C744.723 313.412 745.455 312.872 746.427 312.476C746.079 312.056 745.833 311.666 745.689 311.306C745.545 310.934 745.473 310.526 745.473 310.082C745.473 309.53 745.611 309.038 745.887 308.606C746.175 308.174 746.583 307.832 747.111 307.58C747.639 307.328 748.251 307.202 748.947 307.202C749.655 307.202 750.255 307.34 750.747 307.616C751.251 307.88 751.623 308.246 751.863 308.714C752.115 309.182 752.217 309.704 752.169 310.28H750.117C750.129 309.836 750.021 309.494 749.793 309.254C749.565 309.002 749.253 308.876 748.857 308.876C748.461 308.876 748.137 308.996 747.885 309.236C747.645 309.464 747.525 309.746 747.525 310.082C747.525 310.406 747.615 310.73 747.795 311.054C747.987 311.366 748.317 311.774 748.785 312.278L752.097 315.572L753.375 313.466H755.589L753.969 316.238L753.519 316.976L756.561 320H753.879ZM747.993 318.488C749.121 318.488 750.117 318.026 750.981 317.102L747.669 313.772C746.253 314.336 745.545 315.188 745.545 316.328C745.545 316.94 745.773 317.456 746.229 317.876C746.685 318.284 747.273 318.488 747.993 318.488ZM764.616 307.49V315.464C764.616 316.412 764.862 317.126 765.354 317.606C765.858 318.086 766.554 318.326 767.442 318.326C768.342 318.326 769.038 318.086 769.53 317.606C770.034 317.126 770.286 316.412 770.286 315.464V307.49H772.338V315.428C772.338 316.448 772.116 317.312 771.672 318.02C771.228 318.728 770.634 319.256 769.89 319.604C769.146 319.952 768.324 320.126 767.424 320.126C766.524 320.126 765.702 319.952 764.958 319.604C764.226 319.256 763.644 318.728 763.212 318.02C762.78 317.312 762.564 316.448 762.564 315.428V307.49H764.616ZM785.288 320H783.236L777.062 310.658V320H775.01V307.472H777.062L783.236 316.796V307.472H785.288V320ZM795.525 317.444H790.287L789.387 320H787.245L791.727 307.472H794.103L798.585 320H796.425L795.525 317.444ZM794.949 315.77L792.915 309.956L790.863 315.77H794.949ZM811.316 307.49L806.618 320H804.242L799.526 307.49H801.722L805.43 317.894L809.156 307.49H811.316ZM820.574 317.444H815.336L814.436 320H812.294L816.776 307.472H819.152L823.634 320H821.474L820.574 317.444ZM819.998 315.77L817.964 309.956L815.912 315.77H819.998ZM827.634 307.49V320H825.582V307.49H827.634ZM832.381 318.344H836.611V320H830.329V307.49H832.381V318.344ZM845.869 317.444H840.631L839.731 320H837.589L842.071 307.472H844.447L848.929 320H846.769L845.869 317.444ZM845.293 315.77L843.259 309.956L841.207 315.77H845.293ZM857.573 313.574C858.245 313.694 858.815 314.048 859.283 314.636C859.751 315.224 859.985 315.89 859.985 316.634C859.985 317.27 859.817 317.846 859.481 318.362C859.157 318.866 858.683 319.268 858.059 319.568C857.435 319.856 856.709 320 855.881 320H850.877V307.49H855.647C856.499 307.49 857.231 307.634 857.843 307.922C858.455 308.21 858.917 308.6 859.229 309.092C859.541 309.572 859.697 310.112 859.697 310.712C859.697 311.432 859.505 312.032 859.121 312.512C858.737 312.992 858.221 313.346 857.573 313.574ZM852.929 312.746H855.467C856.139 312.746 856.661 312.596 857.033 312.296C857.417 311.984 857.609 311.54 857.609 310.964C857.609 310.4 857.417 309.962 857.033 309.65C856.661 309.326 856.139 309.164 855.467 309.164H852.929V312.746ZM855.701 318.326C856.397 318.326 856.943 318.158 857.339 317.822C857.735 317.486 857.933 317.018 857.933 316.418C857.933 315.806 857.723 315.32 857.303 314.96C856.883 314.6 856.325 314.42 855.629 314.42H852.929V318.326H855.701ZM864.267 318.344H868.497V320H862.215V307.49H864.267V318.344ZM872.265 309.146V312.818H876.585V314.492H872.265V318.326H877.125V320H870.213V307.472H877.125V309.146H872.265Z" fill="#13203C"/>
<path d="M478 152V189" stroke="black" stroke-opacity="0.25"/>
<path d="M769 227L771.887 222L766.113 222L769 227ZM768.5 189L768.5 222.5L769.5 222.5L769.5 189L768.5 189Z" fill="black" fill-opacity="0.25"/>
<path d="M185 227L187.887 222L182.113 222L185 227ZM184.5 189L184.5 222.5L185.5 222.5L185.5 189L184.5 189Z" fill="black" fill-opacity="0.25"/>
<path d="M185 189L769 189" stroke="black" stroke-opacity="0.25"/>
<defs>
<filter id="filter0_d_243_412" x="311" y="0" width="333" height="182" filterUnits="userSpaceOnUse" color-interpolation-filters="sRGB">
<feFlood flood-opacity="0" result="BackgroundImageFix"/>
<feColorMatrix in="SourceAlpha" type="matrix" values="0 0 0 0 0 0 0 0 0 0 0 0 0 0 0 0 0 0 127 0" result="hardAlpha"/>
<feOffset/>
<feGaussianBlur stdDeviation="15"/>
<feComposite in2="hardAlpha" operator="out"/>
<feColorMatrix type="matrix" values="0 0 0 0 0 0 0 0 0 0 0 0 0 0 0 0 0 0 0.06 0"/>
<feBlend mode="normal" in2="BackgroundImageFix" result="effect1_dropShadow_243_412"/>
<feBlend mode="normal" in="SourceGraphic" in2="effect1_dropShadow_243_412" result="shape"/>
</filter>
<filter id="filter1_d_243_412" x="0" y="197" width="370.97" height="224.013" filterUnits="userSpaceOnUse" color-interpolation-filters="sRGB">
<feFlood flood-opacity="0" result="BackgroundImageFix"/>
<feColorMatrix in="SourceAlpha" type="matrix" values="0 0 0 0 0 0 0 0 0 0 0 0 0 0 0 0 0 0 127 0" result="hardAlpha"/>
<feOffset/>
<feGaussianBlur stdDeviation="15"/>
<feComposite in2="hardAlpha" operator="out"/>
<feColorMatrix type="matrix" values="0 0 0 0 0 0 0 0 0 0 0 0 0 0 0 0 0 0 0.06 0"/>
<feBlend mode="normal" in2="BackgroundImageFix" result="effect1_dropShadow_243_412"/>
<feBlend mode="normal" in="SourceGraphic" in2="effect1_dropShadow_243_412" result="shape"/>
</filter>
<filter id="filter2_d_243_412" x="584" y="197" width="370.97" height="224.013" filterUnits="userSpaceOnUse" color-interpolation-filters="sRGB">
<feFlood flood-opacity="0" result="BackgroundImageFix"/>
<feColorMatrix in="SourceAlpha" type="matrix" values="0 0 0 0 0 0 0 0 0 0 0 0 0 0 0 0 0 0 127 0" result="hardAlpha"/>
<feOffset/>
<feGaussianBlur stdDeviation="15"/>
<feComposite in2="hardAlpha" operator="out"/>
<feColorMatrix type="matrix" values="0 0 0 0 0 0 0 0 0 0 0 0 0 0 0 0 0 0 0.06 0"/>
<feBlend mode="normal" in2="BackgroundImageFix" result="effect1_dropShadow_243_412"/>
<feBlend mode="normal" in="SourceGraphic" in2="effect1_dropShadow_243_412" result="shape"/>
</filter>
</defs>
</svg>
